<svg width="70" height="70" viewBox="0 0 70 70" fill="none" xmlns="http://www.w3.org/2000/svg">
<rect x="1.5" y="1.5" width="67" height="67" rx="33.5" fill="#2B2B2D" fill-opacity="0.65"/>
<path d="M27.2675 49H21.4625V30.3058H27.2675V49ZM24.3619 27.7558C22.5056 27.7558 21 26.2182 21 24.3619C21 23.4703 21.3542 22.6152 21.9847 21.9847C22.6151 21.3542 23.4703 21 24.3619 21C25.2535 21 26.1086 21.3542 26.7391 21.9847C27.3696 22.6152 27.7238 23.4703 27.7238 24.3619C27.7238 26.2182 26.2175 27.7558 24.3619 27.7558ZM48.9937 49H43.2013V39.8998C43.2013 37.731 43.1575 34.9497 40.1831 34.9497C37.165 34.9497 36.7025 37.306 36.7025 39.7435V49H30.9038V30.3058H36.4712V32.8559H36.5525C37.3275 31.3871 39.2206 29.8371 42.045 29.8371C47.92 29.8371 49 33.7059 49 38.731V49H48.9937Z" fill="#E8BF96"/>
<rect x="1.5" y="1.5" width="67" height="67" rx="33.5" stroke="#E8BF96" stroke-width="3"/>
</svg>
