<svg width="70" height="70" viewBox="0 0 70 70" fill="none" xmlns="http://www.w3.org/2000/svg">
<rect x="1.5" y="1.5" width="67" height="67" rx="33.5" fill="#2B2B2D" fill-opacity="0.81"/>
<path d="M35.0036 26.7956C30.4632 26.7956 26.801 30.4587 26.801 35C26.801 39.5413 30.4632 43.2044 35.0036 43.2044C39.5439 43.2044 43.2061 39.5413 43.2061 35C43.2061 30.4587 39.5439 26.7956 35.0036 26.7956ZM35.0036 40.3339C32.0695 40.3339 29.6708 37.9419 29.6708 35C29.6708 32.0581 32.0624 29.6661 35.0036 29.6661C37.9448 29.6661 40.3363 32.0581 40.3363 35C40.3363 37.9419 37.9376 40.3339 35.0036 40.3339ZM45.4549 26.46C45.4549 27.5239 44.5982 28.3736 43.5417 28.3736C42.478 28.3736 41.6284 27.5168 41.6284 26.46C41.6284 25.4032 42.4851 24.5464 43.5417 24.5464C44.5982 24.5464 45.4549 25.4032 45.4549 26.46ZM50.8876 28.4022C50.7662 25.8388 50.1808 23.5681 48.3033 21.6973C46.4329 19.8265 44.1627 19.241 41.5999 19.1125C38.9585 18.9625 31.0415 18.9625 28.4001 19.1125C25.8444 19.2339 23.5742 19.8194 21.6967 21.6902C19.8192 23.561 19.2409 25.8316 19.1124 28.3951C18.9625 31.037 18.9625 38.9558 19.1124 41.5978C19.2338 44.1612 19.8192 46.4319 21.6967 48.3027C23.5742 50.1735 25.8373 50.759 28.4001 50.8875C31.0415 51.0375 38.9585 51.0375 41.5999 50.8875C44.1627 50.7661 46.4329 50.1806 48.3033 48.3027C50.1737 46.4319 50.7591 44.1612 50.8876 41.5978C51.0375 38.9558 51.0375 31.0442 50.8876 28.4022ZM47.4752 44.4326C46.9184 45.8321 45.8404 46.9103 44.434 47.4744C42.3281 48.3098 37.3308 48.117 35.0036 48.117C32.6763 48.117 27.6719 48.3027 25.5731 47.4744C24.1739 46.9174 23.0959 45.8392 22.532 44.4326C21.6967 42.3261 21.8895 37.3278 21.8895 35C21.8895 32.6722 21.7038 27.6667 22.532 25.5674C23.0888 24.1679 24.1668 23.0897 25.5731 22.5256C27.6791 21.6902 32.6763 21.883 35.0036 21.883C37.3308 21.883 42.3352 21.6973 44.434 22.5256C45.8332 23.0826 46.9112 24.1608 47.4752 25.5674C48.3104 27.6739 48.1177 32.6722 48.1177 35C48.1177 37.3278 48.3104 42.3333 47.4752 44.4326Z" fill="#E8BF96"/>
<rect x="1.5" y="1.5" width="67" height="67" rx="33.5" stroke="#E8BF96" stroke-width="3"/>
</svg>
