<svg width="32" height="32" viewBox="0 0 32 32" fill="none" xmlns="http://www.w3.org/2000/svg">
<mask id="path-1-inside-1_209_254" fill="white">
<path d="M16.0036 7.7956C11.4632 7.7956 7.801 11.4587 7.801 16C7.801 20.5413 11.4632 24.2044 16.0036 24.2044C20.5439 24.2044 24.2061 20.5413 24.2061 16C24.2061 11.4587 20.5439 7.7956 16.0036 7.7956ZM16.0036 21.3339C13.0695 21.3339 10.6708 18.9419 10.6708 16C10.6708 13.0581 13.0624 10.6661 16.0036 10.6661C18.9448 10.6661 21.3363 13.0581 21.3363 16C21.3363 18.9419 18.9376 21.3339 16.0036 21.3339ZM26.4549 7.46C26.4549 8.52393 25.5982 9.37365 24.5417 9.37365C23.478 9.37365 22.6284 8.51679 22.6284 7.46C22.6284 6.40321 23.4851 5.54636 24.5417 5.54636C25.5982 5.54636 26.4549 6.40321 26.4549 7.46ZM31.8876 9.40221C31.7662 6.83878 31.1808 4.56811 29.3033 2.69731C27.4329 0.826509 25.1627 0.240991 22.5999 0.112462C19.9585 -0.0374874 12.0415 -0.0374874 9.40011 0.112462C6.8444 0.23385 4.57423 0.819368 2.69671 2.69017C0.819186 4.56097 0.240937 6.83164 0.112437 9.39507C-0.0374791 12.037 -0.0374791 19.9558 0.112437 22.5978C0.233798 25.1612 0.819186 27.4319 2.69671 29.3027C4.57423 31.1735 6.83726 31.759 9.40011 31.8875C12.0415 32.0375 19.9585 32.0375 22.5999 31.8875C25.1627 31.7661 27.4329 31.1806 29.3033 29.3027C31.1737 27.4319 31.7591 25.1612 31.8876 22.5978C32.0375 19.9558 32.0375 12.0442 31.8876 9.40221ZM28.4752 25.4326C27.9184 26.8321 26.8404 27.9103 25.434 28.4744C23.3281 29.3098 18.3308 29.117 16.0036 29.117C13.6763 29.117 8.67195 29.3027 6.57312 28.4744C5.1739 27.9174 4.09593 26.8392 3.53196 25.4326C2.69671 23.3261 2.88946 18.3278 2.88946 16C2.88946 13.6722 2.70385 8.66674 3.53196 6.56744C4.08879 5.16791 5.16676 4.0897 6.57312 3.52561C8.67909 2.69017 13.6763 2.88296 16.0036 2.88296C18.3308 2.88296 23.3352 2.69731 25.434 3.52561C26.8332 4.08256 27.9112 5.16077 28.4752 6.56744C29.3104 8.67388 29.1177 13.6722 29.1177 16C29.1177 18.3278 29.3104 23.3333 28.4752 25.4326Z"/>
</mask>
<path d="M16.0036 7.7956C11.4632 7.7956 7.801 11.4587 7.801 16C7.801 20.5413 11.4632 24.2044 16.0036 24.2044C20.5439 24.2044 24.2061 20.5413 24.2061 16C24.2061 11.4587 20.5439 7.7956 16.0036 7.7956ZM16.0036 21.3339C13.0695 21.3339 10.6708 18.9419 10.6708 16C10.6708 13.0581 13.0624 10.6661 16.0036 10.6661C18.9448 10.6661 21.3363 13.0581 21.3363 16C21.3363 18.9419 18.9376 21.3339 16.0036 21.3339ZM26.4549 7.46C26.4549 8.52393 25.5982 9.37365 24.5417 9.37365C23.478 9.37365 22.6284 8.51679 22.6284 7.46C22.6284 6.40321 23.4851 5.54636 24.5417 5.54636C25.5982 5.54636 26.4549 6.40321 26.4549 7.46ZM31.8876 9.40221C31.7662 6.83878 31.1808 4.56811 29.3033 2.69731C27.4329 0.826509 25.1627 0.240991 22.5999 0.112462C19.9585 -0.0374874 12.0415 -0.0374874 9.40011 0.112462C6.8444 0.23385 4.57423 0.819368 2.69671 2.69017C0.819186 4.56097 0.240937 6.83164 0.112437 9.39507C-0.0374791 12.037 -0.0374791 19.9558 0.112437 22.5978C0.233798 25.1612 0.819186 27.4319 2.69671 29.3027C4.57423 31.1735 6.83726 31.759 9.40011 31.8875C12.0415 32.0375 19.9585 32.0375 22.5999 31.8875C25.1627 31.7661 27.4329 31.1806 29.3033 29.3027C31.1737 27.4319 31.7591 25.1612 31.8876 22.5978C32.0375 19.9558 32.0375 12.0442 31.8876 9.40221ZM28.4752 25.4326C27.9184 26.8321 26.8404 27.9103 25.434 28.4744C23.3281 29.3098 18.3308 29.117 16.0036 29.117C13.6763 29.117 8.67195 29.3027 6.57312 28.4744C5.1739 27.9174 4.09593 26.8392 3.53196 25.4326C2.69671 23.3261 2.88946 18.3278 2.88946 16C2.88946 13.6722 2.70385 8.66674 3.53196 6.56744C4.08879 5.16791 5.16676 4.0897 6.57312 3.52561C8.67909 2.69017 13.6763 2.88296 16.0036 2.88296C18.3308 2.88296 23.3352 2.69731 25.434 3.52561C26.8332 4.08256 27.9112 5.16077 28.4752 6.56744C29.3104 8.67388 29.1177 13.6722 29.1177 16C29.1177 18.3278 29.3104 23.3333 28.4752 25.4326Z" fill="#E8BF96"/>
<path d="M31.8876 9.40221L9.91218 10.4426L9.91706 10.5456L9.9229 10.6486L31.8876 9.40221ZM29.3033 2.69731L13.7452 18.2519L13.76 18.2667L13.7749 18.2815L29.3033 2.69731ZM22.5999 0.112462L21.353 22.0771L21.4255 22.0812L21.498 22.0848L22.5999 0.112462ZM9.40011 0.112462L10.4439 22.0877L10.5455 22.0829L10.647 22.0771L9.40011 0.112462ZM0.112437 9.39507L22.0771 10.6414L22.0812 10.569L22.0848 10.4965L0.112437 9.39507ZM0.112437 22.5978L22.0878 21.5574L22.0829 21.4544L22.0771 21.3514L0.112437 22.5978ZM9.40011 31.8875L10.647 9.9229L10.5745 9.91879L10.502 9.91515L9.40011 31.8875ZM22.5999 31.8875L21.559 9.91217L21.456 9.91705L21.353 9.9229L22.5999 31.8875ZM29.3033 29.3027L13.7452 13.7481L13.7304 13.7629L13.7156 13.7777L29.3033 29.3027ZM31.8876 22.5978L9.9229 21.3514L9.91879 21.4239L9.91515 21.4964L31.8876 22.5978ZM28.4752 25.4326L48.9166 33.5656L28.4752 25.4326ZM25.434 28.4744L33.5464 48.9241L33.5853 48.9087L33.6241 48.8931L25.434 28.4744ZM6.57312 28.4744L-1.56307 48.9146L-1.53302 48.9266L-1.50294 48.9384L6.57312 28.4744ZM3.53196 25.4326L-16.919 33.5418L-16.9036 33.5806L-16.888 33.6194L3.53196 25.4326ZM3.53196 6.56744L-16.9095 -1.56561L-16.9215 -1.53557L-16.9333 -1.50549L3.53196 6.56744ZM6.57312 3.52561L-1.53924 -16.9241L-1.57811 -16.9087L-1.61692 -16.8931L6.57312 3.52561ZM25.434 3.52561L33.5702 -16.9146L33.5402 -16.9266L33.5101 -16.9384L25.434 3.52561ZM28.4752 6.56744L48.9261 -1.54179L48.9107 -1.58065L48.8951 -1.61944L28.4752 6.56744ZM16.0036 -14.2044C-0.691643 -14.2044 -14.199 -0.686975 -14.199 16H29.801C29.801 23.6043 23.6181 29.7956 16.0036 29.7956V-14.2044ZM-14.199 16C-14.199 32.687 -0.691638 46.2044 16.0036 46.2044V2.20439C23.6181 2.20439 29.801 8.39569 29.801 16H-14.199ZM16.0036 46.2044C32.6988 46.2044 46.2061 32.687 46.2061 16H2.20614C2.20614 8.39569 8.38901 2.20439 16.0036 2.20439V46.2044ZM46.2061 16C46.2061 -0.686975 32.6988 -14.2044 16.0036 -14.2044V29.7956C8.389 29.7956 2.20614 23.6043 2.20614 16H46.2061ZM16.0036 -0.666071C25.2052 -0.666071 32.6708 6.77707 32.6708 16H-11.3292C-11.3292 31.1067 0.933771 43.3339 16.0036 43.3339V-0.666071ZM32.6708 16C32.6708 25.2038 25.2172 32.6661 16.0036 32.6661V-11.3339C0.907468 -11.3339 -11.3292 0.912486 -11.3292 16H32.6708ZM16.0036 32.6661C6.78989 32.6661 -0.663691 25.2038 -0.663691 16H43.3363C43.3363 0.912491 31.0997 -11.3339 16.0036 -11.3339V32.6661ZM-0.663691 16C-0.663691 6.77708 6.80192 -0.666071 16.0036 -0.666071V43.3339C31.0734 43.3339 43.3363 31.1067 43.3363 16H-0.663691ZM4.45488 7.46C4.45488 -3.67518 13.4969 -12.6264 24.5417 -12.6264V31.3736C37.6996 31.3736 48.4549 20.723 48.4549 7.46H4.45488ZM24.5417 -12.6264C35.6863 -12.6264 44.6284 -3.57529 44.6284 7.46H0.628445C0.628445 20.6089 11.2696 31.3736 24.5417 31.3736V-12.6264ZM44.6284 7.46C44.6284 18.5489 35.64 27.5464 24.5417 27.5464V-16.4536C11.3302 -16.4536 0.628445 -5.74244 0.628445 7.46H44.6284ZM24.5417 27.5464C13.4433 27.5464 4.45488 18.5488 4.45488 7.46H48.4549C48.4549 -5.74241 37.7531 -16.4536 24.5417 -16.4536V27.5464ZM53.863 8.36182C53.6092 3.00279 52.1551 -5.58975 44.8317 -12.8869L13.7749 18.2815C12.2289 16.7411 11.1389 14.8979 10.5095 13.1158C10.2232 12.3051 10.0768 11.6344 10.0009 11.1828C9.92658 10.7405 9.91341 10.4685 9.91218 10.4426L53.863 8.36182ZM44.8614 -12.8573C37.5746 -20.1457 29.0108 -21.5937 23.7018 -21.8599L21.498 22.0848C21.4809 22.084 21.2183 22.0709 20.7861 21.9976C20.3446 21.9227 19.6838 21.778 18.8826 21.495C17.1212 20.8727 15.2861 19.7932 13.7452 18.2519L44.8614 -12.8573ZM23.8468 -21.8522C20.3748 -22.0493 11.6252 -22.0493 8.15319 -21.8522L10.647 22.0771C12.4578 21.9743 19.5422 21.9743 21.353 22.0771L23.8468 -21.8522ZM8.35636 -21.8628C2.98963 -21.6079 -5.55093 -20.1488 -12.8317 -12.894L18.2251 18.2744C16.6972 19.7969 14.8728 20.8718 13.1081 21.4939C11.536 22.0481 10.4482 22.0875 10.4439 22.0877L8.35636 -21.8628ZM-12.8317 -12.894C-20.1756 -5.57642 -21.5964 3.03467 -21.86 8.29363L22.0848 10.4965C22.0846 10.5023 22.0724 10.7589 22.0001 11.1874C21.9263 11.6253 21.7823 12.288 21.4983 13.094C20.8728 14.8693 19.7836 16.7215 18.2251 18.2744L-12.8317 -12.894ZM-21.8522 8.1487C-22.0493 11.6209 -22.0493 20.3719 -21.8522 23.8442L22.0771 21.3514C21.9743 19.5397 21.9743 12.4532 22.0771 10.6414L-21.8522 8.1487ZM-21.8629 23.6382C-21.6092 28.9972 -20.1551 37.5897 -12.8317 44.8869L18.2251 13.7185C19.7711 15.2589 20.8611 17.1021 21.4905 18.8842C21.7768 19.6949 21.9232 20.3656 21.9991 20.8172C22.0734 21.2595 22.0866 21.5315 22.0878 21.5574L-21.8629 23.6382ZM-12.8317 44.8869C-5.56011 52.1325 2.9581 53.5921 8.29819 53.8599L10.502 9.91515C10.5197 9.91603 10.7839 9.92919 11.2183 10.0029C11.6621 10.0783 12.3241 10.2236 13.1253 10.5069C14.8879 11.1301 16.7056 12.2043 18.2251 13.7185L-12.8317 44.8869ZM8.15319 53.8522C11.6252 54.0493 20.3748 54.0493 23.8468 53.8522L21.353 9.9229C19.5422 10.0257 12.4578 10.0257 10.647 9.9229L8.15319 53.8522ZM23.6407 53.8629C29.0014 53.609 37.5946 52.1535 44.891 44.8276L13.7156 13.7777C15.2557 12.2314 17.0992 11.1404 18.8826 10.5104C19.6938 10.2238 20.3652 10.0771 20.8173 10.0011C21.2602 9.92665 21.5326 9.91342 21.559 9.91217L23.6407 53.8629ZM44.8614 44.8573C52.1472 37.5698 53.5939 29.0067 53.86 23.6992L9.91515 21.4964C9.91599 21.4798 9.92898 21.2177 10.0022 20.786C10.0769 20.3451 10.2214 19.6848 10.5042 18.8842C11.1257 17.1241 12.2044 15.2892 13.7452 13.7481L44.8614 44.8573ZM53.8522 23.8442C54.0493 20.3719 54.0493 11.6281 53.8522 8.15584L9.9229 10.6486C10.0257 12.4603 10.0257 19.5397 9.9229 21.3514L53.8522 23.8442ZM8.03372 17.2995C9.72033 13.0604 13.094 9.72028 17.244 8.0557L33.6241 48.8931C40.5868 46.1003 46.1164 40.6038 48.9166 33.5656L8.03372 17.2995ZM17.3217 8.02471C17.9377 7.78031 18.4635 7.61079 18.8597 7.49549C19.2603 7.3789 19.5923 7.29929 19.8357 7.24626C20.3045 7.14412 20.6112 7.10451 20.6898 7.09475C20.7832 7.08315 20.779 7.08655 20.6552 7.09491C20.5371 7.10289 20.3598 7.11209 20.1162 7.11969C19.6124 7.1354 19.0149 7.13887 18.296 7.13451C17.9367 7.13233 17.5979 7.12867 17.2109 7.12479C16.8577 7.12126 16.4201 7.11704 16.0036 7.11704V51.117C16.32 51.117 19.2615 51.1677 21.4874 51.0983C22.8736 51.0551 28.4055 50.9635 33.5464 48.9241L17.3217 8.02471ZM16.0036 7.11704C15.5924 7.11704 15.1584 7.12105 14.807 7.12439C14.4231 7.12804 14.0831 7.13149 13.725 7.13342C13.0069 7.13729 12.4063 7.13341 11.8988 7.11734C11.6531 7.10957 11.4732 7.1002 11.352 7.092C11.2252 7.08341 11.2172 7.07972 11.3064 7.09076C11.3808 7.09996 11.6827 7.13871 12.1465 7.23923C12.3873 7.29145 12.717 7.37005 13.1155 7.48537C13.5094 7.59938 14.0338 7.76749 14.6492 8.01034L-1.50294 48.9384C3.61377 50.9577 9.12675 51.0516 10.5065 51.0953C12.748 51.1663 15.6467 51.117 16.0036 51.117V7.11704ZM14.7093 8.03418C18.9504 9.72236 22.2889 13.0977 23.9519 17.2457L-16.888 33.6194C-14.097 40.5807 -8.60265 46.1125 -1.56307 48.9146L14.7093 8.03418ZM23.9829 17.3233C24.2271 17.9392 24.3965 18.4646 24.5116 18.8606C24.6281 19.2611 24.7076 19.5929 24.7606 19.8361C24.8626 20.3044 24.9021 20.6107 24.9119 20.6891C24.9234 20.7822 24.92 20.7777 24.9116 20.6537C24.9036 20.5354 24.8944 20.3578 24.8868 20.114C24.8711 19.6098 24.8676 19.012 24.872 18.2929C24.8742 17.9334 24.8778 17.5945 24.8817 17.2074C24.8852 16.8541 24.8895 16.4166 24.8895 16H-19.1105C-19.1105 16.3171 -19.1612 19.2585 -19.0918 21.4846C-19.0486 22.8712 -18.957 28.402 -16.919 33.5418L23.9829 17.3233ZM24.8895 16C24.8895 15.5888 24.8854 15.1548 24.8821 14.8033C24.8785 14.4193 24.875 14.0792 24.8731 13.721C24.8692 13.0027 24.8731 12.4017 24.8892 11.8939C24.8969 11.648 24.9063 11.4678 24.9145 11.3464C24.9231 11.2194 24.9268 11.2111 24.9158 11.3C24.9067 11.3741 24.868 11.6757 24.7676 12.139C24.7155 12.3797 24.6369 12.7091 24.5217 13.1074C24.4078 13.5011 24.2399 14.0252 23.9972 14.6404L-16.9333 -1.50549C-18.9513 3.61009 -19.0451 9.12197 -19.0888 10.5022C-19.1598 12.7439 -19.1105 15.6425 -19.1105 16H24.8895ZM23.9734 14.7005C22.2868 18.9396 18.9131 22.2797 14.7632 23.9443L-1.61692 -16.8931C-8.57962 -14.1003 -14.1092 -8.60378 -16.9095 -1.56561L23.9734 14.7005ZM14.6855 23.9753C14.0694 24.2197 13.5437 24.3892 13.1475 24.5045C12.7468 24.6211 12.4148 24.7007 12.1714 24.7537C11.7026 24.8559 11.396 24.8955 11.3173 24.9053C11.2239 24.9168 11.2281 24.9134 11.3519 24.9051C11.47 24.8971 11.6473 24.8879 11.891 24.8803C12.3947 24.8646 12.9923 24.8611 13.7111 24.8655C14.0705 24.8677 14.4092 24.8713 14.7963 24.8752C15.1495 24.8787 15.587 24.883 16.0036 24.883V-19.117C15.6871 -19.117 12.7456 -19.1677 10.5197 -19.0983C9.13357 -19.0551 3.60169 -18.9635 -1.53924 -16.9241L14.6855 23.9753ZM16.0036 24.883C16.4148 24.883 16.8487 24.879 17.2001 24.8756C17.5841 24.872 17.924 24.8685 18.2821 24.8666C19.0002 24.8627 19.6009 24.8666 20.1083 24.8827C20.354 24.8904 20.534 24.8998 20.6551 24.908C20.7819 24.9166 20.7899 24.9203 20.7007 24.9092C20.6263 24.9 20.3244 24.8613 19.8607 24.7608C19.6198 24.7086 19.2901 24.63 18.8917 24.5146C18.4977 24.4006 17.9733 24.2325 17.358 23.9897L33.5101 -16.9384C28.3934 -18.9577 22.8804 -19.0516 21.5006 -19.0953C19.2591 -19.1663 16.3604 -19.117 16.0036 -19.117V24.883ZM17.2978 23.9658C13.0567 22.2776 9.71824 18.9023 8.05522 14.7543L48.8951 -1.61944C46.1042 -8.58073 40.6098 -14.1125 33.5702 -16.9146L17.2978 23.9658ZM8.02426 14.6767C7.78006 14.0608 7.61069 13.5354 7.49551 13.1394C7.37904 12.7389 7.29952 12.4071 7.24655 12.1639C7.14454 11.6956 7.10501 11.3893 7.09529 11.3109C7.08373 11.2178 7.08715 11.2223 7.09553 11.3463C7.10352 11.4646 7.11273 11.6422 7.12033 11.886C7.13604 12.3902 7.13951 12.988 7.13515 13.7071C7.13297 14.0666 7.12931 14.4055 7.12543 14.7926C7.1219 15.1459 7.11768 15.5834 7.11768 16H51.1177C51.1177 15.6829 51.1684 12.7415 51.099 10.5154C51.0558 9.1288 50.9641 3.59801 48.9261 -1.54179L8.02426 14.6767ZM7.11768 16C7.11768 16.4165 7.1219 16.8542 7.12543 17.2076C7.12931 17.5948 7.13297 17.934 7.13515 18.2938C7.13951 19.0136 7.13604 19.6122 7.12032 20.117C7.11271 20.3612 7.1035 20.5388 7.09551 20.6571C7.08714 20.7811 7.08375 20.785 7.09542 20.691C7.10524 20.6119 7.14509 20.3033 7.24794 19.8317C7.30135 19.5869 7.38158 19.2526 7.49918 18.8492C7.61546 18.4503 7.78665 17.9205 8.03372 17.2995L48.9166 33.5656C50.9665 28.4134 51.0561 22.862 51.099 21.4869C51.1683 19.2601 51.1177 16.3176 51.1177 16H7.11768Z" fill="#E8BF96" mask="url(#path-1-inside-1_209_254)"/>
</svg>
