<svg width="70" height="70" viewBox="0 0 70 70" fill="none" xmlns="http://www.w3.org/2000/svg">
<rect x="1.5" y="1.5" width="67" height="67" rx="33.5" fill="#2B2B2D" fill-opacity="0.81"/>
<path d="M26.163 51H19.5286V29.6352H26.163V51ZM22.8422 26.7209C20.7208 26.7209 19 24.9637 19 22.8422C19 21.8232 19.4048 20.8459 20.1254 20.1254C20.8459 19.4048 21.8232 19 22.8422 19C23.8613 19 24.8385 19.4048 25.5591 20.1254C26.2797 20.8459 26.6845 21.8232 26.6845 22.8422C26.6845 24.9637 24.963 26.7209 22.8422 26.7209ZM50.9936 51H44.3734V40.5998C44.3734 38.1211 44.3234 34.9425 40.9241 34.9425C37.4747 34.9425 36.9461 37.6354 36.9461 40.4212V51H30.3188V29.6352H36.6818V32.5496H36.7747C37.6604 30.871 39.824 29.0995 43.052 29.0995C49.7664 29.0995 51.0007 33.521 51.0007 39.264V51H50.9936Z" fill="#E8BF96"/>
<rect x="1.5" y="1.5" width="67" height="67" rx="33.5" stroke="#E8BF96" stroke-width="3"/>
</svg>
