<svg width="273" height="226" viewBox="0 0 273 226" fill="none" xmlns="http://www.w3.org/2000/svg">
<g filter="url(#filter0_dd_212_50)">
<path fill-rule="evenodd" clip-rule="evenodd" d="M194.655 157.789C194.655 167.839 192.659 176.743 188.669 184.502C184.679 192.186 178.731 198.726 170.824 204.12C164.026 208.775 156.267 212.248 147.548 214.539C138.902 216.83 129.259 217.975 118.618 217.975C111.82 217.975 104.653 217.532 97.1154 216.645C89.5783 215.758 81.7087 214.317 73.5066 212.322L72.3216 184H71.6528V177.904C71.7907 177.89 71.9279 177.875 72.0647 177.859L66.1875 37.3865V73.95L47.8515 125.602H66.1875V143.337H41.556L24.9588 190.091H4L64.6193 25H65.6693L65.6369 24.2271C69.1838 23.8577 72.6568 23.5621 76.0559 23.3404C79.5289 23.1187 82.8541 23.0079 86.0315 23.0079C95.1942 23.0079 103.692 23.8577 111.525 25.5572C114.283 26.1298 116.96 26.8124 119.554 27.605H122.307L122.742 28.6493C126.338 29.908 129.766 31.3896 133.028 33.0943C141.304 37.3801 147.474 42.6635 151.538 48.9444C155.676 55.2254 157.745 62.5038 157.745 70.7799C157.745 74.4006 157.301 78.0953 156.415 81.8639C155.528 85.5585 154.161 89.2901 152.314 93.0587C164.89 98.4277 175.051 107.091 182.797 119.049L220.178 27.605H268.061V33.7012C260.598 33.7751 255.351 34.7357 252.322 36.583C249.292 38.4303 247.519 41.0905 247.001 44.5635C246.484 48.0365 246.226 54.4282 246.226 63.7388V159.504C246.226 164.381 246.854 168.076 248.11 170.588C249.44 173.101 251.546 174.874 254.428 175.909C257.31 176.869 261.854 177.534 268.061 177.904V184H196.569V177.904C203.663 177.83 208.799 176.943 211.976 175.244C215.153 173.544 217.038 171.29 217.629 168.482C218.22 165.601 218.516 160.871 218.516 154.295V47.3345L186.837 125.926C192.049 135.957 194.655 146.578 194.655 157.789ZM137.729 109.394L154.654 150.473C153.999 153.879 153.017 157.155 151.709 160.299L132.086 113.594C134.02 112.274 135.901 110.874 137.729 109.394ZM106.958 39.5005C109.792 42.8321 112.47 47.7341 114.991 54.2065L125.066 78.659L126.71 97.8248C126.439 98.1573 126.161 98.4866 125.876 98.8127L107.787 55.7583C107.108 54.1082 106.432 52.5673 105.758 51.1356L106.958 39.5005ZM102.577 82.0018L105.078 57.7383L123.127 101.629C120.902 103.684 118.328 105.593 115.404 107.357C111.669 109.646 107.393 111.666 102.577 113.415V82.0018ZM95.4633 156.093L96.3697 146.322C96.3573 149.869 96.0551 153.125 95.4633 156.093ZM93.44 177.904L94.1987 169.725C95.6715 167.804 96.8018 165.69 97.5894 163.384C98.4022 166.709 99.6214 169.628 101.247 172.14C102.052 173.295 102.965 174.334 103.986 175.257C103.635 176.139 103.291 177.021 102.953 177.904H93.44ZM92.8744 184L91.5735 198.024C100.071 197.728 107.978 196.177 115.293 193.369C122.609 190.561 129.407 186.571 135.688 181.398C141.549 176.568 146.09 171.204 149.313 165.307L136.986 135.331C131.327 142.31 126.165 149.537 121.5 157.013C118.545 161.75 115.778 166.587 113.199 171.523C116.931 174.458 121.777 176.585 127.738 177.904V184H105.649L100.662 184.169C100.682 184.113 100.702 184.056 100.721 184H92.8744ZM107.984 165.827C104.38 160.109 102.577 152.312 102.577 142.435V126.558C109.233 124.953 115.466 122.727 121.279 119.882C123.9 118.599 126.44 117.194 128.9 115.669L134.446 129.154L130.146 126.754C123.717 136.138 118.027 145.634 113.076 155.24C111.279 158.754 109.581 162.283 107.984 165.827ZM161.302 172.35C159.837 172.472 158.495 172.872 157.276 173.549L159.105 177.904C160.219 175.879 160.951 174.028 161.302 172.35ZM153.934 176.546L157 184H163.428L167.567 173.733C168.255 174.16 168.898 174.683 169.494 175.302C171.489 177.297 172.487 179.662 172.487 182.396C172.487 185.277 171.489 187.716 169.494 189.711C167.573 191.632 165.171 192.593 162.289 192.593C159.407 192.593 156.969 191.632 154.974 189.711C153.053 187.716 152.092 185.277 152.092 182.396C152.092 180.21 152.706 178.26 153.934 176.546ZM171.384 164.262L177.319 149.537C177.845 149.822 178.303 150.171 178.694 150.585C180.024 151.915 180.689 153.873 180.689 156.459C180.689 159.119 180.024 161.114 178.694 162.444C177.437 163.701 175.479 164.329 172.819 164.329C172.317 164.329 171.839 164.306 171.384 164.262ZM147.658 199.354C147.658 196.768 146.993 194.81 145.663 193.48C144.333 192.15 142.338 191.484 139.678 191.484C137.092 191.484 135.134 192.15 133.803 193.48C132.473 194.81 131.808 196.768 131.808 199.354C131.808 202.014 132.473 204.009 133.803 205.339C135.134 206.67 137.092 207.335 139.678 207.335C142.338 207.335 144.333 206.67 145.663 205.339C146.993 204.009 147.658 202.014 147.658 199.354ZM229.267 51.4355V158.396C229.267 165.564 228.639 170.625 227.383 173.581C226.127 176.463 222.949 177.904 217.851 177.904H213.971C217.296 176.056 219.476 174.172 220.511 172.251C221.619 170.256 222.173 166.598 222.173 161.278V54.4282C222.173 48.8123 222.321 44.7482 222.617 42.2358C222.912 39.6496 223.688 37.6545 224.944 36.2505C226.201 34.7726 228.306 33.9229 231.262 33.7012C229.932 36.8047 229.267 42.7161 229.267 51.4355Z" fill="url(#paint0_linear_212_50)" shape-rendering="crispEdges"/>
</g>
<g filter="url(#filter1_d_212_50)">
<path d="M159.219 22.2373L157.961 19.0254H152.649L151.908 20.9346C151.714 21.4212 151.616 21.9266 151.616 22.4507C151.616 22.9523 151.773 23.394 152.088 23.7759C152.41 24.1577 152.855 24.3599 153.424 24.3823V25H148.225V24.3823C149.385 24.2101 150.321 23.2106 151.032 21.3838L154.918 11.4336C154.716 11.0817 154.502 10.8459 154.278 10.7261C154.053 10.5988 153.724 10.5127 153.29 10.4678V9.91748L155.985 8.99658H157.018L162.218 22.2598C162.517 23.0085 162.817 23.5176 163.116 23.7871C163.416 24.0492 163.872 24.2476 164.486 24.3823V25H157.815V24.3823C158.392 24.3224 158.822 24.2326 159.107 24.1128C159.399 23.993 159.545 23.7609 159.545 23.4165C159.545 23.117 159.436 22.724 159.219 22.2373ZM152.919 18.3066H157.681L155.289 12.2534L152.919 18.3066ZM160.241 21.8218L156.232 11.6582C156.037 11.1491 155.835 10.7897 155.625 10.5801C155.416 10.363 155.128 10.2544 154.761 10.2544C154.544 10.2544 154.368 10.2694 154.233 10.2993C154.592 10.4416 154.862 10.64 155.042 10.8945C155.229 11.1491 155.405 11.4897 155.569 11.9165L159.545 22.0801C159.792 22.679 159.916 23.147 159.916 23.4839C159.916 23.701 159.874 23.8582 159.792 23.9556C159.71 24.0529 159.545 24.1951 159.298 24.3823H159.545C159.897 24.3823 160.166 24.2887 160.354 24.1016C160.548 23.9144 160.646 23.6935 160.646 23.439C160.646 23.0721 160.511 22.533 160.241 21.8218ZM149.426 24.3823H151.583C151.111 24.0155 150.875 23.555 150.875 23.001C150.875 22.8438 150.882 22.7202 150.897 22.6304C150.695 23.0047 150.489 23.3229 150.28 23.585C150.078 23.847 149.793 24.1128 149.426 24.3823ZM164.913 9.98486L168.642 8.76074H169.102V16.0269C169.723 15.6899 170.274 15.4354 170.753 15.2632C171.24 15.0835 171.786 14.9937 172.393 14.9937C172.999 14.9937 173.568 15.1134 174.1 15.353C174.639 15.5851 175.099 15.9108 175.481 16.3301C175.87 16.7493 176.174 17.2585 176.391 17.8574C176.608 18.4564 176.716 19.1115 176.716 19.8228C176.716 20.549 176.604 21.2415 176.379 21.9004C176.155 22.5518 175.822 23.1357 175.38 23.6523C174.946 24.1689 174.418 24.5732 173.796 24.8652C173.182 25.1572 172.516 25.3032 171.797 25.3032C170.809 25.3032 169.712 24.9551 168.507 24.2588L166.8 25.2583H166.508V12.4443C166.508 11.3812 165.976 10.7074 164.913 10.4229V9.98486ZM167.631 22.1699V12.3994C167.631 11.6582 167.537 11.1154 167.35 10.771C167.163 10.4266 166.751 10.2544 166.115 10.2544C165.898 10.2544 165.729 10.2694 165.609 10.2993C166.051 10.494 166.369 10.7373 166.564 11.0293C166.766 11.3213 166.867 11.7293 166.867 12.2534V24.5396C167.122 24.3075 167.301 24.0941 167.406 23.8994C167.519 23.6973 167.582 23.4801 167.597 23.248C167.62 23.0085 167.631 22.6491 167.631 22.1699ZM169.102 16.813V21.1816C169.102 22.1999 169.282 23.0197 169.641 23.6411C170 24.255 170.532 24.562 171.236 24.562C171.767 24.562 172.239 24.3823 172.651 24.0229C173.063 23.6561 173.385 23.1245 173.617 22.4282C173.856 21.7319 173.976 20.8934 173.976 19.9126C173.976 19.0741 173.86 18.3478 173.628 17.7339C173.396 17.12 173.078 16.6632 172.673 16.3638C172.277 16.0643 171.831 15.9146 171.337 15.9146C171.045 15.9146 170.663 16.0156 170.191 16.2178C169.727 16.4199 169.364 16.6183 169.102 16.813ZM171.472 15.6113C172.408 15.7012 173.119 16.1092 173.605 16.8354C174.1 17.5542 174.347 18.5724 174.347 19.8901C174.347 21.0656 174.197 22.0314 173.897 22.7876C173.598 23.5438 173.134 24.1278 172.505 24.5396C173.373 24.3 174.014 23.7946 174.425 23.0234C174.845 22.2448 175.054 21.1854 175.054 19.8452C175.054 18.4451 174.747 17.3745 174.133 16.6333C173.527 15.8921 172.838 15.5215 172.067 15.5215C172.029 15.5215 171.831 15.5514 171.472 15.6113ZM184.87 15.1846H188.744V15.7573C188.377 15.9146 188.067 16.1092 187.812 16.3413C187.557 16.5659 187.34 16.8242 187.161 17.1162C186.988 17.4007 186.798 17.7751 186.588 18.2393C186.386 18.696 186.184 19.1864 185.981 19.7104L182.96 27.3921C182.152 29.481 181.074 30.5254 179.726 30.5254C179.284 30.5254 178.903 30.4019 178.581 30.1548C178.266 29.9152 178.109 29.6232 178.109 29.2788C178.109 28.9793 178.232 28.7285 178.479 28.5264C178.734 28.3242 179.034 28.2231 179.378 28.2231C179.543 28.2231 179.722 28.2643 179.917 28.3467C180.119 28.429 180.314 28.5114 180.501 28.5938C180.696 28.6836 180.872 28.7285 181.029 28.7285C181.523 28.7285 181.968 28.2157 182.365 27.1899L182.96 25.5728L179.58 17.7114C179.49 17.4793 179.389 17.2435 179.277 17.0039C179.172 16.7568 179.056 16.5435 178.929 16.3638C178.801 16.1841 178.64 16.0418 178.446 15.937C178.251 15.8247 178.012 15.7648 177.727 15.7573V15.1846H183.567V15.7573C183.103 15.7873 182.747 15.8584 182.5 15.9707C182.26 16.0755 182.141 16.2852 182.141 16.5996C182.141 16.9215 182.245 17.3371 182.455 17.8462L184.319 22.1475L185.723 18.6997C185.91 18.2505 186.004 17.7676 186.004 17.251C186.004 16.4124 185.626 15.9146 184.87 15.7573V15.1846ZM187.498 15.8022H185.723C185.948 15.9819 186.097 16.1691 186.172 16.3638C186.255 16.5509 186.315 16.8467 186.352 17.251C186.524 16.8691 186.693 16.5771 186.857 16.375C187.022 16.1654 187.236 15.9744 187.498 15.8022ZM183.196 25L183.567 24.1016L180.669 17.3857C180.452 16.8766 180.269 16.5135 180.119 16.2964C179.977 16.0718 179.805 15.9183 179.603 15.8359C179.408 15.7536 179.15 15.7274 178.828 15.7573C179.127 16.0269 179.329 16.2664 179.434 16.4761C179.546 16.6857 179.719 17.0601 179.951 17.5991L183.196 25ZM180.119 30.1772C179.505 30.035 179.198 29.743 179.198 29.3013C179.198 29.0243 179.382 28.7959 179.749 28.6162C179.516 28.5488 179.355 28.5151 179.266 28.5151C179.034 28.5151 178.843 28.5863 178.693 28.7285C178.551 28.8783 178.479 29.0542 178.479 29.2563C178.479 29.5558 178.622 29.7954 178.906 29.9751C179.191 30.1548 179.595 30.2222 180.119 30.1772ZM197.549 22.4507C197.938 22.4507 198.268 22.5929 198.537 22.8774C198.814 23.1545 198.953 23.4876 198.953 23.877C198.953 24.139 198.885 24.3786 198.75 24.5957C198.623 24.8128 198.451 24.985 198.234 25.1123C198.024 25.2396 197.796 25.3032 197.549 25.3032C197.16 25.3032 196.83 25.1647 196.561 24.8877C196.299 24.6032 196.167 24.2663 196.167 23.877C196.167 23.4801 196.299 23.1432 196.561 22.8662C196.823 22.5892 197.152 22.4507 197.549 22.4507ZM197.773 24.8203C197.601 24.6481 197.478 24.4984 197.403 24.3711C197.328 24.2363 197.291 24.0566 197.291 23.832C197.291 23.5775 197.328 23.3866 197.403 23.2593C197.478 23.1245 197.601 22.9935 197.773 22.8662C197.714 22.8438 197.624 22.8325 197.504 22.8325C197.257 22.8325 197.032 22.9336 196.83 23.1357C196.635 23.3304 196.538 23.57 196.538 23.8545C196.538 24.124 196.635 24.3561 196.83 24.5508C197.025 24.7454 197.242 24.8428 197.481 24.8428C197.601 24.8428 197.699 24.8353 197.773 24.8203ZM203.074 22.4507C203.464 22.4507 203.793 22.5929 204.062 22.8774C204.34 23.1545 204.478 23.4876 204.478 23.877C204.478 24.139 204.411 24.3786 204.276 24.5957C204.149 24.8128 203.976 24.985 203.759 25.1123C203.55 25.2396 203.321 25.3032 203.074 25.3032C202.685 25.3032 202.355 25.1647 202.086 24.8877C201.824 24.6032 201.693 24.2663 201.693 23.877C201.693 23.4801 201.824 23.1432 202.086 22.8662C202.348 22.5892 202.677 22.4507 203.074 22.4507ZM203.299 24.8203C203.127 24.6481 203.003 24.4984 202.928 24.3711C202.853 24.2363 202.816 24.0566 202.816 23.832C202.816 23.5775 202.853 23.3866 202.928 23.2593C203.003 23.1245 203.127 22.9935 203.299 22.8662C203.239 22.8438 203.149 22.8325 203.029 22.8325C202.782 22.8325 202.558 22.9336 202.355 23.1357C202.161 23.3304 202.063 23.57 202.063 23.8545C202.063 24.124 202.161 24.3561 202.355 24.5508C202.55 24.7454 202.767 24.8428 203.007 24.8428C203.127 24.8428 203.224 24.8353 203.299 24.8203ZM208.6 22.4507C208.989 22.4507 209.318 22.5929 209.588 22.8774C209.865 23.1545 210.003 23.4876 210.003 23.877C210.003 24.139 209.936 24.3786 209.801 24.5957C209.674 24.8128 209.502 24.985 209.285 25.1123C209.075 25.2396 208.847 25.3032 208.6 25.3032C208.21 25.3032 207.881 25.1647 207.611 24.8877C207.349 24.6032 207.218 24.2663 207.218 23.877C207.218 23.4801 207.349 23.1432 207.611 22.8662C207.873 22.5892 208.203 22.4507 208.6 22.4507ZM208.824 24.8203C208.652 24.6481 208.528 24.4984 208.454 24.3711C208.379 24.2363 208.341 24.0566 208.341 23.832C208.341 23.5775 208.379 23.3866 208.454 23.2593C208.528 23.1245 208.652 22.9935 208.824 22.8662C208.764 22.8438 208.674 22.8325 208.555 22.8325C208.308 22.8325 208.083 22.9336 207.881 23.1357C207.686 23.3304 207.589 23.57 207.589 23.8545C207.589 24.124 207.686 24.3561 207.881 24.5508C208.076 24.7454 208.293 24.8428 208.532 24.8428C208.652 24.8428 208.749 24.8353 208.824 24.8203ZM214.125 22.4507C214.514 22.4507 214.844 22.5929 215.113 22.8774C215.39 23.1545 215.529 23.4876 215.529 23.877C215.529 24.139 215.461 24.3786 215.327 24.5957C215.199 24.8128 215.027 24.985 214.81 25.1123C214.6 25.2396 214.372 25.3032 214.125 25.3032C213.736 25.3032 213.406 25.1647 213.137 24.8877C212.875 24.6032 212.744 24.2663 212.744 23.877C212.744 23.4801 212.875 23.1432 213.137 22.8662C213.399 22.5892 213.728 22.4507 214.125 22.4507ZM214.35 24.8203C214.177 24.6481 214.054 24.4984 213.979 24.3711C213.904 24.2363 213.867 24.0566 213.867 23.832C213.867 23.5775 213.904 23.3866 213.979 23.2593C214.054 23.1245 214.177 22.9935 214.35 22.8662C214.29 22.8438 214.2 22.8325 214.08 22.8325C213.833 22.8325 213.608 22.9336 213.406 23.1357C213.212 23.3304 213.114 23.57 213.114 23.8545C213.114 24.124 213.212 24.3561 213.406 24.5508C213.601 24.7454 213.818 24.8428 214.058 24.8428C214.177 24.8428 214.275 24.8353 214.35 24.8203ZM218.067 9.15381H232.341L233.149 12.8599H232.341C231.764 11.894 231.162 11.1865 230.533 10.7373C229.904 10.2881 229.309 10.0186 228.747 9.92871C228.193 9.83887 227.467 9.78646 226.568 9.77148V22.5405C226.568 23.0347 226.647 23.4128 226.804 23.6748C226.961 23.9294 227.22 24.1053 227.579 24.2026C227.938 24.3 228.44 24.3599 229.084 24.3823V25H221.211V24.3823C221.863 24.3674 222.361 24.3187 222.705 24.2363C223.057 24.1465 223.319 23.9668 223.491 23.6973C223.671 23.4202 223.761 22.9897 223.761 22.4058V9.77148C222.952 9.77897 222.248 9.86133 221.649 10.0186C221.05 10.1683 220.549 10.3742 220.145 10.6362C219.74 10.8983 219.403 11.179 219.134 11.4785C218.872 11.7705 218.482 12.231 217.966 12.8599H217.281L218.067 9.15381ZM231.88 11.5684L231.375 9.77148H229.264C229.833 9.95117 230.308 10.1833 230.69 10.4678C231.072 10.7523 231.469 11.1191 231.88 11.5684ZM224.85 22.1475V11.1079C224.85 10.6737 224.798 10.348 224.693 10.1309C224.596 9.91374 224.408 9.79395 224.131 9.77148V22.5405C224.131 23.0047 224.075 23.3753 223.963 23.6523C223.851 23.9294 223.641 24.1727 223.334 24.3823H223.581C224.128 24.3823 224.476 24.2101 224.625 23.8657C224.775 23.5213 224.85 22.9486 224.85 22.1475ZM220.156 9.77148H218.336L217.898 11.6807C218.28 11.179 218.613 10.8084 218.898 10.5688C219.182 10.3218 219.602 10.056 220.156 9.77148ZM242.965 22.2148L243.414 22.563C243.077 23.1919 242.677 23.7085 242.212 24.1128C241.748 24.5171 241.235 24.8166 240.674 25.0112C240.12 25.2059 239.54 25.3032 238.933 25.3032C238.11 25.3032 237.342 25.1048 236.631 24.708C235.927 24.3112 235.369 23.7384 234.958 22.9897C234.546 22.241 234.34 21.3913 234.34 20.4404C234.34 19.6917 234.463 18.988 234.71 18.3291C234.965 17.6702 235.313 17.09 235.755 16.5884C236.204 16.0868 236.721 15.6974 237.305 15.4204C237.896 15.1359 238.525 14.9937 239.191 14.9937C239.865 14.9937 240.505 15.1359 241.112 15.4204C241.726 15.6974 242.212 16.083 242.572 16.5771C242.834 16.9365 243.021 17.3071 243.133 17.689C243.253 18.0633 243.347 18.5163 243.414 19.0479H236.631C236.661 19.8265 236.792 20.4854 237.024 21.0244C237.264 21.5635 237.57 21.9977 237.945 22.3271C238.327 22.6566 238.731 22.8924 239.158 23.0347C239.584 23.1769 239.993 23.248 240.382 23.248C241.325 23.248 242.186 22.9036 242.965 22.2148ZM240.977 18.3291H241.763C241.741 17.4906 241.569 16.8729 241.247 16.4761C240.925 16.0718 240.386 15.8022 239.629 15.6675C240.109 15.8846 240.453 16.1691 240.663 16.521C240.872 16.8654 240.977 17.3932 240.977 18.1045V18.3291ZM236.698 18.3291H240.618V17.9585C240.618 17.5243 240.539 17.1387 240.382 16.8018C240.225 16.4574 240.007 16.1953 239.73 16.0156C239.461 15.8285 239.15 15.7349 238.798 15.7349C238.229 15.7349 237.746 15.9894 237.35 16.4985C236.953 17.0002 236.736 17.6104 236.698 18.3291ZM236.799 16.1167C235.399 17.2248 234.699 18.6772 234.699 20.4741C234.699 21.7769 235.115 22.8438 235.946 23.6748C236.784 24.4984 237.75 24.9102 238.843 24.9102C239.48 24.9102 240.116 24.7829 240.752 24.5283C241.396 24.2663 241.939 23.8807 242.381 23.3716C241.924 23.6636 241.456 23.9032 240.977 24.0903C240.505 24.27 239.94 24.3599 239.281 24.3599C238.166 24.3599 237.234 23.9705 236.485 23.1919C235.744 22.4132 235.373 21.3988 235.373 20.1484C235.373 19.3548 235.497 18.6436 235.744 18.0146C235.991 17.3857 236.343 16.7531 236.799 16.1167ZM251.309 16.3301C251.309 16.1279 251.204 15.9595 250.995 15.8247C250.785 15.6825 250.53 15.6113 250.231 15.6113C249.669 15.6113 249.16 15.776 248.704 16.1055C248.247 16.4274 247.888 16.8953 247.625 17.5093C247.371 18.1157 247.244 18.8045 247.244 19.5757C247.244 20.2869 247.393 20.9346 247.693 21.5186C248 22.0951 248.408 22.5443 248.917 22.8662C249.434 23.1882 249.995 23.3491 250.602 23.3491C251.103 23.3491 251.627 23.2368 252.174 23.0122C252.728 22.7801 253.17 22.4844 253.499 22.125L253.892 22.6528C253.301 23.5063 252.589 24.1615 251.758 24.6182C250.935 25.0749 250.096 25.3032 249.243 25.3032C248.449 25.3032 247.689 25.0861 246.963 24.6519C246.244 24.2176 245.668 23.6299 245.233 22.8887C244.807 22.14 244.593 21.3239 244.593 20.4404C244.593 19.7217 244.724 19.0366 244.986 18.3853C245.248 17.7339 245.623 17.1536 246.109 16.6445C246.604 16.1279 247.188 15.7236 247.861 15.4316C248.535 15.1396 249.28 14.9937 250.096 14.9937C250.755 14.9937 251.354 15.0947 251.893 15.2969C252.432 15.4915 252.855 15.7648 253.162 16.1167C253.477 16.4686 253.634 16.8542 253.634 17.2734C253.634 17.6403 253.499 17.9435 253.229 18.1831C252.96 18.4227 252.642 18.5425 252.275 18.5425C251.938 18.5425 251.657 18.4264 251.433 18.1943C251.215 17.9548 251.107 17.7002 251.107 17.4307C251.107 17.3783 251.141 17.2098 251.208 16.9253C251.275 16.6333 251.309 16.4349 251.309 16.3301ZM251.478 17.4307C251.478 17.6702 251.567 17.8499 251.747 17.9697C251.934 18.0895 252.136 18.1494 252.354 18.1494C252.421 18.1494 252.604 18.1195 252.904 18.0596C252.44 17.9622 252.208 17.7227 252.208 17.3408C252.208 17.3109 252.222 17.2248 252.252 17.0825C252.29 16.9403 252.309 16.8205 252.309 16.7231C252.309 16.3114 252.017 15.9969 251.433 15.7798C251.597 16.0119 251.68 16.2253 251.68 16.4199C251.68 16.5472 251.646 16.7194 251.579 16.9365C251.511 17.1536 251.478 17.3184 251.478 17.4307ZM248.322 15.6899C247.603 15.9595 246.993 16.3301 246.491 16.8018C245.997 17.2734 245.619 17.8237 245.357 18.4526C245.095 19.0741 244.964 19.7067 244.964 20.3506C244.964 21.2266 245.174 22.0127 245.593 22.709C246.012 23.4053 246.562 23.9481 247.244 24.3374C247.932 24.7192 248.629 24.9102 249.333 24.9102C250.358 24.9102 251.324 24.5732 252.23 23.8994C251.249 24.2214 250.459 24.3823 249.86 24.3823C249.097 24.3823 248.397 24.2101 247.76 23.8657C247.124 23.5213 246.618 23.0422 246.244 22.4282C245.87 21.8143 245.683 21.1292 245.683 20.373C245.683 19.4971 245.907 18.6585 246.356 17.8574C246.813 17.0488 247.468 16.3263 248.322 15.6899ZM267.099 24.3823V25H261.596V24.3823C261.888 24.3674 262.109 24.3486 262.259 24.3262C262.416 24.2962 262.555 24.2401 262.674 24.1577C262.794 24.0754 262.88 23.9518 262.933 23.7871C262.993 23.6149 263.022 23.3978 263.022 23.1357V17.8687C263.022 17.1724 262.865 16.6632 262.551 16.3413C262.236 16.0119 261.858 15.8472 261.417 15.8472C260.675 15.8472 259.796 16.3076 258.777 17.2285V23.248C258.777 23.6823 258.878 23.9743 259.081 24.124C259.29 24.2738 259.694 24.3599 260.293 24.3823V25H254.746V24.3823C255.247 24.3674 255.61 24.3075 255.835 24.2026C256.06 24.0903 256.172 23.8283 256.172 23.4165V12.4668C256.172 11.4411 255.644 10.7972 254.588 10.5352V10.0747L258.317 8.89551H258.777V16.4648C259.316 15.9932 259.9 15.63 260.529 15.3755C261.158 15.1209 261.791 14.9937 262.427 14.9937C263.086 14.9937 263.651 15.1097 264.123 15.3418C264.602 15.5739 264.973 15.922 265.235 16.3862C265.497 16.8429 265.628 17.4082 265.628 18.082V22.7427C265.628 23.1919 265.639 23.5101 265.662 23.6973C265.692 23.8844 265.793 24.0454 265.965 24.1802C266.145 24.3149 266.437 24.3823 266.841 24.3823H267.099ZM263.393 17.4307V23.2705C263.393 23.555 263.359 23.7684 263.292 23.9106C263.225 24.0529 263.112 24.2026 262.955 24.3599C263.434 24.3524 263.752 24.2363 263.91 24.0117C264.074 23.7871 264.157 23.4277 264.157 22.9336V18.1494C264.157 17.5654 264.116 17.1125 264.033 16.7905C263.951 16.4611 263.767 16.1953 263.483 15.9932C263.198 15.7835 262.757 15.6637 262.158 15.6338C262.981 15.9408 263.393 16.5397 263.393 17.4307ZM256.542 12.4668V23.1133C256.542 23.4427 256.52 23.6898 256.475 23.8545C256.438 24.0117 256.352 24.1652 256.217 24.3149H256.52C256.692 24.3149 256.864 24.2214 257.037 24.0342C257.209 23.8395 257.295 23.5625 257.295 23.2031V12.377C257.295 11.8529 257.228 11.4523 257.093 11.1753C256.973 10.9357 256.79 10.741 256.542 10.5913C256.303 10.4416 256.048 10.3667 255.779 10.3667C255.659 10.3667 255.453 10.3929 255.161 10.4453C255.708 10.6475 256.075 10.9095 256.262 11.2314C256.449 11.5459 256.542 11.9577 256.542 12.4668Z" fill="white" fill-opacity="0.79" shape-rendering="crispEdges"/>
</g>
<defs>
<filter id="filter0_dd_212_50" x="0" y="23.0079" width="272.061" height="202.967" filterUnits="userSpaceOnUse" color-interpolation-filters="sRGB">
<feFlood flood-opacity="0" result="BackgroundImageFix"/>
<feColorMatrix in="SourceAlpha" type="matrix" values="0 0 0 0 0 0 0 0 0 0 0 0 0 0 0 0 0 0 127 0" result="hardAlpha"/>
<feOffset dy="4"/>
<feGaussianBlur stdDeviation="2"/>
<feComposite in2="hardAlpha" operator="out"/>
<feColorMatrix type="matrix" values="0 0 0 0 0 0 0 0 0 0 0 0 0 0 0 0 0 0 0.25 0"/>
<feBlend mode="normal" in2="BackgroundImageFix" result="effect1_dropShadow_212_50"/>
<feColorMatrix in="SourceAlpha" type="matrix" values="0 0 0 0 0 0 0 0 0 0 0 0 0 0 0 0 0 0 127 0" result="hardAlpha"/>
<feOffset dy="4"/>
<feGaussianBlur stdDeviation="2"/>
<feComposite in2="hardAlpha" operator="out"/>
<feColorMatrix type="matrix" values="0 0 0 0 0 0 0 0 0 0 0 0 0 0 0 0 0 0 0.25 0"/>
<feBlend mode="normal" in2="effect1_dropShadow_212_50" result="effect2_dropShadow_212_50"/>
<feBlend mode="normal" in="SourceGraphic" in2="effect2_dropShadow_212_50" result="shape"/>
</filter>
<filter id="filter1_d_212_50" x="144.225" y="8.76074" width="126.875" height="29.7646" filterUnits="userSpaceOnUse" color-interpolation-filters="sRGB">
<feFlood flood-opacity="0" result="BackgroundImageFix"/>
<feColorMatrix in="SourceAlpha" type="matrix" values="0 0 0 0 0 0 0 0 0 0 0 0 0 0 0 0 0 0 127 0" result="hardAlpha"/>
<feOffset dy="4"/>
<feGaussianBlur stdDeviation="2"/>
<feComposite in2="hardAlpha" operator="out"/>
<feColorMatrix type="matrix" values="0 0 0 0 0 0 0 0 0 0 0 0 0 0 0 0 0 0 0.25 0"/>
<feBlend mode="normal" in2="BackgroundImageFix" result="effect1_dropShadow_212_50"/>
<feBlend mode="normal" in="SourceGraphic" in2="effect1_dropShadow_212_50" result="shape"/>
</filter>
<linearGradient id="paint0_linear_212_50" x1="135.531" y1="20.605" x2="136.012" y2="267.604" gradientUnits="userSpaceOnUse">
<stop stop-color="#E8A766"/>
<stop offset="0.128654" stop-color="#AB5806"/>
<stop offset="0.246304" stop-color="#B88D20"/>
<stop offset="0.371383" stop-color="#9E9010"/>
<stop offset="0.477972" stop-color="#A7E756"/>
<stop offset="0.595673" stop-color="#410C85" stop-opacity="0.99"/>
<stop offset="0.811541" stop-color="#E8BF96"/>
</linearGradient>
</defs>
</svg>
