<svg width="273" height="218" viewBox="0 0 273 218" fill="none" xmlns="http://www.w3.org/2000/svg">
<g filter="url(#filter0_d_212_51)">
<path fill-rule="evenodd" clip-rule="evenodd" d="M157.961 11.0254L159.219 14.2373C159.436 14.724 159.545 15.117 159.545 15.4165C159.545 15.7609 159.399 15.993 159.107 16.1128C158.822 16.2326 158.392 16.3224 157.815 16.3823V17H164.486V16.3823C163.872 16.2476 163.416 16.0492 163.116 15.7871C162.817 15.5176 162.517 15.0085 162.218 14.2598L157.018 0.996582H155.985L153.29 1.91748V2.46777C153.724 2.5127 154.053 2.5988 154.278 2.72607C154.502 2.84587 154.716 3.08171 154.918 3.43359L151.032 13.3838C150.321 15.2106 149.385 16.2101 148.225 16.3823V17H153.424V16.3823C152.855 16.3599 152.41 16.1577 152.088 15.7759C151.773 15.394 151.616 14.9523 151.616 14.4507C151.616 13.9266 151.714 13.4212 151.908 12.9346L152.649 11.0254H157.961ZM157.681 10.3066H152.919L155.289 4.25342L157.681 10.3066ZM156.232 3.6582L160.241 13.8218C160.511 14.533 160.646 15.0721 160.646 15.439C160.646 15.6935 160.548 15.9144 160.354 16.1016C160.166 16.2887 159.897 16.3823 159.545 16.3823H159.298C159.545 16.1951 159.71 16.0529 159.792 15.9556C159.874 15.8582 159.916 15.701 159.916 15.4839C159.916 15.147 159.792 14.679 159.545 14.0801L155.569 3.9165C155.405 3.48975 155.229 3.14909 155.042 2.89453C154.862 2.63997 154.592 2.44157 154.233 2.29932C154.368 2.26937 154.544 2.25439 154.761 2.25439C155.128 2.25439 155.416 2.36296 155.625 2.58008C155.835 2.78971 156.037 3.14909 156.232 3.6582ZM151.583 16.3823H149.426C149.793 16.1128 150.078 15.847 150.28 15.585C150.489 15.3229 150.695 15.0047 150.897 14.6304C150.882 14.7202 150.875 14.8438 150.875 15.001C150.875 15.555 151.111 16.0155 151.583 16.3823ZM168.642 0.760742L164.913 1.98486V2.42285C165.976 2.70736 166.508 3.38118 166.508 4.44434V17.2583H166.8L168.507 16.2588C169.712 16.9551 170.809 17.3032 171.797 17.3032C172.516 17.3032 173.182 17.1572 173.796 16.8652C174.418 16.5732 174.946 16.1689 175.38 15.6523C175.822 15.1357 176.155 14.5518 176.379 13.9004C176.604 13.2415 176.716 12.549 176.716 11.8228C176.716 11.1115 176.608 10.4564 176.391 9.85742C176.174 9.25846 175.87 8.74935 175.481 8.33008C175.099 7.91081 174.639 7.58512 174.1 7.35303C173.568 7.11344 172.999 6.99365 172.393 6.99365C171.786 6.99365 171.24 7.0835 170.753 7.26318C170.274 7.43538 169.723 7.68994 169.102 8.02686V0.760742H168.642ZM167.631 4.39941V14.1699C167.631 14.6491 167.62 15.0085 167.597 15.248C167.582 15.4801 167.519 15.6973 167.406 15.8994C167.301 16.0941 167.122 16.3075 166.867 16.5396V4.25342C166.867 3.72933 166.766 3.32129 166.564 3.0293C166.369 2.7373 166.051 2.49398 165.609 2.29932C165.729 2.26937 165.898 2.25439 166.115 2.25439C166.751 2.25439 167.163 2.4266 167.35 2.771C167.537 3.1154 167.631 3.6582 167.631 4.39941ZM169.102 13.1816V8.81299C169.364 8.61833 169.727 8.41992 170.191 8.21777C170.663 8.01562 171.045 7.91455 171.337 7.91455C171.831 7.91455 172.277 8.06429 172.673 8.36377C173.078 8.66325 173.396 9.11995 173.628 9.73389C173.86 10.3478 173.976 11.0741 173.976 11.9126C173.976 12.8934 173.856 13.7319 173.617 14.4282C173.385 15.1245 173.063 15.6561 172.651 16.0229C172.239 16.3823 171.767 16.562 171.236 16.562C170.532 16.562 170 16.255 169.641 15.6411C169.282 15.0197 169.102 14.1999 169.102 13.1816ZM173.605 8.83545C173.119 8.10921 172.408 7.70117 171.472 7.61133C171.831 7.55143 172.029 7.52148 172.067 7.52148C172.838 7.52148 173.527 7.89209 174.133 8.6333C174.747 9.37451 175.054 10.4451 175.054 11.8452C175.054 13.1854 174.845 14.2448 174.425 15.0234C174.014 15.7946 173.373 16.3 172.505 16.5396C173.134 16.1278 173.598 15.5438 173.897 14.7876C174.197 14.0314 174.347 13.0656 174.347 11.8901C174.347 10.5724 174.1 9.5542 173.605 8.83545ZM188.744 7.18457H184.87V7.75732C185.626 7.91455 186.004 8.41244 186.004 9.25098C186.004 9.76758 185.91 10.2505 185.723 10.6997L184.319 14.1475L182.455 9.84619C182.245 9.33708 182.141 8.92155 182.141 8.59961C182.141 8.28516 182.26 8.07552 182.5 7.9707C182.747 7.8584 183.103 7.78727 183.567 7.75732V7.18457H177.727V7.75732C178.012 7.76481 178.251 7.82471 178.446 7.93701C178.64 8.04183 178.801 8.18408 178.929 8.36377C179.056 8.54346 179.172 8.75684 179.277 9.00391C179.389 9.24349 179.49 9.47933 179.58 9.71143L182.96 17.5728L182.365 19.1899C181.968 20.2157 181.523 20.7285 181.029 20.7285C180.872 20.7285 180.696 20.6836 180.501 20.5938C180.314 20.5114 180.119 20.429 179.917 20.3467C179.722 20.2643 179.543 20.2231 179.378 20.2231C179.034 20.2231 178.734 20.3242 178.479 20.5264C178.232 20.7285 178.109 20.9793 178.109 21.2788C178.109 21.6232 178.266 21.9152 178.581 22.1548C178.903 22.4019 179.284 22.5254 179.726 22.5254C181.074 22.5254 182.152 21.481 182.96 19.3921L185.981 11.7104C186.184 11.1864 186.386 10.696 186.588 10.2393C186.798 9.77507 186.988 9.40072 187.161 9.11621C187.34 8.82422 187.557 8.56592 187.812 8.34131C188.067 8.10921 188.377 7.91455 188.744 7.75732V7.18457ZM185.723 7.80225H187.498C187.236 7.97445 187.022 8.16536 186.857 8.375C186.693 8.57715 186.524 8.86914 186.352 9.25098C186.315 8.84668 186.255 8.55094 186.172 8.36377C186.097 8.16911 185.948 7.98193 185.723 7.80225ZM183.567 16.1016L183.196 17L179.951 9.59912C179.719 9.06006 179.546 8.68571 179.434 8.47607C179.329 8.26644 179.127 8.02686 178.828 7.75732C179.15 7.72738 179.408 7.75358 179.603 7.83594C179.805 7.91829 179.977 8.07178 180.119 8.29639C180.269 8.51351 180.452 8.87663 180.669 9.38574L183.567 16.1016ZM179.198 21.3013C179.198 21.743 179.505 22.035 180.119 22.1772C179.595 22.2222 179.191 22.1548 178.906 21.9751C178.622 21.7954 178.479 21.5558 178.479 21.2563C178.479 21.0542 178.551 20.8783 178.693 20.7285C178.843 20.5863 179.034 20.5151 179.266 20.5151C179.355 20.5151 179.516 20.5488 179.749 20.6162C179.382 20.7959 179.198 21.0243 179.198 21.3013ZM198.537 14.8774C198.268 14.5929 197.938 14.4507 197.549 14.4507C197.152 14.4507 196.823 14.5892 196.561 14.8662C196.299 15.1432 196.167 15.4801 196.167 15.877C196.167 16.2663 196.299 16.6032 196.561 16.8877C196.83 17.1647 197.16 17.3032 197.549 17.3032C197.796 17.3032 198.024 17.2396 198.234 17.1123C198.451 16.985 198.623 16.8128 198.75 16.5957C198.885 16.3786 198.953 16.139 198.953 15.877C198.953 15.4876 198.814 15.1545 198.537 14.8774ZM197.403 16.3711C197.478 16.4984 197.601 16.6481 197.773 16.8203C197.699 16.8353 197.601 16.8428 197.481 16.8428C197.242 16.8428 197.025 16.7454 196.83 16.5508C196.635 16.3561 196.538 16.124 196.538 15.8545C196.538 15.57 196.635 15.3304 196.83 15.1357C197.032 14.9336 197.257 14.8325 197.504 14.8325C197.624 14.8325 197.714 14.8438 197.773 14.8662C197.601 14.9935 197.478 15.1245 197.403 15.2593C197.328 15.3866 197.291 15.5775 197.291 15.832C197.291 16.0566 197.328 16.2363 197.403 16.3711ZM204.062 14.8774C203.793 14.5929 203.464 14.4507 203.074 14.4507C202.677 14.4507 202.348 14.5892 202.086 14.8662C201.824 15.1432 201.693 15.4801 201.693 15.877C201.693 16.2663 201.824 16.6032 202.086 16.8877C202.355 17.1647 202.685 17.3032 203.074 17.3032C203.321 17.3032 203.55 17.2396 203.759 17.1123C203.976 16.985 204.149 16.8128 204.276 16.5957C204.411 16.3786 204.478 16.139 204.478 15.877C204.478 15.4876 204.34 15.1545 204.062 14.8774ZM202.928 16.3711C203.003 16.4984 203.127 16.6481 203.299 16.8203C203.224 16.8353 203.127 16.8428 203.007 16.8428C202.767 16.8428 202.55 16.7454 202.355 16.5508C202.161 16.3561 202.063 16.124 202.063 15.8545C202.063 15.57 202.161 15.3304 202.355 15.1357C202.558 14.9336 202.782 14.8325 203.029 14.8325C203.149 14.8325 203.239 14.8438 203.299 14.8662C203.127 14.9935 203.003 15.1245 202.928 15.2593C202.853 15.3866 202.816 15.5775 202.816 15.832C202.816 16.0566 202.853 16.2363 202.928 16.3711ZM209.588 14.8774C209.318 14.5929 208.989 14.4507 208.6 14.4507C208.203 14.4507 207.873 14.5892 207.611 14.8662C207.349 15.1432 207.218 15.4801 207.218 15.877C207.218 16.2663 207.349 16.6032 207.611 16.8877C207.881 17.1647 208.21 17.3032 208.6 17.3032C208.847 17.3032 209.075 17.2396 209.285 17.1123C209.502 16.985 209.674 16.8128 209.801 16.5957C209.936 16.3786 210.003 16.139 210.003 15.877C210.003 15.4876 209.865 15.1545 209.588 14.8774ZM208.454 16.3711C208.528 16.4984 208.652 16.6481 208.824 16.8203C208.749 16.8353 208.652 16.8428 208.532 16.8428C208.293 16.8428 208.076 16.7454 207.881 16.5508C207.686 16.3561 207.589 16.124 207.589 15.8545C207.589 15.57 207.686 15.3304 207.881 15.1357C208.083 14.9336 208.308 14.8325 208.555 14.8325C208.674 14.8325 208.764 14.8438 208.824 14.8662C208.652 14.9935 208.528 15.1245 208.454 15.2593C208.379 15.3866 208.341 15.5775 208.341 15.832C208.341 16.0566 208.379 16.2363 208.454 16.3711ZM215.113 14.8774C214.844 14.5929 214.514 14.4507 214.125 14.4507C213.728 14.4507 213.399 14.5892 213.137 14.8662C212.875 15.1432 212.744 15.4801 212.744 15.877C212.744 16.2663 212.875 16.6032 213.137 16.8877C213.406 17.1647 213.736 17.3032 214.125 17.3032C214.372 17.3032 214.6 17.2396 214.81 17.1123C215.027 16.985 215.199 16.8128 215.327 16.5957C215.461 16.3786 215.529 16.139 215.529 15.877C215.529 15.4876 215.39 15.1545 215.113 14.8774ZM213.979 16.3711C214.054 16.4984 214.177 16.6481 214.35 16.8203C214.275 16.8353 214.177 16.8428 214.058 16.8428C213.818 16.8428 213.601 16.7454 213.406 16.5508C213.212 16.3561 213.114 16.124 213.114 15.8545C213.114 15.57 213.212 15.3304 213.406 15.1357C213.608 14.9336 213.833 14.8325 214.08 14.8325C214.2 14.8325 214.29 14.8438 214.35 14.8662C214.177 14.9935 214.054 15.1245 213.979 15.2593C213.904 15.3866 213.867 15.5775 213.867 15.832C213.867 16.0566 213.904 16.2363 213.979 16.3711ZM232.341 1.15381H218.067L217.281 4.85986H217.966C218.482 4.23096 218.872 3.77051 219.134 3.47852C219.403 3.17904 219.74 2.89827 220.145 2.63623C220.549 2.37419 221.05 2.16829 221.649 2.01855C222.248 1.86133 222.952 1.77897 223.761 1.77148V14.4058C223.761 14.9897 223.671 15.4202 223.491 15.6973C223.319 15.9668 223.057 16.1465 222.705 16.2363C222.361 16.3187 221.863 16.3674 221.211 16.3823V17H229.084V16.3823C228.44 16.3599 227.938 16.3 227.579 16.2026C227.22 16.1053 226.961 15.9294 226.804 15.6748C226.647 15.4128 226.568 15.0347 226.568 14.5405V1.77148C227.467 1.78646 228.193 1.83887 228.747 1.92871C229.309 2.01855 229.904 2.28809 230.533 2.7373C231.162 3.18652 231.764 3.89404 232.341 4.85986H233.149L232.341 1.15381ZM231.375 1.77148L231.88 3.56836C231.469 3.11914 231.072 2.75228 230.69 2.46777C230.308 2.18327 229.833 1.95117 229.264 1.77148H231.375ZM224.85 3.10791V14.1475C224.85 14.9486 224.775 15.5213 224.625 15.8657C224.476 16.2101 224.128 16.3823 223.581 16.3823H223.334C223.641 16.1727 223.851 15.9294 223.963 15.6523C224.075 15.3753 224.131 15.0047 224.131 14.5405V1.77148C224.408 1.79395 224.596 1.91374 224.693 2.13086C224.798 2.34798 224.85 2.67367 224.85 3.10791ZM218.336 1.77148H220.156C219.602 2.05599 219.182 2.32178 218.898 2.56885C218.613 2.80843 218.28 3.17904 217.898 3.68066L218.336 1.77148ZM243.414 14.563L242.965 14.2148C242.186 14.9036 241.325 15.248 240.382 15.248C239.993 15.248 239.584 15.1769 239.158 15.0347C238.731 14.8924 238.327 14.6566 237.945 14.3271C237.57 13.9977 237.264 13.5635 237.024 13.0244C236.792 12.4854 236.661 11.8265 236.631 11.0479H243.414C243.347 10.5163 243.253 10.0633 243.133 9.68896C243.021 9.30713 242.834 8.93652 242.572 8.57715C242.212 8.08301 241.726 7.69743 241.112 7.42041C240.505 7.1359 239.865 6.99365 239.191 6.99365C238.525 6.99365 237.896 7.1359 237.305 7.42041C236.721 7.69743 236.204 8.08675 235.755 8.58838C235.313 9.09001 234.965 9.67025 234.71 10.3291C234.463 10.988 234.34 11.6917 234.34 12.4404C234.34 13.3913 234.546 14.241 234.958 14.9897C235.369 15.7384 235.927 16.3112 236.631 16.708C237.342 17.1048 238.11 17.3032 238.933 17.3032C239.54 17.3032 240.12 17.2059 240.674 17.0112C241.235 16.8166 241.748 16.5171 242.212 16.1128C242.677 15.7085 243.077 15.1919 243.414 14.563ZM241.763 10.3291H240.977V10.1045C240.977 9.39323 240.872 8.8654 240.663 8.521C240.453 8.16911 240.109 7.8846 239.629 7.66748C240.386 7.80225 240.925 8.07178 241.247 8.47607C241.569 8.87288 241.741 9.49056 241.763 10.3291ZM240.618 10.3291H236.698C236.736 9.61035 236.953 9.00016 237.35 8.49854C237.746 7.98942 238.229 7.73486 238.798 7.73486C239.15 7.73486 239.461 7.82845 239.73 8.01562C240.007 8.19531 240.225 8.45736 240.382 8.80176C240.539 9.13867 240.618 9.52425 240.618 9.9585V10.3291ZM234.699 12.4741C234.699 10.6772 235.399 9.22477 236.799 8.1167C236.343 8.75309 235.991 9.38574 235.744 10.0146C235.497 10.6436 235.373 11.3548 235.373 12.1484C235.373 13.3988 235.744 14.4132 236.485 15.1919C237.234 15.9705 238.166 16.3599 239.281 16.3599C239.94 16.3599 240.505 16.27 240.977 16.0903C241.456 15.9032 241.924 15.6636 242.381 15.3716C241.939 15.8807 241.396 16.2663 240.752 16.5283C240.116 16.7829 239.48 16.9102 238.843 16.9102C237.75 16.9102 236.784 16.4984 235.946 15.6748C235.115 14.8438 234.699 13.7769 234.699 12.4741ZM250.995 7.82471C251.204 7.95947 251.309 8.12793 251.309 8.33008C251.309 8.4349 251.275 8.6333 251.208 8.92529C251.141 9.2098 251.107 9.37825 251.107 9.43066C251.107 9.7002 251.215 9.95475 251.433 10.1943C251.657 10.4264 251.938 10.5425 252.275 10.5425C252.642 10.5425 252.96 10.4227 253.229 10.1831C253.499 9.94352 253.634 9.6403 253.634 9.27344C253.634 8.85417 253.477 8.46859 253.162 8.1167C252.855 7.76481 252.432 7.49154 251.893 7.29688C251.354 7.09473 250.755 6.99365 250.096 6.99365C249.28 6.99365 248.535 7.13965 247.861 7.43164C247.188 7.72363 246.604 8.12793 246.109 8.64453C245.623 9.15365 245.248 9.73389 244.986 10.3853C244.724 11.0366 244.593 11.7217 244.593 12.4404C244.593 13.3239 244.807 14.14 245.233 14.8887C245.668 15.6299 246.244 16.2176 246.963 16.6519C247.689 17.0861 248.449 17.3032 249.243 17.3032C250.096 17.3032 250.935 17.0749 251.758 16.6182C252.589 16.1615 253.301 15.5063 253.892 14.6528L253.499 14.125C253.17 14.4844 252.728 14.7801 252.174 15.0122C251.627 15.2368 251.103 15.3491 250.602 15.3491C249.995 15.3491 249.434 15.1882 248.917 14.8662C248.408 14.5443 248 14.0951 247.693 13.5186C247.393 12.9346 247.244 12.2869 247.244 11.5757C247.244 10.8045 247.371 10.1157 247.625 9.50928C247.888 8.89534 248.247 8.42741 248.704 8.10547C249.16 7.77604 249.669 7.61133 250.231 7.61133C250.53 7.61133 250.785 7.68245 250.995 7.82471ZM251.747 9.96973C251.567 9.84993 251.478 9.67025 251.478 9.43066C251.478 9.31836 251.511 9.15365 251.579 8.93652C251.646 8.7194 251.68 8.5472 251.68 8.41992C251.68 8.22526 251.597 8.01188 251.433 7.77979C252.017 7.99691 252.309 8.31136 252.309 8.72314C252.309 8.82048 252.29 8.94027 252.252 9.08252C252.222 9.22477 252.208 9.31087 252.208 9.34082C252.208 9.72266 252.44 9.96224 252.904 10.0596C252.604 10.1195 252.421 10.1494 252.354 10.1494C252.136 10.1494 251.934 10.0895 251.747 9.96973ZM246.491 8.80176C246.993 8.33008 247.603 7.95947 248.322 7.68994C247.468 8.32633 246.813 9.04883 246.356 9.85742C245.907 10.6585 245.683 11.4971 245.683 12.373C245.683 13.1292 245.87 13.8143 246.244 14.4282C246.618 15.0422 247.124 15.5213 247.76 15.8657C248.397 16.2101 249.097 16.3823 249.86 16.3823C250.459 16.3823 251.249 16.2214 252.23 15.8994C251.324 16.5732 250.358 16.9102 249.333 16.9102C248.629 16.9102 247.932 16.7192 247.244 16.3374C246.562 15.9481 246.012 15.4053 245.593 14.709C245.174 14.0127 244.964 13.2266 244.964 12.3506C244.964 11.7067 245.095 11.0741 245.357 10.4526C245.619 9.82373 245.997 9.27344 246.491 8.80176ZM267.099 17V16.3823H266.841C266.437 16.3823 266.145 16.3149 265.965 16.1802C265.793 16.0454 265.692 15.8844 265.662 15.6973C265.639 15.5101 265.628 15.1919 265.628 14.7427V10.082C265.628 9.4082 265.497 8.84294 265.235 8.38623C264.973 7.92204 264.602 7.57389 264.123 7.3418C263.651 7.1097 263.086 6.99365 262.427 6.99365C261.791 6.99365 261.158 7.12093 260.529 7.37549C259.9 7.63005 259.316 7.99316 258.777 8.46484V0.895508H258.317L254.588 2.07471V2.53516C255.644 2.7972 256.172 3.44108 256.172 4.4668V15.4165C256.172 15.8283 256.06 16.0903 255.835 16.2026C255.61 16.3075 255.247 16.3674 254.746 16.3823V17H260.293V16.3823C259.695 16.3599 259.29 16.2738 259.081 16.124C258.878 15.9743 258.777 15.6823 258.777 15.248V9.22852C259.796 8.30762 260.675 7.84717 261.417 7.84717C261.858 7.84717 262.236 8.01188 262.551 8.34131C262.865 8.66325 263.022 9.17236 263.022 9.86865V15.1357C263.022 15.3978 262.993 15.6149 262.933 15.7871C262.88 15.9518 262.794 16.0754 262.674 16.1577C262.555 16.2401 262.416 16.2962 262.259 16.3262C262.109 16.3486 261.888 16.3674 261.596 16.3823V17H267.099ZM263.292 15.9106C263.359 15.7684 263.393 15.555 263.393 15.2705V9.43066C263.393 8.53971 262.981 7.94076 262.158 7.63379C262.757 7.66374 263.198 7.78353 263.483 7.99316C263.767 8.19531 263.951 8.4611 264.033 8.79053C264.116 9.11247 264.157 9.56543 264.157 10.1494V14.9336C264.157 15.4277 264.074 15.7871 263.91 16.0117C263.752 16.2363 263.434 16.3524 262.955 16.3599C263.112 16.2026 263.225 16.0529 263.292 15.9106ZM256.542 15.1133V4.4668C256.542 3.95768 256.449 3.5459 256.262 3.23145C256.075 2.90951 255.708 2.64746 255.161 2.44531C255.453 2.3929 255.659 2.3667 255.779 2.3667C256.048 2.3667 256.303 2.44157 256.542 2.59131C256.79 2.74105 256.973 2.93571 257.093 3.17529C257.228 3.45231 257.295 3.85286 257.295 4.37695V15.2031C257.295 15.5625 257.209 15.8395 257.037 16.0342C256.864 16.2214 256.692 16.3149 256.52 16.3149H256.217C256.352 16.1652 256.438 16.0117 256.475 15.8545C256.52 15.6898 256.542 15.4427 256.542 15.1133ZM188.669 176.502C192.659 168.743 194.655 159.839 194.655 149.789C194.655 138.578 192.049 127.957 186.837 117.926L218.516 39.3345V146.295C218.516 152.871 218.22 157.601 217.629 160.482C217.038 163.29 215.153 165.544 211.976 167.244C208.799 168.943 203.663 169.83 196.569 169.904V176H268.061V169.904C261.854 169.534 257.31 168.869 254.428 167.909C251.546 166.874 249.44 165.101 248.11 162.588C246.854 160.076 246.226 156.381 246.226 151.504V55.7388C246.226 46.4282 246.484 40.0365 247.001 36.5635C247.519 33.0905 249.292 30.4303 252.322 28.583C255.351 26.7357 260.598 25.7751 268.061 25.7012V19.605H220.178L182.797 111.049C175.051 99.091 164.89 90.4277 152.314 85.0587C154.161 81.2901 155.528 77.5585 156.415 73.8639C157.301 70.0953 157.745 66.4007 157.745 62.7799C157.745 54.5038 155.676 47.2254 151.538 40.9444C147.474 34.6635 141.304 29.3801 133.028 25.0943C129.766 23.3896 126.338 21.908 122.742 20.6493L122.307 19.605H119.554C116.96 18.8124 114.283 18.1298 111.525 17.5572C103.692 15.8577 95.1942 15.0079 86.0315 15.0079C82.8541 15.0079 79.5289 15.1187 76.0559 15.3404C72.6568 15.5621 69.1838 15.8577 65.6369 16.2271L65.6693 17H64.6193L4 182.091H24.9588L41.556 135.337H66.1875V117.602H47.8515L66.1875 65.95V29.3865L72.0647 169.859C71.9279 169.875 71.7907 169.89 71.6528 169.904V176H72.3216L73.5066 204.322C81.7087 206.317 89.5783 207.758 97.1154 208.645C104.653 209.532 111.82 209.975 118.618 209.975C129.259 209.975 138.902 208.83 147.548 206.539C156.267 204.248 164.026 200.775 170.824 196.12C178.731 190.726 184.679 184.186 188.669 176.502ZM154.654 142.473L137.729 101.394C135.901 102.874 134.02 104.274 132.086 105.594L151.709 152.299C153.017 149.155 153.999 145.879 154.654 142.473ZM114.991 46.2065C112.47 39.7341 109.792 34.8321 106.958 31.5005L105.758 43.1356C106.432 44.5673 107.108 46.1082 107.787 47.7583L125.876 90.8127C126.161 90.4866 126.439 90.1573 126.71 89.8248L125.066 70.659L114.991 46.2065ZM105.078 49.7383L102.577 74.0018V105.415C107.393 103.666 111.669 101.646 115.404 99.357C118.328 97.5933 120.902 95.6839 123.127 93.6287L105.078 49.7383ZM95.4633 148.093L96.3697 138.322C96.3573 141.869 96.0551 145.125 95.4633 148.093ZM94.1987 161.725L93.44 169.904H102.953C103.291 169.021 103.635 168.139 103.986 167.257C102.965 166.334 102.052 165.295 101.247 164.14C99.6214 161.628 98.4022 158.709 97.5894 155.384C96.8018 157.69 95.6715 159.804 94.1987 161.725ZM91.5735 190.024L92.8744 176H100.721L100.662 176.169L105.649 176H127.738V169.904C121.777 168.585 116.931 166.458 113.199 163.523C115.778 158.587 118.545 153.75 121.5 149.013C126.165 141.537 131.327 134.31 136.986 127.331L149.313 157.307C146.09 163.204 141.549 168.568 135.688 173.398C129.407 178.571 122.609 182.561 115.293 185.369C107.978 188.177 100.071 189.728 91.5735 190.024ZM102.577 134.435C102.577 144.312 104.38 152.109 107.984 157.827C109.581 154.283 111.279 150.754 113.076 147.24C118.027 137.634 123.717 128.138 130.146 118.754L134.446 121.154L128.9 107.669C126.44 109.194 123.9 110.599 121.279 111.882C115.466 114.727 109.233 116.953 102.577 118.558V134.435ZM157.276 165.549C158.495 164.872 159.837 164.472 161.302 164.35C160.951 166.028 160.219 167.879 159.105 169.904L157.276 165.549ZM157 176L153.934 168.546C152.706 170.26 152.092 172.21 152.092 174.396C152.092 177.277 153.053 179.716 154.974 181.711C156.969 183.632 159.407 184.593 162.289 184.593C165.171 184.593 167.573 183.632 169.494 181.711C171.489 179.716 172.487 177.277 172.487 174.396C172.487 171.662 171.489 169.297 169.494 167.302C168.898 166.683 168.255 166.16 167.567 165.733L163.428 176H157ZM177.319 141.537L171.384 156.262C171.839 156.306 172.317 156.329 172.819 156.329C175.479 156.329 177.437 155.701 178.694 154.444C180.024 153.114 180.689 151.119 180.689 148.459C180.689 145.873 180.024 143.915 178.694 142.585C178.303 142.171 177.845 141.822 177.319 141.537ZM145.663 185.48C146.993 186.81 147.658 188.768 147.658 191.354C147.658 194.014 146.993 196.009 145.663 197.339C144.333 198.67 142.338 199.335 139.678 199.335C137.092 199.335 135.134 198.67 133.803 197.339C132.473 196.009 131.808 194.014 131.808 191.354C131.808 188.768 132.473 186.81 133.803 185.48C135.134 184.15 137.092 183.484 139.678 183.484C142.338 183.484 144.333 184.15 145.663 185.48ZM229.267 150.396V43.4355C229.267 34.7161 229.932 28.8047 231.262 25.7012C228.306 25.9229 226.201 26.7726 224.944 28.2505C223.688 29.6545 222.912 31.6496 222.617 34.2358C222.321 36.7482 222.173 40.8123 222.173 46.4282V153.278C222.173 158.598 221.619 162.256 220.511 164.251C219.476 166.172 217.296 168.056 213.971 169.904H217.851C222.949 169.904 226.127 168.463 227.383 165.581C228.639 162.625 229.267 157.564 229.267 150.396Z" fill="white" fill-opacity="0.79" shape-rendering="crispEdges"/>
</g>
<defs>
<filter id="filter0_d_212_51" x="0" y="0.760742" width="272.061" height="217.214" filterUnits="userSpaceOnUse" color-interpolation-filters="sRGB">
<feFlood flood-opacity="0" result="BackgroundImageFix"/>
<feColorMatrix in="SourceAlpha" type="matrix" values="0 0 0 0 0 0 0 0 0 0 0 0 0 0 0 0 0 0 127 0" result="hardAlpha"/>
<feOffset dy="4"/>
<feGaussianBlur stdDeviation="2"/>
<feComposite in2="hardAlpha" operator="out"/>
<feColorMatrix type="matrix" values="0 0 0 0 0 0 0 0 0 0 0 0 0 0 0 0 0 0 0.25 0"/>
<feBlend mode="normal" in2="BackgroundImageFix" result="effect1_dropShadow_212_51"/>
<feBlend mode="normal" in="SourceGraphic" in2="effect1_dropShadow_212_51" result="shape"/>
</filter>
</defs>
</svg>
