<svg width="34" height="27" viewBox="0 0 34 27" fill="none" xmlns="http://www.w3.org/2000/svg">
<path d="M29.9505 6.72888C29.9717 7.02418 29.9717 7.31954 29.9717 7.61484C29.9717 16.6218 23.0878 27 10.506 27C6.62977 27 3.02896 25.882 0 23.9414C0.550737 24.0047 1.08022 24.0258 1.65215 24.0258C4.85049 24.0258 7.79475 22.95 10.1459 21.1149C7.13813 21.0516 4.61753 19.0899 3.74908 16.3898C4.17274 16.4531 4.59634 16.4953 5.0412 16.4953C5.65544 16.4953 6.26974 16.4109 6.8416 16.2633C3.70677 15.6304 1.35555 12.8883 1.35555 9.57655V9.49221C2.26632 9.99846 3.32548 10.3149 4.44801 10.357C2.60523 9.13354 1.39793 7.04528 1.39793 4.68277C1.39793 3.41716 1.73677 2.25701 2.32989 1.2445C5.69775 5.37887 10.7601 8.07883 16.4367 8.37419C16.3308 7.86794 16.2672 7.34065 16.2672 6.81329C16.2672 3.05856 19.3174 0 23.1089 0C25.0787 0 26.8579 0.822654 28.1077 2.15156C29.6539 1.85626 31.1366 1.2867 32.4499 0.506254C31.9414 2.08832 30.8612 3.41723 29.4421 4.26092C30.8189 4.11334 32.1533 3.73356 33.3818 3.20627C32.45 4.55622 31.285 5.75851 29.9505 6.72888Z" fill="#E8BF96"/>
</svg>
