<svg width="70" height="70" viewBox="0 0 70 70" fill="none" xmlns="http://www.w3.org/2000/svg">
<rect x="1.5" y="1.5" width="67" height="67" rx="33.5" fill="#2B2B2D" fill-opacity="0.81"/>
<path d="M47.9505 27.7289C47.9717 28.0242 47.9717 28.3195 47.9717 28.6148C47.9717 37.6218 41.0878 48 28.506 48C24.6298 48 21.029 46.882 18 44.9414C18.5507 45.0047 19.0802 45.0258 19.6521 45.0258C22.8505 45.0258 25.7948 43.95 28.1459 42.1149C25.1381 42.0516 22.6175 40.0899 21.7491 37.3898C22.1727 37.4531 22.5963 37.4953 23.0412 37.4953C23.6554 37.4953 24.2697 37.4109 24.8416 37.2633C21.7068 36.6304 19.3556 33.8883 19.3556 30.5766V30.4922C20.2663 30.9985 21.3255 31.3149 22.448 31.357C20.6052 30.1335 19.3979 28.0453 19.3979 25.6828C19.3979 24.4172 19.7368 23.257 20.3299 22.2445C23.6978 26.3789 28.7601 29.0788 34.4367 29.3742C34.3308 28.8679 34.2672 28.3406 34.2672 27.8133C34.2672 24.0586 37.3174 21 41.1089 21C43.0787 21 44.8579 21.8227 46.1077 23.1516C47.6539 22.8563 49.1366 22.2867 50.4499 21.5063C49.9414 23.0883 48.8612 24.4172 47.4421 25.2609C48.8189 25.1133 50.1533 24.7336 51.3818 24.2063C50.45 25.5562 49.285 26.7585 47.9505 27.7289Z" fill="#E8BF96"/>
<rect x="1.5" y="1.5" width="67" height="67" rx="33.5" stroke="#E8BF96" stroke-width="3"/>
</svg>
