<svg width="70" height="70" viewBox="0 0 70 70" fill="none" xmlns="http://www.w3.org/2000/svg">
<rect x="1.5" y="1.5" width="67" height="67" rx="33.5" fill="#2B2B2D" fill-opacity="0.81"/>
<path d="M45.5067 24.3594C42.7009 21.5469 38.9643 20 34.9933 20C26.7969 20 20.1272 26.6696 20.1272 34.8661C20.1272 37.4844 20.8103 40.0424 22.1094 42.2991L20 50L27.8817 47.9308C30.0513 49.1161 32.4955 49.7388 34.9866 49.7388H34.9933C43.183 49.7388 50 43.0692 50 34.8728C50 30.9018 48.3125 27.1719 45.5067 24.3594ZM34.9933 47.2344C32.7701 47.2344 30.5937 46.6384 28.6987 45.5134L28.25 45.2455L23.5759 46.471L24.8214 41.9107L24.5268 41.442C23.2879 39.4732 22.6384 37.2031 22.6384 34.8661C22.6384 28.0558 28.183 22.5112 35 22.5112C38.3013 22.5112 41.4018 23.7969 43.7321 26.1339C46.0625 28.471 47.4955 31.5714 47.4888 34.8728C47.4888 41.6897 41.8036 47.2344 34.9933 47.2344ZM41.7701 37.9799C41.4018 37.7924 39.5737 36.8951 39.2321 36.7746C38.8906 36.6473 38.6429 36.5871 38.3951 36.9621C38.1473 37.3371 37.4375 38.1674 37.2165 38.4219C37.0022 38.6696 36.7812 38.7031 36.4129 38.5156C34.2299 37.4241 32.7969 36.567 31.3571 34.096C30.9754 33.4397 31.7388 33.4866 32.4487 32.067C32.5692 31.8192 32.5089 31.6049 32.4152 31.4174C32.3214 31.2299 31.5781 29.4018 31.2701 28.6585C30.9687 27.9353 30.6607 28.0357 30.433 28.0223C30.2187 28.0089 29.971 28.0089 29.7232 28.0089C29.4754 28.0089 29.0737 28.1027 28.7321 28.471C28.3906 28.846 27.433 29.7433 27.433 31.5714C27.433 33.3996 28.7656 35.1674 28.9464 35.4152C29.1339 35.6629 31.5647 39.4129 35.2946 41.0268C37.6518 42.0446 38.5759 42.1317 39.7545 41.9576C40.471 41.8504 41.9509 41.0603 42.2589 40.1897C42.567 39.3192 42.567 38.5759 42.4732 38.4219C42.3862 38.2545 42.1384 38.1607 41.7701 37.9799Z" fill="#E8BF96"/>
<rect x="1.5" y="1.5" width="67" height="67" rx="33.5" stroke="#E8BF96" stroke-width="3"/>
</svg>
