<svg width="30" height="27" viewBox="0 0 30 27" fill="none" xmlns="http://www.w3.org/2000/svg">
<path d="M28.6279 6.46265C28.3007 5.23088 27.3369 4.26078 26.1131 3.93156C23.8948 3.33333 15 3.33333 15 3.33333C15 3.33333 6.1052 3.33333 3.88692 3.93156C2.66312 4.26083 1.69927 5.23088 1.37213 6.46265C0.777756 8.69531 0.777756 13.3535 0.777756 13.3535C0.777756 13.3535 0.777756 18.0118 1.37213 20.2444C1.69927 21.4762 2.66312 22.4059 3.88692 22.7351C6.1052 23.3333 15 23.3333 15 23.3333C15 23.3333 23.8948 23.3333 26.1131 22.7351C27.3369 22.4059 28.3007 21.4762 28.6279 20.2444C29.2222 18.0118 29.2222 13.3535 29.2222 13.3535C29.2222 13.3535 29.2222 8.69531 28.6279 6.46265V6.46265ZM12.0909 17.5829V9.12421L19.5252 13.3536L12.0909 17.5829V17.5829Z" fill="#038E46"/>
</svg>
