<svg width="48" height="48" viewBox="0 0 48 48" fill="none" xmlns="http://www.w3.org/2000/svg">
<path d="M28 6C28 6.53043 28.2107 7.03914 28.5858 7.41422C28.9609 7.78929 29.4696 8 30 8H38C38.5304 8 39.0391 8.21071 39.4142 8.58578C39.7893 8.96086 40 9.46957 40 10V38C40 38.5304 39.7893 39.0391 39.4142 39.4142C39.0391 39.7893 38.5304 40 38 40H30C29.4696 40 28.9609 40.2107 28.5858 40.5858C28.2107 40.9609 28 41.4696 28 42C28 42.5304 28.2107 43.0391 28.5858 43.4142C28.9609 43.7893 29.4696 44 30 44H38C39.5913 44 41.1174 43.3679 42.2426 42.2426C43.3679 41.1174 44 39.5913 44 38V10C44 8.4087 43.3679 6.88258 42.2426 5.75736C41.1174 4.63214 39.5913 4 38 4H30C29.4696 4 28.9609 4.21071 28.5858 4.58578C28.2107 4.96086 28 5.46957 28 6ZM31.42 25.42C31.6021 25.2298 31.7448 25.0055 31.84 24.76C31.9458 24.5206 32.0005 24.2617 32.0005 24C32.0005 23.7383 31.9458 23.4794 31.84 23.24C31.7448 22.9945 31.6021 22.7702 31.42 22.58L23.42 14.58C23.0434 14.2034 22.5326 13.9918 22 13.9918C21.4674 13.9918 20.9566 14.2034 20.58 14.58C20.2034 14.9566 19.9918 15.4674 19.9918 16C19.9918 16.5326 20.2034 17.0434 20.58 17.42L25.18 22H6C5.46957 22 4.96086 22.2107 4.58579 22.5858C4.21071 22.9609 4 23.4696 4 24C4 24.5304 4.21071 25.0391 4.58579 25.4142C4.96086 25.7893 5.46957 26 6 26H25.18L20.58 30.58C20.3935 30.7665 20.2456 30.9879 20.1447 31.2315C20.0438 31.4751 19.9918 31.7363 19.9918 32C19.9918 32.2637 20.0438 32.5249 20.1447 32.7685C20.2456 33.0121 20.3935 33.2335 20.58 33.42C20.7665 33.6065 20.9879 33.7544 21.2315 33.8553C21.4751 33.9562 21.7363 34.0082 22 34.0082C22.2637 34.0082 22.5249 33.9562 22.7685 33.8553C23.0121 33.7544 23.2335 33.6065 23.42 33.42L31.42 25.42Z" fill="#E50914"/>
</svg>
