<svg width="30" height="30" viewBox="0 0 30 30" fill="none" xmlns="http://www.w3.org/2000/svg">
<g clip-path="url(#clip0_4_7)">
<path d="M18.1055 0.685544C17.2676 0.738278 15.9551 0.91406 15.082 1.08984C12.8027 1.53515 11.373 2.21484 10.8516 3.09375L10.6934 3.36914L10.6758 5.10351L10.6582 6.83789L9.15235 6.87304C6.4043 6.9375 4.5 7.19531 2.72461 7.74023C1.46485 8.12695 0.41016 8.79492 0.12305 9.39257C3.28933e-06 9.64453 3.28392e-06 9.65039 3.28392e-06 18.1406C3.28392e-06 27.7852 -0.0527311 26.8418 0.521488 27.3984C0.855472 27.7266 1.6875 28.1894 2.37891 28.4355C2.95313 28.6406 4.10743 28.916 4.96875 29.0566C7.65821 29.4961 11.6836 29.4961 14.3555 29.0625C16.459 28.7168 18.0234 28.1367 18.7441 27.4336C19.3066 26.8828 19.3008 26.9062 19.3242 24.8965L19.3418 23.1621L21.082 23.1269C23.2676 23.0859 24.4336 22.9629 26.1328 22.582C28.0898 22.1484 29.4316 21.4629 29.8359 20.6894L30 20.3789V17.0215C30 13.7168 30 13.6699 29.8828 13.5644C29.7246 13.4238 29.3965 13.4238 29.2383 13.5644C29.1387 13.6523 29.1211 13.7402 29.1211 14.1035C29.1211 14.6191 29.0332 14.8477 28.7461 15.1055C27.6914 16.0312 24.5332 16.7051 20.8477 16.7988L19.3359 16.834V14.5781V12.3223L20.9355 12.2871C24.3867 12.2168 27.0117 11.7363 28.6289 10.875L29.1211 10.6113V11.3437C29.1211 11.9941 29.1328 12.082 29.2383 12.1875C29.3965 12.3457 29.7246 12.3457 29.8828 12.1875C30 12.0703 30 11.9941 30 7.71679V3.36914L29.8242 3.07031C29.2207 2.01562 27.1289 1.21289 23.9473 0.82031C23.4258 0.755857 22.5879 0.685544 22.084 0.662107C21.1816 0.62695 21.1699 0.62695 21.0469 0.761716C20.7832 1.04883 20.9473 1.48828 21.3398 1.54687C21.4453 1.56445 21.8613 1.59375 22.2656 1.61133C25.7344 1.77539 29.0625 2.83008 29.0625 3.76758C29.0625 4.13086 28.3711 4.61133 27.3398 4.97461C25.5234 5.61328 23.1973 5.92968 20.3613 5.92382C17.5898 5.92382 15.4102 5.64258 13.623 5.05664C12.3809 4.65234 11.5371 4.07812 11.6309 3.70312C11.8125 2.95312 13.8984 2.14453 16.5586 1.78711C16.9395 1.73437 17.7656 1.6582 18.3926 1.61718C19.4063 1.54687 19.5352 1.52343 19.6465 1.41211C19.8047 1.25976 19.8105 0.931638 19.6582 0.761716C19.5645 0.656247 19.4883 0.644528 18.9609 0.656247C18.6328 0.662107 18.252 0.673825 18.1055 0.685544ZM11.9355 5.3789C13.3359 6.19336 15.9258 6.7207 19.1016 6.84961C22.9395 6.99609 26.4902 6.49218 28.4766 5.51953C28.7813 5.36718 29.0566 5.23828 29.0801 5.22656C29.1035 5.21484 29.1211 6.1289 29.1094 7.25976L29.0918 9.31054L28.8281 9.58007C28.1133 10.3066 26.0273 10.9336 23.3496 11.2266C22.9336 11.2734 21.8555 11.3262 20.9648 11.3496L19.3359 11.3848V10.5586C19.3359 9.74414 19.3359 9.73242 19.1426 9.36914C18.6563 8.41992 17.1504 7.73437 14.5313 7.26562C13.8633 7.14257 12.7793 7.00195 12.0586 6.9375L11.6016 6.90234V6.05859C11.6016 5.5957 11.6133 5.21484 11.6309 5.21484C11.6426 5.21484 11.7832 5.29101 11.9355 5.3789ZM12.5684 7.93359C15.1934 8.2207 16.9863 8.71875 17.9473 9.41601C18.2578 9.64453 18.4219 9.9082 18.3691 10.084C18.0879 10.9687 15.4395 11.8125 12.0117 12.1055C10.6289 12.2227 7.81641 12.1934 6.5625 12.0469C3.94922 11.7422 1.85743 11.1152 1.16016 10.4121C0.867191 10.125 0.861331 9.92578 1.14844 9.60937C1.85157 8.83593 4.27735 8.13281 7.06055 7.91015C7.48242 7.88086 7.93946 7.83984 8.08594 7.82812C8.6543 7.78125 11.8477 7.85742 12.5684 7.93359ZM1.49414 11.7773C1.59961 11.8477 2.47852 12.1816 2.8711 12.2988C5.53125 13.1074 9.86133 13.3477 13.4707 12.8848C15.4805 12.6328 17.373 12.0996 18.1816 11.5664L18.3984 11.4258V13.4707C18.3984 15.498 18.3984 15.5156 18.2695 15.6797C18.0879 15.9141 17.9473 16.0254 17.6074 16.2246C16.5996 16.8164 14.5078 17.3086 12.1289 17.5254C11.1094 17.6191 8.16211 17.6191 7.17774 17.5254C3.78516 17.209 1.32422 16.4238 0.960941 15.5449C0.896488 15.3984 0.878909 14.9062 0.878909 13.3887V11.4199L1.16016 11.5781C1.3125 11.666 1.46485 11.7539 1.49414 11.7773ZM29.1211 18.0234C29.1211 20.2266 29.1152 20.2441 28.7109 20.5664C28.0664 21.0762 26.5254 21.5977 24.7852 21.8906C23.6074 22.084 22.7051 22.1602 21.0527 22.1894L19.3359 22.2246V19.998V17.7715L20.877 17.7305C23.3027 17.6719 25.2305 17.4258 26.8359 16.9863C27.4336 16.8223 28.4473 16.4238 28.7695 16.2246C28.916 16.1367 29.0508 16.0605 29.0801 16.0605C29.1035 16.0547 29.1211 16.9394 29.1211 18.0234ZM1.21289 17.0449C2.90039 18.082 7.10157 18.7148 10.998 18.5273C14.0977 18.375 16.3242 17.9297 17.8477 17.168L18.3984 16.8926V18.8906C18.3984 21.1523 18.4102 21.0879 17.918 21.4512C15.8789 22.957 9.25196 23.5137 4.48242 22.582C3.30469 22.3535 2.0918 21.9258 1.52344 21.5449C0.867191 21.1055 0.908206 21.2812 0.890628 18.9199C0.884769 17.7949 0.890628 16.875 0.902347 16.875C0.919925 16.875 1.06055 16.9512 1.21289 17.0449ZM1.43555 22.5996C2.50782 23.1445 4.27149 23.5723 6.45117 23.8301C7.59961 23.9648 11.5723 23.9824 12.6855 23.8594C15.3105 23.5605 16.6582 23.2031 18.3574 22.3359C18.3809 22.3242 18.3984 23.2207 18.3984 24.3281C18.3984 26.6016 18.4102 26.543 17.918 26.8828C16.8223 27.6328 14.7773 28.1484 11.9648 28.3887C7.06055 28.7988 1.56446 27.7969 0.960941 26.3848C0.896488 26.2383 0.878909 25.7695 0.878909 24.2285V22.2598L1.04297 22.3711C1.13086 22.4355 1.30664 22.5352 1.43555 22.5996Z" fill="#E7400B"/>
</g>
<defs>
<clipPath id="clip0_4_7">
<rect width="30" height="30" fill="white"/>
</clipPath>
</defs>
</svg>
