<svg width="30" height="30" viewBox="0 0 30 30" fill="none" xmlns="http://www.w3.org/2000/svg">
<g clip-path="url(#clip0_4_20)">
<path d="M14.6484 0.128851C14.5488 0.240179 14.5312 0.333929 14.5312 0.849554C14.5312 1.39448 14.543 1.45307 14.666 1.57026C14.8652 1.75776 15.1875 1.74604 15.3457 1.54682C15.4512 1.41205 15.4688 1.30659 15.4688 0.849554C15.4688 0.392523 15.4512 0.287054 15.3457 0.152288C15.1875 -0.0469304 14.8301 -0.0645085 14.6484 0.128851Z" fill="#E7400B"/>
<path d="M13.6934 2.8418C9.60352 3.39844 6.30469 6.70898 5.74219 10.8105C5.66016 11.4199 5.66016 12.8672 5.74219 13.4238C6.0293 15.3047 6.77344 16.8691 8.11523 18.4277C8.74219 19.1484 9.14062 19.7812 9.375 20.4375C9.66797 21.2461 9.73242 21.668 9.7793 22.9688C9.81445 24.1172 9.82617 24.1875 9.97266 24.4922C10.1895 24.9316 10.623 25.3418 11.0508 25.5176L11.3965 25.6582L11.4258 27.1406C11.4551 28.5645 11.4609 28.6348 11.5957 28.916C11.7832 29.2852 12.1406 29.6426 12.5098 29.8301L12.8027 29.9707H15C17.1914 29.9707 17.1973 29.9707 17.4727 29.8301C17.8418 29.6484 18.1816 29.3145 18.3809 28.9336L18.5449 28.623L18.5742 27.1406L18.6035 25.6523L18.8203 25.582C19.3828 25.3828 19.7461 25.0723 20.0273 24.5273C20.1738 24.2402 20.1797 24.1758 20.2207 22.998C20.2676 21.6562 20.3496 21.1113 20.6309 20.3906C20.8828 19.7285 21.2578 19.1367 21.8496 18.4629C23.2266 16.8867 24 15.2578 24.2578 13.3887C24.3398 12.7852 24.3398 11.3262 24.2578 10.7754C24.0645 9.49805 23.5078 7.95703 22.9629 7.20703C22.8105 7.00195 22.7637 6.97266 22.5586 6.97266C22.2715 6.97266 22.0898 7.13086 22.0898 7.38281C22.0898 7.48242 22.207 7.77539 22.3535 8.04492C23.0801 9.38672 23.3848 10.5879 23.3848 12.1113C23.3848 13.084 23.2676 13.8164 22.9629 14.7246C22.5703 15.9141 22.0898 16.7344 21.1523 17.8066C20.5723 18.4746 20.2852 18.8906 19.9863 19.4941C19.4941 20.4902 19.3418 21.2051 19.3008 22.7344C19.2715 23.7188 19.248 23.9121 19.1484 24.1348C18.9785 24.4922 18.5977 24.7266 18.1816 24.7266H17.8711V20.7715C17.8711 16.4766 17.8828 16.6172 17.5488 16.3594C17.4082 16.248 17.4023 16.2188 17.4023 15.5449C17.4023 14.4199 17.666 13.6289 18.3457 12.7383C18.7617 12.1875 18.7852 11.9824 18.4863 11.4434C17.543 9.75586 15.8613 7.33594 15.4453 7.08398C15.2227 6.94922 14.8242 6.9375 14.584 7.06055C14.0039 7.36523 11.3086 11.4316 11.3086 12.0059C11.3086 12.2461 11.3789 12.3809 11.7246 12.7676C12.0762 13.1602 12.3984 13.8047 12.5098 14.332C12.5566 14.5664 12.5977 15.0586 12.5977 15.4922C12.5977 16.2246 12.5918 16.248 12.4512 16.3594C12.123 16.6172 12.1289 16.5293 12.1289 20.1797V23.5488L12.2812 23.666C12.4746 23.8184 12.7207 23.8242 12.8965 23.6777L13.0371 23.5664L13.0547 21.334L13.0723 19.1016H15H16.9336V21.9141V24.7324L14.1855 24.7148C11.0918 24.6973 11.332 24.7324 10.9336 24.2344L10.752 24.0117L10.7109 22.834C10.6641 21.3105 10.5234 20.6133 10.0488 19.5879C9.7793 19.002 9.41602 18.4629 8.82422 17.7832C7.65234 16.4355 6.97266 15.0469 6.70898 13.4648C6.58594 12.7266 6.5918 11.4668 6.71484 10.7285C7.16016 8.07422 8.86523 5.77734 11.291 4.57617C12.3926 4.03125 13.4004 3.76758 14.6191 3.70898C16.9336 3.60938 19.0547 4.40625 20.8418 6.05859C21.1934 6.38086 21.293 6.44531 21.4629 6.44531C21.7148 6.44531 21.9141 6.22852 21.9141 5.95312C21.9141 5.80078 21.8379 5.69531 21.4395 5.32031C19.3887 3.375 16.5293 2.45508 13.6934 2.8418ZM14.6719 12.5332C14.8242 12.7031 15.1758 12.7031 15.3281 12.5332C15.4336 12.416 15.4395 12.2695 15.4688 10.5L15.498 8.58984L15.9141 9.16992C16.4531 9.91992 17.0098 10.7871 17.3965 11.4668L17.7012 12L17.4961 12.2754C17.168 12.6973 16.8984 13.2246 16.7051 13.7988L16.5293 14.3262L15.0117 14.3438L13.4883 14.3555L13.3887 13.9453C13.2539 13.4062 12.9785 12.8379 12.6094 12.3457L12.3105 11.9531L12.7266 11.2324C13.1836 10.4414 13.6699 9.69727 14.1738 9.01758L14.502 8.56641L14.5312 10.4883C14.5605 12.2695 14.5664 12.416 14.6719 12.5332ZM16.4648 15.7031V16.1133H15H13.5352V15.7031V15.293H15H16.4648V15.7031ZM16.9336 17.6074V18.1641H15H13.0664V17.6074V17.0508H15H16.9336V17.6074ZM17.6367 27.0293C17.6074 28.3652 17.6016 28.4004 17.4609 28.6113C17.3848 28.7285 17.209 28.8809 17.0801 28.957C16.8516 29.0918 16.8223 29.0918 15 29.0918H13.1543L12.8906 28.9453C12.5508 28.752 12.3633 28.4355 12.3633 28.0195V27.7148H14.4668C16.5 27.7148 16.5703 27.709 16.7227 27.5918C16.8398 27.498 16.875 27.4219 16.875 27.2461C16.875 27.0703 16.8398 26.9941 16.7227 26.9004C16.5703 26.7832 16.5 26.7773 14.4668 26.7773H12.3633V26.2207V25.6641H15.0176H17.666L17.6367 27.0293Z" fill="#E7400B"/>
<path d="M6.53906 3.58009C6.42188 3.66798 6.38672 3.75001 6.38672 3.91408C6.38672 4.09572 6.44531 4.18947 6.75586 4.52931C7.04297 4.84572 7.16016 4.93361 7.33594 4.96291C7.51172 4.98634 7.57617 4.96876 7.69922 4.84572C7.96875 4.57619 7.91602 4.37111 7.45312 3.87892C7.01367 3.41017 6.83203 3.35158 6.53906 3.58009Z" fill="#E7400B"/>
<path d="M22.5469 3.87892C22.084 4.37111 22.0313 4.57619 22.3008 4.84572C22.4238 4.96876 22.4883 4.98634 22.6641 4.96291C22.8398 4.93361 22.957 4.84572 23.2441 4.52931C23.5547 4.18947 23.6133 4.09572 23.6133 3.91408C23.6133 3.65626 23.4023 3.45705 23.1211 3.45705C22.9746 3.45705 22.875 3.53322 22.5469 3.87892Z" fill="#E7400B"/>
<path d="M3.13477 12.041C2.95899 12.211 2.94727 12.4746 3.09961 12.6621C3.19922 12.791 3.26367 12.8028 3.79102 12.8203C4.30664 12.8379 4.38281 12.8321 4.5293 12.7149C4.72852 12.5567 4.75196 12.1934 4.57031 12.0117C4.47071 11.9121 4.37696 11.8946 3.86719 11.8946C3.31641 11.8946 3.26367 11.9063 3.13477 12.041Z" fill="#E7400B"/>
<path d="M25.4297 12.0117C25.248 12.1934 25.2715 12.5567 25.4707 12.7149C25.6172 12.8321 25.6934 12.8379 26.209 12.8203C26.7363 12.8028 26.8008 12.791 26.9004 12.6621C27.0527 12.4746 27.041 12.211 26.8652 12.041C26.7363 11.9063 26.6836 11.8946 26.1328 11.8946C25.623 11.8946 25.5293 11.9121 25.4297 12.0117Z" fill="#E7400B"/>
<path d="M6.78516 20.1445C6.43945 20.4902 6.38672 20.5723 6.38672 20.7539C6.38672 21.0527 6.55078 21.2344 6.82617 21.2344C7.01953 21.2344 7.08984 21.1875 7.44727 20.8184C7.78711 20.4668 7.85156 20.373 7.85156 20.2031C7.85156 19.9395 7.65234 19.7461 7.38281 19.7461C7.21875 19.7461 7.125 19.8105 6.78516 20.1445Z" fill="#E7400B"/>
<path d="M22.2773 19.8809C22.0371 20.1387 22.0957 20.3555 22.5527 20.8184C22.9102 21.1875 22.9805 21.2344 23.1738 21.2344C23.4492 21.2344 23.6133 21.0527 23.6133 20.7539C23.6133 20.5723 23.5606 20.4902 23.2148 20.1445C22.8691 19.8047 22.7813 19.7461 22.6055 19.7461C22.4707 19.7461 22.3594 19.793 22.2773 19.8809Z" fill="#E7400B"/>
</g>
<defs>
<clipPath id="clip0_4_20">
<rect width="30" height="30" fill="white"/>
</clipPath>
</defs>
</svg>
