<svg width="51" height="50" viewBox="0 0 51 50" fill="none" xmlns="http://www.w3.org/2000/svg">
<g clip-path="url(#clip0_80_1778)">
<path d="M15.625 28.125H14.0625C10.6104 28.125 7.8125 30.9277 7.8125 34.3867V40.6133C7.8125 44.0713 10.6104 46.875 14.0625 46.875H15.625C17.3506 46.875 18.75 45.4727 18.75 43.7441V31.2559C18.75 29.5264 17.3506 28.125 15.625 28.125ZM35.9375 28.125H34.375C32.6494 28.125 31.25 29.5264 31.25 31.2559V43.7441C31.25 45.4727 32.6494 46.875 34.375 46.875H35.9375C39.3896 46.875 42.1875 44.0713 42.1875 40.6133V34.3867C42.1875 30.9287 39.3896 28.125 35.9375 28.125ZM25 3.125C11.0264 3.125 0.446289 14.7588 0 28.125V39.0625C0 39.9258 0.699219 40.625 1.5625 40.625H3.125C3.98828 40.625 4.6875 39.9258 4.6875 39.0625V28.125C4.6875 16.9268 13.8018 7.83203 25 7.83008C36.1982 7.83203 45.3125 16.9268 45.3125 28.125V39.0625C45.3125 39.9258 46.0117 40.625 46.875 40.625H48.4375C49.3008 40.625 50 39.9258 50 39.0625V28.125C49.5537 14.7588 38.9736 3.125 25 3.125Z" fill="#032E5B"/>
</g>
<defs>
<clipPath id="clip0_80_1778">
<rect width="50" height="50" fill="white" transform="translate(0.5)"/>
</clipPath>
</defs>
</svg>
