<svg width="111" height="110" viewBox="0 0 111 110" fill="none" xmlns="http://www.w3.org/2000/svg">
<path d="M105.464 51.0906C106.813 39.2414 102.807 27.3438 94.3984 18.8914C90.2602 14.74 84.6062 10.8174 77.0932 8.92541C56.0238 3.61901 42.3662 8.48541 35.5396 21.3906C28.713 34.2958 9.12422 32.076 6.00022 54.34C2.87622 76.604 18.0276 101.086 43.7016 102.421C69.3756 103.756 66.0712 90.981 80.116 85.4942C90.8586 81.301 103.46 68.7698 105.464 51.0906Z" fill="#00425F"/>
<path opacity="0.7" d="M105.464 51.0906C106.813 39.2414 102.807 27.3438 94.3984 18.8914C90.2602 14.74 84.6062 10.8174 77.0932 8.92541C56.0238 3.61901 42.3662 8.48541 35.5396 21.3906C28.713 34.2958 9.12422 32.076 6.00022 54.34C2.87622 76.604 18.0276 101.086 43.7016 102.421C69.3756 103.756 66.0712 90.981 80.116 85.4942C90.8586 81.301 103.46 68.7698 105.464 51.0906Z" fill="white"/>
<path d="M2.18945 101.081H106.861" stroke="#002366" stroke-width="0.22" stroke-linecap="round" stroke-linejoin="round"/>
<path d="M19.2001 46.8908C18.2937 44.9108 17.0771 44.4708 17.0771 44.4708" stroke="#002366" stroke-width="0.22" stroke-linecap="round" stroke-linejoin="round"/>
<path d="M20.8256 44.9791L20.3262 46.8513" stroke="#002366" stroke-width="0.22" stroke-linecap="round" stroke-linejoin="round"/>
<path d="M21.3564 46.8799L23.8006 42.1719" stroke="#002366" stroke-width="0.22" stroke-linecap="round" stroke-linejoin="round"/>
<path d="M19.752 39.7431L20.2404 46.8293" stroke="#002366" stroke-width="0.22" stroke-linecap="round" stroke-linejoin="round"/>
<path d="M21.5103 49.4495V48.4309L22.9051 46.8909H17.3237L18.7185 48.4309V49.4495C18.7188 50.3115 18.5413 51.1643 18.1972 51.9546C17.8531 52.745 17.3498 53.4559 16.7188 54.0431V54.0431V60.2801H23.5101V54.0431C22.8794 53.4557 22.3763 52.7447 22.0322 51.9544C21.6882 51.1641 21.5105 50.3114 21.5103 49.4495V49.4495Z" stroke="#002366" stroke-width="0.22" stroke-linecap="round" stroke-linejoin="round"/>
<path d="M18.2141 44.385C19.9411 42.8296 18.7223 41.6086 17.1647 43.3356C17.1532 43.348 17.1392 43.3579 17.1237 43.3647C17.1082 43.3714 17.0914 43.3749 17.0745 43.3749C17.0576 43.3749 17.0408 43.3714 17.0253 43.3647C17.0098 43.3579 16.9958 43.348 16.9843 43.3356C15.4289 41.6086 14.2079 42.8296 15.9349 44.385C15.9479 44.3962 15.9583 44.41 15.9655 44.4256C15.9727 44.4412 15.9764 44.4581 15.9764 44.4752C15.9764 44.4924 15.9727 44.5093 15.9655 44.5249C15.9583 44.5405 15.9479 44.5543 15.9349 44.5655C14.2079 46.1209 15.4289 47.3418 16.9843 45.6148C16.9954 45.6018 17.0093 45.5914 17.0248 45.5842C17.0404 45.5771 17.0574 45.5734 17.0745 45.5734C17.0916 45.5734 17.1086 45.5771 17.1241 45.5842C17.1397 45.5914 17.1535 45.6018 17.1647 45.6148C18.7223 47.3418 19.9411 46.1209 18.2141 44.5655C18.2017 44.5539 18.1918 44.54 18.1851 44.5244C18.1783 44.5089 18.1748 44.4922 18.1748 44.4752C18.1748 44.4583 18.1783 44.4416 18.1851 44.4261C18.1918 44.4105 18.2017 44.3966 18.2141 44.385V44.385Z" fill="#002366"/>
<path d="M17.6357 44.4753C17.6357 44.3644 17.6028 44.2559 17.5411 44.1636C17.4795 44.0714 17.3919 43.9995 17.2894 43.957C17.1868 43.9145 17.0741 43.9034 16.9652 43.9251C16.8564 43.9467 16.7564 44.0002 16.678 44.0786C16.5995 44.1571 16.5461 44.257 16.5245 44.3659C16.5028 44.4747 16.5139 44.5875 16.5564 44.69C16.5988 44.7925 16.6707 44.8801 16.763 44.9418C16.8553 45.0034 16.9637 45.0363 17.0747 45.0363C17.2235 45.0363 17.3662 44.9772 17.4714 44.872C17.5766 44.7668 17.6357 44.6241 17.6357 44.4753V44.4753Z" fill="white" stroke="#002366" stroke-width="0.22" stroke-linecap="round" stroke-linejoin="round"/>
<path d="M20.7864 40.2315C23.059 39.7387 22.6058 38.0733 20.397 38.7993C20.3809 38.8046 20.3637 38.8064 20.3468 38.8047C20.3299 38.8029 20.3135 38.7976 20.2988 38.7891C20.284 38.7806 20.2712 38.7691 20.2613 38.7553C20.2513 38.7415 20.2443 38.7258 20.2408 38.7091C19.748 36.4387 18.0826 36.8897 18.8086 39.0985C18.8139 39.1147 18.8158 39.1318 18.814 39.1487C18.8123 39.1656 18.807 39.182 18.7985 39.1968C18.7899 39.2115 18.7784 39.2243 18.7646 39.2343C18.7508 39.2443 18.7351 39.2512 18.7184 39.2547C16.448 39.7475 16.899 41.4129 19.1078 40.6869C19.1242 40.6816 19.1414 40.6797 19.1585 40.6815C19.1755 40.6832 19.1921 40.6885 19.207 40.697C19.2219 40.7055 19.2349 40.717 19.2451 40.7308C19.2553 40.7446 19.2625 40.7604 19.2662 40.7771C19.7568 43.0475 21.4222 42.5965 20.6962 40.3877C20.6909 40.3715 20.6891 40.3544 20.6908 40.3375C20.6926 40.3205 20.6979 40.3042 20.7064 40.2894C20.7149 40.2747 20.7264 40.2619 20.7402 40.2519C20.754 40.2419 20.7698 40.235 20.7864 40.2315V40.2315Z" fill="#002366"/>
<path d="M20.2381 40.0225C20.2937 39.9263 20.3195 39.8157 20.3122 39.7049C20.3049 39.594 20.2648 39.4878 20.1971 39.3997C20.1293 39.3117 20.037 39.2457 19.9317 39.2102C19.8264 39.1747 19.713 39.1713 19.6057 39.2003C19.4985 39.2294 19.4023 39.2896 19.3293 39.3734C19.2564 39.4572 19.2099 39.5607 19.1959 39.6709C19.1819 39.7812 19.2009 39.8931 19.2505 39.9925C19.3002 40.0918 19.3782 40.1743 19.4747 40.2293C19.6035 40.3026 19.7561 40.322 19.8991 40.2833C20.0421 40.2445 20.164 40.1508 20.2381 40.0225V40.0225Z" fill="white" stroke="#002366" stroke-width="0.22" stroke-linecap="round" stroke-linejoin="round"/>
<path d="M24.4803 43.0893C26.7133 43.7317 27.1027 42.0509 24.8147 41.6439C24.7978 41.6414 24.7816 41.6354 24.7672 41.6261C24.7529 41.6169 24.7407 41.6046 24.7315 41.5902C24.7223 41.5758 24.7163 41.5595 24.714 41.5426C24.7116 41.5257 24.713 41.5085 24.7179 41.4921C25.3581 39.2569 23.6795 38.8675 23.2725 41.1577C23.2695 41.1745 23.263 41.1905 23.2534 41.2046C23.2438 41.2187 23.2313 41.2306 23.2167 41.2395C23.2022 41.2485 23.1859 41.2542 23.169 41.2564C23.152 41.2586 23.1348 41.2572 23.1185 41.2523C20.8855 40.6121 20.4961 42.2929 22.7841 42.6977C22.8011 42.7004 22.8173 42.7067 22.8317 42.7162C22.846 42.7257 22.8582 42.7382 22.8674 42.7528C22.8765 42.7673 22.8825 42.7837 22.8848 42.8008C22.8872 42.8178 22.8858 42.8352 22.8809 42.8517C22.2407 45.0869 23.9215 45.4741 24.3263 43.1861C24.3294 43.1693 24.3359 43.1532 24.3455 43.1391C24.355 43.1249 24.3675 43.1129 24.382 43.1037C24.3965 43.0946 24.4127 43.0886 24.4296 43.0862C24.4465 43.0837 24.4638 43.0847 24.4803 43.0893V43.0893Z" fill="#002366"/>
<path d="M24.0971 42.6471C24.1913 42.5884 24.2659 42.503 24.3116 42.4018C24.3573 42.3007 24.3719 42.1882 24.3536 42.0787C24.3353 41.9692 24.285 41.8676 24.2089 41.7867C24.1329 41.7059 24.0346 41.6494 23.9264 41.6244C23.8182 41.5995 23.7051 41.6071 23.6013 41.6465C23.4975 41.6859 23.4077 41.7552 23.3433 41.8456C23.2789 41.936 23.2428 42.0435 23.2395 42.1544C23.2362 42.2654 23.2659 42.3748 23.3249 42.4689C23.4041 42.5943 23.5297 42.6834 23.6743 42.7168C23.8189 42.7502 23.9708 42.7251 24.0971 42.6471Z" fill="white" stroke="#002366" stroke-width="0.22" stroke-linecap="round" stroke-linejoin="round"/>
<path d="M21.5061 45.8987C23.7413 46.5389 24.1285 44.8581 21.8405 44.4533C21.8237 44.4502 21.8077 44.4437 21.7935 44.4341C21.7793 44.4245 21.7673 44.4121 21.7582 44.3976C21.7491 44.3831 21.7431 44.3669 21.7406 44.3499C21.7381 44.333 21.7392 44.3157 21.7437 44.2993C22.3861 42.0641 20.7053 41.6769 20.2983 43.9648C20.2956 43.9816 20.2893 43.9975 20.2799 44.0116C20.2706 44.0257 20.2583 44.0376 20.2439 44.0466C20.2295 44.0556 20.2134 44.0613 20.1966 44.0636C20.1798 44.0658 20.1627 44.0644 20.1465 44.0595C17.9113 43.4193 17.5219 45.1 19.8121 45.5048C19.8288 45.5082 19.8445 45.5149 19.8585 45.5246C19.8724 45.5343 19.8842 45.5467 19.893 45.5612C19.9019 45.5757 19.9077 45.5918 19.9101 45.6086C19.9124 45.6254 19.9113 45.6425 19.9067 45.6588C19.2665 47.894 20.9473 48.2812 21.3521 45.9932C21.3551 45.9764 21.3616 45.9605 21.3712 45.9464C21.3809 45.9323 21.3933 45.9203 21.4079 45.9114C21.4224 45.9025 21.4387 45.8967 21.4556 45.8945C21.4726 45.8923 21.4898 45.8937 21.5061 45.8987Z" fill="#002366"/>
<path d="M21.1234 45.4542C21.2176 45.3955 21.2923 45.3101 21.338 45.209C21.3836 45.1078 21.3982 44.9953 21.38 44.8858C21.3617 44.7763 21.3114 44.6747 21.2353 44.5939C21.1593 44.513 21.0609 44.4565 20.9528 44.4315C20.8446 44.4066 20.7315 44.4143 20.6277 44.4536C20.5239 44.493 20.4341 44.5623 20.3697 44.6527C20.3053 44.7431 20.2692 44.8506 20.2659 44.9616C20.2626 45.0725 20.2923 45.182 20.3512 45.276C20.4301 45.4019 20.5557 45.4914 20.7005 45.5248C20.8452 45.5582 20.9974 45.5328 21.1234 45.4542Z" fill="white" stroke="#002366" stroke-width="0.22" stroke-linecap="round" stroke-linejoin="round"/>
<path d="M5.97852 62.1853V101.046H7.17972V74.8023H31.8615V101.046H33.0649V62.1853H5.97852Z" stroke="#002366" stroke-width="0.22" stroke-linecap="round" stroke-linejoin="round"/>
<path d="M33.9578 60.3065H5.08496V62.1853H33.9578V60.3065Z" stroke="#002366" stroke-width="0.22" stroke-linecap="round" stroke-linejoin="round"/>
<path d="M31.5199 64.5327H7.67188V72.8619H31.5199V64.5327Z" stroke="#002366" stroke-width="0.22" stroke-linecap="round" stroke-linejoin="round"/>
<path d="M23.3607 67.7271H15.8301V69.6675H23.3607V67.7271Z" stroke="#002366" stroke-width="0.22" stroke-linecap="round" stroke-linejoin="round"/>
<path d="M30.5564 5.9928H10.4902V29.59H30.5564V5.9928Z" stroke="black" stroke-width="0.22" stroke-linecap="round" stroke-linejoin="round"/>
<path d="M29.7076 7.40967H11.3398V28.1755H29.7076V7.40967Z" stroke="black" stroke-width="0.22" stroke-linecap="round" stroke-linejoin="round"/>
<path d="M25.7846 11.8427H15.2598V23.7425H25.7846V11.8427Z" stroke="black" stroke-width="0.22" stroke-linecap="round" stroke-linejoin="round"/>
<path d="M51.8506 42.7636L55.9228 44.3278" stroke="#002366" stroke-width="0.22" stroke-linecap="round" stroke-linejoin="round"/>
<path d="M51.8506 56.8569L55.9228 55.2905" stroke="#002366" stroke-width="0.22" stroke-linecap="round" stroke-linejoin="round"/>
<path d="M55.9229 50.1227H52.9463" stroke="#002366" stroke-width="0.22" stroke-linecap="round" stroke-linejoin="round"/>
<path d="M103.999 42.7637L99.9268 44.3279" stroke="#002366" stroke-width="0.22" stroke-linecap="round" stroke-linejoin="round"/>
<path d="M103.999 56.8569L99.9268 55.2905" stroke="#002366" stroke-width="0.22" stroke-linecap="round" stroke-linejoin="round"/>
<path d="M99.9268 50.1227H102.901" stroke="#002366" stroke-width="0.22" stroke-linecap="round" stroke-linejoin="round"/>
<path d="M91.9602 7.83862H65.0212C61.8986 7.83862 59.3672 10.37 59.3672 13.4926V83.3756C59.3672 86.4982 61.8986 89.0296 65.0212 89.0296H91.9602C95.0828 89.0296 97.6142 86.4982 97.6142 83.3756V13.4926C97.6142 10.37 95.0828 7.83862 91.9602 7.83862Z" fill="#00425F" stroke="#002366" stroke-width="0.22" stroke-linecap="round" stroke-linejoin="round"/>
<path d="M96.281 13.4883V83.3801C96.281 83.9561 96.1676 84.5264 95.9471 85.0585C95.7266 85.5906 95.4034 86.0741 94.996 86.4813C94.5887 86.8884 94.105 87.2114 93.5728 87.4316C93.0406 87.6518 92.4702 87.765 91.8942 87.7647H65.085C64.8856 87.7653 64.6863 87.7513 64.4888 87.7229C63.4387 87.5798 62.476 87.0609 61.779 86.2625C61.0821 85.464 60.6981 84.44 60.6982 83.3801V13.4883C60.6982 12.3249 61.1604 11.2091 61.9831 10.3864C62.8058 9.56368 63.9216 9.1015 65.085 9.1015H65.8638C68.2838 9.1015 73.0842 9.1455 73.0908 9.1697C74.138 9.1697 74.7738 9.3501 75.249 9.8297C76.0058 10.5865 76.8902 11.6205 78.0452 11.7415C79.253 11.8669 80.2122 10.8879 80.9976 10.1113C81.8776 9.2313 83.0612 9.1059 84.2536 9.1059H91.8942C93.0569 9.1059 94.1721 9.56748 94.9946 10.3892C95.8172 11.2109 96.2799 12.3256 96.281 13.4883Z" fill="#002366" stroke="#002366" stroke-width="0.22" stroke-linecap="round" stroke-linejoin="round"/>
<path d="M78.2634 10.8285C78.6899 10.8285 79.0356 10.4827 79.0356 10.0563C79.0356 9.62978 78.6899 9.28406 78.2634 9.28406C77.8369 9.28406 77.4912 9.62978 77.4912 10.0563C77.4912 10.4827 77.8369 10.8285 78.2634 10.8285Z" fill="#7D7D7D"/>
<path d="M97.6006 31.1938V21.0892C97.784 21.0892 97.9599 21.1619 98.0898 21.2914C98.2197 21.4209 98.293 21.5966 98.2936 21.78V30.5008C98.2939 30.5919 98.2761 30.6822 98.2414 30.7664C98.2067 30.8506 98.1557 30.9271 98.0913 30.9915C98.0269 31.0559 97.9503 31.107 97.8661 31.1417C97.7819 31.1764 97.6917 31.1941 97.6006 31.1938V31.1938Z" fill="#00425F" stroke="#002366" stroke-width="0.22" stroke-linecap="round" stroke-linejoin="round"/>
<path d="M97.6006 39.9036V34.8612C97.7844 34.8612 97.9606 34.9342 98.0906 35.0642C98.2206 35.1941 98.2936 35.3704 98.2936 35.5542V39.2106C98.2936 39.3944 98.2206 39.5707 98.0906 39.7006C97.9606 39.8306 97.7844 39.9036 97.6006 39.9036V39.9036Z" fill="#00425F" stroke="#002366" stroke-width="0.22" stroke-linecap="round" stroke-linejoin="round"/>
<path d="M59.6797 65.7603C59.6797 65.7603 59.7655 66.2003 59.8491 66.2289C59.9327 66.2575 60.7665 66.2069 60.7885 65.9935C60.8105 65.7801 60.3617 65.6525 60.3617 65.6525L59.6797 65.7603Z" fill="white" stroke="#002366" stroke-width="0.22" stroke-linejoin="round"/>
<path d="M92.6794 12.6633H89.3266C89.3026 12.6633 89.2797 12.6538 89.2628 12.6369C89.2459 12.6199 89.2364 12.597 89.2364 12.5731V10.7361C89.2361 10.724 89.2382 10.7121 89.2426 10.7009C89.247 10.6897 89.2536 10.6795 89.262 10.6709C89.2704 10.6623 89.2804 10.6554 89.2915 10.6507C89.3026 10.6461 89.3145 10.6437 89.3266 10.6437H92.6794C92.7035 10.6443 92.7264 10.6542 92.7433 10.6715C92.7601 10.6888 92.7696 10.7119 92.7696 10.7361V12.5731C92.769 12.5968 92.7593 12.6194 92.7425 12.6362C92.7257 12.653 92.7031 12.6627 92.6794 12.6633V12.6633ZM89.419 12.4829H92.5892V10.8263H89.4168L89.419 12.4829Z" fill="#696969"/>
<path d="M91.9407 10.736H89.3271V12.573H91.9407V10.736Z" fill="#696969"/>
<path d="M91.9386 12.6523H89.3273C89.3062 12.6523 89.2861 12.644 89.2712 12.6291C89.2564 12.6143 89.248 12.5941 89.248 12.5731V10.7361C89.248 10.7149 89.2563 10.6945 89.2711 10.6793C89.2859 10.6641 89.306 10.6553 89.3273 10.6547H91.9386C91.9602 10.6547 91.9809 10.6633 91.9962 10.6786C92.0115 10.6938 92.02 10.7145 92.02 10.7361V12.5731C92.0201 12.5837 92.0179 12.5942 92.0138 12.6039C92.0097 12.6137 92.0037 12.6225 91.9961 12.6299C91.9885 12.6373 91.9795 12.6431 91.9696 12.6469C91.9598 12.6508 91.9492 12.6526 91.9386 12.6523ZM89.4064 12.4917H91.8594V10.8153H89.4064V12.4917Z" fill="#696969"/>
<path d="M93.1439 11.2487H92.6709V12.0583H93.1439V11.2487Z" fill="#696969"/>
<path d="M93.142 12.1375H92.68C92.6694 12.1378 92.6589 12.136 92.649 12.1321C92.6392 12.1283 92.6302 12.1225 92.6226 12.1151C92.615 12.1077 92.609 12.0989 92.6049 12.0892C92.6007 12.0794 92.5986 12.0689 92.5986 12.0583V11.2487C92.5986 11.2381 92.6007 11.2277 92.6049 11.2179C92.609 11.2081 92.615 11.1993 92.6226 11.1919C92.6302 11.1845 92.6392 11.1788 92.649 11.1749C92.6589 11.1711 92.6694 11.1692 92.68 11.1695H93.1508C93.1718 11.1695 93.192 11.1779 93.2068 11.1927C93.2217 11.2076 93.23 11.2277 93.23 11.2487V12.0583C93.2301 12.0695 93.2278 12.0806 93.2233 12.0908C93.2188 12.101 93.2121 12.1102 93.2038 12.1177C93.1955 12.1252 93.1857 12.1308 93.1751 12.1342C93.1644 12.1376 93.1531 12.1388 93.142 12.1375V12.1375ZM92.7504 11.9791H93.0628V11.3191H92.7504V11.9791Z" fill="#696969"/>
<path d="M63.6392 11.3058H63.0254V12.3596H63.6392V11.3058Z" fill="#696969"/>
<path d="M63.6396 12.4542H63.0236C62.9979 12.4542 62.9733 12.4441 62.9551 12.4259C62.937 12.4077 62.9268 12.3831 62.9268 12.3574V11.3058C62.9268 11.28 62.9369 11.2551 62.955 11.2366C62.9731 11.2181 62.9977 11.2074 63.0236 11.2068H63.6396C63.6654 11.2074 63.6901 11.2181 63.7081 11.2366C63.7262 11.2551 63.7364 11.28 63.7364 11.3058V12.3574C63.7364 12.3831 63.7262 12.4077 63.708 12.4259C63.6899 12.4441 63.6652 12.4542 63.6396 12.4542ZM63.1226 12.2606H63.5406V11.4026H63.1226V12.2606Z" fill="#696969"/>
<path d="M64.605 10.9363H63.9912V12.3597H64.605V10.9363Z" fill="#696969"/>
<path d="M64.6051 12.4543H63.9913C63.9657 12.4543 63.941 12.4441 63.9229 12.4259C63.9047 12.4078 63.8945 12.3832 63.8945 12.3575V10.9363C63.8945 10.9104 63.9046 10.8855 63.9227 10.867C63.9408 10.8485 63.9655 10.8379 63.9913 10.8373H64.6051C64.6314 10.8373 64.6566 10.8477 64.6751 10.8663C64.6937 10.8848 64.7041 10.91 64.7041 10.9363V12.3575C64.7041 12.3704 64.7016 12.3831 64.6966 12.395C64.6916 12.4069 64.6842 12.4177 64.675 12.4267C64.6658 12.4357 64.6549 12.4428 64.6429 12.4476C64.6309 12.4523 64.618 12.4546 64.6051 12.4543ZM64.0793 12.2607H64.5193V11.0331H64.0793V12.2607Z" fill="#696969"/>
<path d="M65.5708 10.4984H64.957V12.3574H65.5708V10.4984Z" fill="#696969"/>
<path d="M65.5717 12.4543H64.9601C64.9344 12.4543 64.9098 12.4441 64.8916 12.4259C64.8735 12.4078 64.8633 12.3831 64.8633 12.3575V10.4985C64.8633 10.4728 64.8735 10.4482 64.8916 10.43C64.9098 10.4119 64.9344 10.4017 64.9601 10.4017H65.5739C65.5996 10.4017 65.6242 10.4119 65.6423 10.43C65.6605 10.4482 65.6707 10.4728 65.6707 10.4985V12.3575C65.671 12.3705 65.6686 12.3834 65.6637 12.3954C65.6588 12.4074 65.6515 12.4183 65.6422 12.4274C65.633 12.4365 65.6219 12.4436 65.6098 12.4482C65.5976 12.4528 65.5847 12.4549 65.5717 12.4543V12.4543ZM65.0547 12.2607H65.4749V10.5953H65.0547V12.2607Z" fill="#696969"/>
<path d="M78.8285 77.8669C80.9402 77.8669 82.6521 76.155 82.6521 74.0433C82.6521 71.9316 80.9402 70.2197 78.8285 70.2197C76.7168 70.2197 75.0049 71.9316 75.0049 74.0433C75.0049 76.155 76.7168 77.8669 78.8285 77.8669Z" fill="#00425F" stroke="#002366" stroke-width="0.22" stroke-linecap="round" stroke-linejoin="round"/>
<path d="M81.3631 73.5219C81.0793 73.3019 80.4303 72.9851 79.2137 72.9455H78.3095C77.0929 72.9851 76.4439 73.3085 76.1601 73.5219C76.0124 73.62 75.8951 73.7575 75.8216 73.9189C75.7481 74.0803 75.7213 74.2591 75.7443 74.4349C75.8303 74.698 75.9817 74.935 76.1843 75.1235C76.2437 75.1851 76.3053 75.1961 76.4461 75.1235C76.5869 75.0509 77.5461 74.5647 77.6033 74.4635C77.6605 74.3623 77.5813 74.0235 77.5813 74.0235C77.636 73.9798 77.7052 73.9585 77.7749 73.9641L78.7539 73.9355L79.7351 73.9641C79.8042 73.9584 79.8728 73.9797 79.9265 74.0235C79.9265 74.0235 79.8451 74.3579 79.9067 74.4635C79.9683 74.5691 80.9209 75.0619 81.0617 75.1235C81.2025 75.1851 81.2663 75.1741 81.3257 75.1235C81.5284 74.935 81.6798 74.698 81.7657 74.4349C81.7901 74.2603 81.7654 74.0824 81.6942 73.9212C81.6231 73.7599 81.5085 73.6216 81.3631 73.5219Z" fill="white"/>
<path d="M78.8148 48.3297C80.9265 48.3297 82.6384 46.6178 82.6384 44.5061C82.6384 42.3944 80.9265 40.6825 78.8148 40.6825C76.7031 40.6825 74.9912 42.3944 74.9912 44.5061C74.9912 46.6178 76.7031 48.3297 78.8148 48.3297Z" fill="#696969"/>
<path d="M77.5441 43.7581C77.8333 43.7581 78.0677 43.5237 78.0677 43.2345C78.0677 42.9453 77.8333 42.7109 77.5441 42.7109C77.2549 42.7109 77.0205 42.9453 77.0205 43.2345C77.0205 43.5237 77.2549 43.7581 77.5441 43.7581Z" fill="white"/>
<path d="M78.8156 43.7581C79.1048 43.7581 79.3392 43.5237 79.3392 43.2345C79.3392 42.9453 79.1048 42.7109 78.8156 42.7109C78.5264 42.7109 78.292 42.9453 78.292 43.2345C78.292 43.5237 78.5264 43.7581 78.8156 43.7581Z" fill="white"/>
<path d="M80.089 43.7581C80.3782 43.7581 80.6126 43.5237 80.6126 43.2345C80.6126 42.9453 80.3782 42.7109 80.089 42.7109C79.7998 42.7109 79.5654 42.9453 79.5654 43.2345C79.5654 43.5237 79.7998 43.7581 80.089 43.7581Z" fill="white"/>
<path d="M78.0677 44.506C78.0677 44.4025 78.037 44.3012 77.9795 44.2151C77.9219 44.129 77.8402 44.0619 77.7445 44.0223C77.6488 43.9826 77.5435 43.9723 77.442 43.9925C77.3404 44.0127 77.2471 44.0626 77.1739 44.1358C77.1006 44.209 77.0508 44.3023 77.0306 44.4039C77.0104 44.5054 77.0207 44.6107 77.0604 44.7064C77.1 44.8021 77.1671 44.8838 77.2532 44.9414C77.3393 44.9989 77.4406 45.0296 77.5441 45.0296C77.683 45.0296 77.8162 44.9745 77.9143 44.8763C78.0125 44.7781 78.0677 44.6449 78.0677 44.506V44.506Z" fill="white"/>
<path d="M79.3392 44.506C79.3392 44.4025 79.3085 44.3012 79.251 44.2151C79.1934 44.129 79.1116 44.0619 79.016 44.0223C78.9203 43.9826 78.815 43.9723 78.7134 43.9925C78.6119 44.0127 78.5186 44.0626 78.4454 44.1358C78.3721 44.209 78.3223 44.3023 78.3021 44.4039C78.2818 44.5054 78.2922 44.6107 78.3318 44.7064C78.3715 44.8021 78.4386 44.8838 78.5247 44.9414C78.6108 44.9989 78.712 45.0296 78.8156 45.0296C78.9545 45.0296 79.0876 44.9745 79.1858 44.8763C79.284 44.7781 79.3392 44.6449 79.3392 44.506V44.506Z" fill="white"/>
<path d="M80.6126 44.506C80.6126 44.4025 80.5819 44.3012 80.5244 44.2151C80.4669 44.129 80.3851 44.0619 80.2894 44.0223C80.1937 43.9826 80.0885 43.9723 79.9869 43.9925C79.8853 44.0127 79.792 44.0626 79.7188 44.1358C79.6456 44.209 79.5957 44.3023 79.5755 44.4039C79.5553 44.5054 79.5657 44.6107 79.6053 44.7064C79.6449 44.8021 79.712 44.8838 79.7981 44.9414C79.8842 44.9989 79.9855 45.0296 80.089 45.0296C80.2277 45.029 80.3606 44.9737 80.4586 44.8756C80.5567 44.7776 80.612 44.6447 80.6126 44.506V44.506Z" fill="white"/>
<path d="M77.5441 46.3012C77.8333 46.3012 78.0677 46.0668 78.0677 45.7776C78.0677 45.4885 77.8333 45.254 77.5441 45.254C77.2549 45.254 77.0205 45.4885 77.0205 45.7776C77.0205 46.0668 77.2549 46.3012 77.5441 46.3012Z" fill="white"/>
<path d="M78.8156 46.3012C79.1048 46.3012 79.3392 46.0668 79.3392 45.7776C79.3392 45.4885 79.1048 45.254 78.8156 45.254C78.5264 45.254 78.292 45.4885 78.292 45.7776C78.292 46.0668 78.5264 46.3012 78.8156 46.3012Z" fill="white"/>
<path d="M80.089 46.3012C80.3782 46.3012 80.6126 46.0668 80.6126 45.7776C80.6126 45.4885 80.3782 45.254 80.089 45.254C79.7998 45.254 79.5654 45.4885 79.5654 45.7776C79.5654 46.0668 79.7998 46.3012 80.089 46.3012Z" fill="white"/>
<path d="M89.1703 48.3297C91.282 48.3297 92.9939 46.6178 92.9939 44.5061C92.9939 42.3944 91.282 40.6825 89.1703 40.6825C87.0586 40.6825 85.3467 42.3944 85.3467 44.5061C85.3467 46.6178 87.0586 48.3297 89.1703 48.3297Z" fill="#696969"/>
<path d="M87.9982 43.8372H86.8652V45.4476H87.9982L89.0718 46.2528V43.032L87.9982 43.8372Z" fill="white"/>
<path d="M90.6997 44.6139C90.7001 44.9754 90.5836 45.3273 90.3675 45.6171L90.5479 45.7249C90.7871 45.398 90.9145 45.0025 90.9109 44.5974C90.9073 44.1923 90.773 43.7992 90.5281 43.4765L90.3477 43.5843C90.5764 43.8787 90.7002 44.2411 90.6997 44.6139V44.6139Z" fill="white"/>
<path d="M91.481 44.6138C91.4814 45.1143 91.3277 45.6028 91.041 46.013L91.2236 46.1208C91.5308 45.6725 91.6936 45.141 91.69 44.5975C91.6865 44.0541 91.5168 43.5247 91.2038 43.0804L91.0234 43.1882C91.3208 43.6041 91.4808 44.1026 91.481 44.6138V44.6138Z" fill="white"/>
<path d="M89.8619 44.6139C89.863 44.8247 89.7844 45.0283 89.6419 45.1837L89.8245 45.2915C89.9912 45.0988 90.0814 44.8516 90.0777 44.5969C90.0741 44.3421 89.9769 44.0976 89.8047 43.9099L89.6221 44.0177C89.7776 44.1769 89.8638 44.3912 89.8619 44.6139V44.6139Z" fill="white"/>
<path d="M89.1703 59.6223C91.282 59.6223 92.9939 57.9104 92.9939 55.7987C92.9939 53.687 91.282 51.9751 89.1703 51.9751C87.0586 51.9751 85.3467 53.687 85.3467 55.7987C85.3467 57.9104 87.0586 59.6223 89.1703 59.6223Z" fill="#696969"/>
<path d="M90.8602 55.7986C90.8597 56.1332 90.7601 56.4602 90.5738 56.7382C90.3876 57.0161 90.1231 57.2326 89.8138 57.3603C89.5045 57.4879 89.1642 57.521 88.8362 57.4553C88.5081 57.3896 88.2068 57.2281 87.9705 56.9911C87.7342 56.7542 87.5735 56.4526 87.5086 56.1243C87.4438 55.7961 87.4777 55.4559 87.6062 55.147C87.7346 54.838 87.9518 54.5741 88.2303 54.3885C88.5087 54.203 88.836 54.1042 89.1706 54.1046C89.3928 54.1046 89.6129 54.1485 89.8182 54.2336C90.0234 54.3188 90.2099 54.4437 90.3668 54.601C90.5238 54.7584 90.6482 54.9452 90.7328 55.1507C90.8175 55.3562 90.8607 55.5764 90.8602 55.7986Z" stroke="white" stroke-width="0.22" stroke-miterlimit="10"/>
<path d="M89.7123 55.407C89.7123 55.3016 89.681 55.1986 89.6224 55.111C89.5638 55.0234 89.4805 54.9552 89.3831 54.9149C89.2857 54.8747 89.1785 54.8643 89.0752 54.885C88.9718 54.9057 88.877 54.9567 88.8026 55.0313C88.7283 55.106 88.6777 55.2011 88.6574 55.3045C88.6371 55.4079 88.648 55.5151 88.6886 55.6123C88.7293 55.7095 88.7978 55.7925 88.8857 55.8508C88.9735 55.909 89.0767 55.9399 89.1821 55.9394C89.2519 55.9394 89.321 55.9256 89.3855 55.8989C89.4499 55.8721 89.5085 55.8328 89.5577 55.7834C89.607 55.7339 89.646 55.6752 89.6725 55.6106C89.6991 55.546 89.7126 55.4768 89.7123 55.407V55.407Z" fill="white"/>
<path d="M90.5434 56.7865C90.3902 56.999 90.1897 57.173 89.9578 57.2948C89.7258 57.4167 89.4688 57.483 89.2069 57.4885C88.9449 57.4941 88.6853 57.4387 88.4484 57.3268C88.2115 57.2149 88.0039 57.0495 87.8418 56.8437C88.2356 56.5302 88.7267 56.3644 89.23 56.3751C89.7005 56.3682 90.1609 56.5124 90.5434 56.7865V56.7865Z" fill="white"/>
<path d="M78.8148 59.6223C80.9265 59.6223 82.6384 57.9104 82.6384 55.7987C82.6384 53.687 80.9265 51.9751 78.8148 51.9751C76.7031 51.9751 74.9912 53.687 74.9912 55.7987C74.9912 57.9104 76.7031 59.6223 78.8148 59.6223Z" fill="#696969"/>
<path d="M79.4466 54.373H77.1564C76.9875 54.373 76.8506 54.51 76.8506 54.6788V56.837C76.8506 57.0059 76.9875 57.1428 77.1564 57.1428H79.4466C79.6155 57.1428 79.7524 57.0059 79.7524 56.837V54.6788C79.7524 54.51 79.6155 54.373 79.4466 54.373Z" fill="white"/>
<path d="M79.9502 55.1321V56.3839L80.9402 57.0087V54.5073L79.9502 55.1321Z" fill="white"/>
<path d="M68.4623 59.6223C70.574 59.6223 72.2859 57.9104 72.2859 55.7987C72.2859 53.687 70.574 51.9751 68.4623 51.9751C66.3506 51.9751 64.6387 53.687 64.6387 55.7987C64.6387 57.9104 66.3506 59.6223 68.4623 59.6223Z" fill="#696969"/>
<path d="M68.4619 53.8561V57.7391" stroke="white" stroke-width="0.22" stroke-miterlimit="10"/>
<path d="M70.4047 55.7986H66.5195" stroke="white" stroke-width="0.22" stroke-miterlimit="10"/>
<path d="M68.4623 48.3297C70.574 48.3297 72.2859 46.6178 72.2859 44.5061C72.2859 42.3944 70.574 40.6825 68.4623 40.6825C66.3506 40.6825 64.6387 42.3944 64.6387 44.5061C64.6387 46.6178 66.3506 48.3297 68.4623 48.3297Z" fill="#696969"/>
<path d="M68.4574 45.232C68.5352 45.2323 68.6123 45.2172 68.6842 45.1876C68.7561 45.1579 68.8215 45.1143 68.8765 45.0593C68.9315 45.0043 68.9751 44.939 69.0047 44.867C69.0344 44.7951 69.0495 44.718 69.0492 44.6402V42.7614C69.0541 42.6805 69.0425 42.5995 69.0149 42.5233C68.9873 42.447 68.9444 42.3773 68.8889 42.3182C68.8334 42.2592 68.7663 42.2122 68.6919 42.18C68.6175 42.1479 68.5373 42.1313 68.4563 42.1313C68.3753 42.1313 68.2951 42.1479 68.2207 42.18C68.1463 42.2122 68.0792 42.2592 68.0237 42.3182C67.9682 42.3773 67.9253 42.447 67.8977 42.5233C67.8701 42.5995 67.8585 42.6805 67.8634 42.7614V44.6402C67.8634 44.7181 67.8788 44.7953 67.9087 44.8672C67.9385 44.9391 67.9823 45.0045 68.0375 45.0595C68.0927 45.1144 68.1582 45.158 68.2303 45.1876C68.3023 45.2172 68.3795 45.2323 68.4574 45.232V45.232Z" fill="white"/>
<path d="M69.5094 44.6116V43.7316C69.5094 43.7025 69.4979 43.6745 69.4772 43.6539C69.4566 43.6332 69.4286 43.6216 69.3994 43.6216C69.3703 43.6216 69.3423 43.6332 69.3217 43.6539C69.301 43.6745 69.2894 43.7025 69.2894 43.7316V44.6116C69.2894 44.8322 69.2018 45.0437 69.0459 45.1997C68.8899 45.3556 68.6784 45.4432 68.4578 45.4432C68.2373 45.4432 68.0258 45.3556 67.8698 45.1997C67.7139 45.0437 67.6262 44.8322 67.6262 44.6116V43.7316C67.6262 43.7025 67.6147 43.6745 67.594 43.6539C67.5734 43.6332 67.5454 43.6216 67.5162 43.6216C67.4871 43.6216 67.4591 43.6332 67.4385 43.6539C67.4178 43.6745 67.4062 43.7025 67.4062 43.7316V44.6116C67.4065 44.8708 67.5025 45.1207 67.676 45.3132C67.8494 45.5057 68.0879 45.6273 68.3457 45.6544V46.6268H67.7297C67.7005 46.6268 67.6725 46.6384 67.6519 46.6591C67.6312 46.6797 67.6197 46.7077 67.6197 46.7368C67.6197 46.766 67.6312 46.794 67.6519 46.8146C67.6725 46.8353 67.7005 46.8468 67.7297 46.8468H69.1751C69.2042 46.8468 69.2322 46.8353 69.2528 46.8146C69.2735 46.794 69.2851 46.766 69.2851 46.7368C69.2851 46.7077 69.2735 46.6797 69.2528 46.6591C69.2322 46.6384 69.2042 46.6268 69.1751 46.6268H68.5612V45.6544C68.8205 45.6293 69.0612 45.5087 69.2365 45.3159C69.4117 45.1232 69.509 44.8721 69.5094 44.6116Z" fill="white"/>
<path d="M66.8057 42.7593L70.0969 46.0505" stroke="white" stroke-width="0.22" stroke-miterlimit="10"/>
<path d="M82.0693 23.4477V23.1705H82.2629V23.4477H82.0693Z" fill="white"/>
<path d="M82.5244 23.4477V23.1705H82.718V23.4477H82.5244Z" fill="white"/>
<path d="M82.9795 23.4477V23.1705H83.1731V23.4477H82.9795Z" fill="white"/>
<path d="M75.0268 23.4718C74.9146 23.479 74.8032 23.4489 74.71 23.386C74.6355 23.3315 74.5807 23.2543 74.5538 23.166C74.5244 23.0615 74.5104 22.9533 74.512 22.8448V22.0352C74.5094 21.9236 74.5242 21.8122 74.556 21.7052C74.5815 21.6162 74.6366 21.5386 74.7122 21.4852C74.8063 21.4265 74.9161 21.3981 75.0268 21.4038C75.1277 21.3986 75.2279 21.4231 75.315 21.4742C75.3846 21.5236 75.437 21.5936 75.4646 21.6744C75.4967 21.7738 75.5115 21.878 75.5086 21.9824V22.1056H75.3282V21.9868C75.3291 21.9129 75.3217 21.8391 75.3062 21.7668C75.2957 21.7092 75.2654 21.657 75.2204 21.6194C75.1637 21.5804 75.0955 21.5617 75.0268 21.5666C74.9541 21.5617 74.8819 21.5819 74.8222 21.6238C74.7741 21.6644 74.7414 21.7203 74.7298 21.7822C74.7121 21.8609 74.7039 21.9414 74.7056 22.022V22.8888C74.7032 22.9733 74.7129 23.0578 74.7342 23.1396C74.7488 23.2001 74.7837 23.2537 74.8332 23.2914C74.891 23.3278 74.9586 23.3454 75.0268 23.342C75.0961 23.3467 75.1648 23.3264 75.2204 23.2848C75.2664 23.2453 75.2968 23.1907 75.3062 23.1308C75.3222 23.0549 75.3296 22.9774 75.3282 22.8998V22.7656H75.5196V22.8866C75.5211 22.9935 75.5078 23.1001 75.48 23.2034C75.4576 23.2915 75.4055 23.3692 75.3326 23.4234C75.2389 23.4732 75.1313 23.4903 75.0268 23.4718V23.4718Z" fill="white"/>
<path d="M75.6982 23.4476L76.1272 21.4104H76.3296L76.7696 23.4476H76.5826L76.4814 22.902H75.9952L75.894 23.4476H75.6982ZM76.015 22.7634H76.455L76.235 21.6634L76.015 22.7634Z" fill="white"/>
<path d="M77.0068 23.4476V21.4104H77.1982V23.3046H77.7768V23.4476H77.0068Z" fill="white"/>
<path d="M77.9678 23.4476V21.4104H78.1592V23.3046H78.7378V23.4476H77.9678Z" fill="white"/>
<path d="M78.9316 23.4476V21.4104H79.123V23.4476H78.9316Z" fill="white"/>
<path d="M79.4795 23.4476V21.4104H79.6159L80.2759 22.9922V21.4104H80.4431V23.4476H80.3067L79.6467 21.8482V23.4476H79.4795Z" fill="white"/>
<path d="M81.2508 23.474C81.1445 23.48 81.039 23.4523 80.9494 23.3948C80.8764 23.3393 80.8225 23.2624 80.7954 23.1748C80.763 23.0641 80.7474 22.9492 80.7492 22.8338V22.0396C80.7474 21.9244 80.7622 21.8096 80.7932 21.6986C80.8196 21.6101 80.8745 21.5328 80.9494 21.4786C81.0429 21.4304 81.1466 21.4052 81.2519 21.4052C81.3571 21.4052 81.4608 21.4304 81.5544 21.4786C81.6268 21.5256 81.6818 21.5952 81.7106 21.6766C81.7439 21.7803 81.7595 21.8889 81.7568 21.9978V22.0682H81.5764V21.978C81.5783 21.8965 81.5694 21.8152 81.55 21.736C81.537 21.679 81.5042 21.6283 81.4576 21.593C81.4007 21.5565 81.3335 21.5395 81.2662 21.5446C81.1917 21.5392 81.1177 21.5602 81.0572 21.604C81.0078 21.6473 80.9751 21.7064 80.9648 21.7712C80.9488 21.8509 80.9414 21.932 80.9428 22.0132V22.8492C80.9413 22.9343 80.9502 23.0193 80.9692 23.1022C80.982 23.1658 81.0171 23.2228 81.0682 23.2628C81.1272 23.3044 81.1986 23.3246 81.2706 23.32C81.3398 23.324 81.4082 23.3037 81.4642 23.2628C81.5135 23.2207 81.5475 23.1635 81.561 23.1C81.5819 23.0166 81.5915 22.9308 81.5896 22.8448V22.605H81.2882V22.462H81.7656V23.4476H81.6424L81.6204 23.2276C81.5978 23.3009 81.5542 23.3659 81.495 23.4146C81.4231 23.4625 81.3366 23.4835 81.2508 23.474V23.474Z" fill="white"/>
<path d="M69.1924 28.9344V25.2318H70.5322V25.5002H69.5444V26.8906H70.3496V27.148H69.5444V28.6748H70.541V28.9344H69.1924Z" fill="white"/>
<path d="M70.9854 28.9344L71.0755 25.2318H71.4187L72.1557 28.446L72.9015 25.2318H73.247L73.3393 28.9344H73.0511L72.9786 25.9864L72.2702 28.9344H72.0502L71.3395 25.9908L71.2647 28.9344H70.9854Z" fill="white"/>
<path d="M73.9492 28.9344V25.2318H75.3V25.5002H74.3122V26.8906H75.1152V27.148H74.3122V28.6748H75.3V28.9344H73.9492Z" fill="white"/>
<path d="M75.7725 28.9344V25.2318H76.6195C76.8086 25.2225 76.997 25.2611 77.1673 25.344C77.297 25.4156 77.3981 25.5299 77.4533 25.6674C77.5139 25.8291 77.543 26.0008 77.5391 26.1734C77.5398 26.3039 77.5243 26.434 77.4929 26.5606C77.4674 26.6756 77.4146 26.7828 77.3389 26.873C77.2568 26.9631 77.1467 27.0227 77.0265 27.0424L77.5941 28.9344H77.2553L76.7119 27.115H76.1311V28.9344H75.7725ZM76.1201 26.8598H76.5909C76.7161 26.8669 76.8409 26.8395 76.9517 26.7806C77.0366 26.7312 77.1013 26.6532 77.1343 26.5606C77.1745 26.4387 77.1932 26.3106 77.1893 26.1822C77.2019 26.0033 77.1605 25.8247 77.0705 25.6696C77.0113 25.6057 76.9376 25.557 76.8557 25.5275C76.7738 25.498 76.686 25.4887 76.5997 25.5002H76.1201V26.8598Z" fill="white"/>
<path d="M78.9473 28.985C78.7539 28.9961 78.562 28.9452 78.3995 28.8398C78.2633 28.7361 78.1645 28.5909 78.1179 28.4262C78.0602 28.2246 78.0328 28.0155 78.0365 27.8058V26.3604C78.0326 26.1516 78.0593 25.9433 78.1157 25.7422C78.1614 25.5788 78.2615 25.436 78.3995 25.3374C78.572 25.2327 78.7722 25.1828 78.9737 25.1944C79.1577 25.1854 79.3406 25.2281 79.5017 25.3176C79.6341 25.4021 79.7335 25.5294 79.7833 25.6784C79.845 25.8656 79.874 26.0621 79.8691 26.2592V26.4H79.5413V26.2702C79.5453 26.122 79.529 25.974 79.4929 25.8302C79.4682 25.7266 79.4093 25.6343 79.3257 25.5684C79.22 25.5041 79.0971 25.4741 78.9737 25.4826C78.8384 25.4717 78.7037 25.5108 78.5953 25.5926C78.506 25.6704 78.4468 25.7771 78.4281 25.894C78.4001 26.0389 78.3868 26.1864 78.3885 26.334V27.8586C78.3856 28.014 78.4019 28.1692 78.4369 28.3206C78.4603 28.4359 78.5233 28.5395 78.6151 28.6132C78.7234 28.6856 78.8525 28.7204 78.9825 28.7122C79.1051 28.7263 79.2284 28.6929 79.327 28.6188C79.4256 28.5447 79.4921 28.4356 79.5127 28.314C79.5501 28.1614 79.5671 28.0046 79.5633 27.8476V27.4076H79.0155V27.1458H79.8845V28.9388H79.6645L79.6227 28.5186C79.5845 28.652 79.508 28.7713 79.4027 28.8618C79.2702 28.9554 79.1089 28.999 78.9473 28.985V28.985Z" fill="white"/>
<path d="M80.4824 28.9344V25.2318H81.8222V25.5002H80.8344V26.8906H81.6396V27.148H80.8344V28.6748H81.831V28.9344H80.4824Z" fill="white"/>
<path d="M82.3066 28.9344V25.2318H82.5596L83.7388 28.1072V25.2318H84.0402V28.9344H83.7938L82.6036 26.026V28.9344H82.3066Z" fill="white"/>
<path d="M85.5449 28.9806C85.3401 28.9943 85.1365 28.9393 84.9663 28.8244C84.8293 28.7196 84.7304 28.5727 84.6847 28.4064C84.6317 28.2167 84.6058 28.0204 84.6077 27.8234V26.3516C84.6042 26.1479 84.6309 25.9447 84.6869 25.7488C84.7334 25.584 84.8342 25.4398 84.9729 25.3396C85.1442 25.2336 85.3439 25.183 85.5449 25.1944C85.7283 25.1838 85.9106 25.2283 86.0685 25.322C86.1971 25.4095 86.293 25.5372 86.3413 25.685C86.3994 25.8662 86.4269 26.0558 86.4227 26.246V26.466H86.0949V26.246C86.097 26.1064 86.0837 25.9669 86.0553 25.8302C86.0348 25.7246 85.979 25.6292 85.8969 25.5596C85.7938 25.489 85.6696 25.4556 85.5449 25.465C85.4127 25.4546 85.281 25.4912 85.1731 25.5684C85.0845 25.6425 85.0246 25.7452 85.0037 25.8588C84.9712 26.0031 84.9564 26.1509 84.9597 26.2988V27.8762C84.9562 28.0304 84.974 28.1844 85.0125 28.3338C85.0396 28.4433 85.1032 28.5404 85.1929 28.6088C85.2983 28.6741 85.4211 28.7056 85.5449 28.699C85.6702 28.7082 85.7948 28.6732 85.8969 28.6C85.9796 28.5264 86.0354 28.4273 86.0553 28.3184C86.0836 28.1787 86.0969 28.0363 86.0949 27.8938V27.6518H86.4227V27.8718C86.4263 28.0666 86.4011 28.2608 86.3479 28.4482C86.3047 28.6056 86.2103 28.7442 86.0795 28.842C85.9204 28.9434 85.7333 28.9919 85.5449 28.9806V28.9806Z" fill="white"/>
<path d="M87.5579 28.9345V27.7047L86.7197 25.2319H87.0585L87.7185 27.2889L88.3587 25.2319H88.7195L87.9033 27.7047V28.9345H87.5579Z" fill="white"/>
<path d="M49.1844 97.02C49.1844 97.02 49.9698 95.92 50.5044 95.7506C51.039 95.5812 52.0642 96.4832 52.1544 96.6306C52.2446 96.778 53.7802 97.603 54.4952 97.8846C55.2102 98.1662 56.0352 99.627 56.2398 100.032C56.4444 100.437 56.3256 100.848 55.8306 100.89C55.3356 100.932 53.4788 100.159 52.5592 99.8206C51.6396 99.4818 50.6166 99.2046 50.6166 99.2046C50.6166 99.2046 49.0766 98.0386 49.0392 97.8846C49.0018 97.7306 49.1844 97.02 49.1844 97.02Z" fill="white" stroke="#002366" stroke-width="0.22" stroke-linecap="round" stroke-linejoin="round"/>
<path d="M35.0715 101.754C35.0715 101.754 37.8303 101.457 39.0183 100.861C40.2063 100.265 49.8335 99.3212 49.8335 99.3212L49.0283 97.1982C49.0283 97.1982 42.1159 97.7306 40.3757 97.5194C38.6355 97.3082 37.8721 97.1784 37.6609 97.1784C37.4497 97.1784 36.8975 99.3014 36.4311 99.9372C35.9647 100.573 34.7745 101.125 34.7745 101.125C34.7745 101.125 34.3499 101.669 35.0715 101.754Z" fill="white" stroke="#002366" stroke-width="0.22" stroke-linecap="round" stroke-linejoin="round"/>
<path d="M57.401 98.142C57.401 98.142 58.1864 97.042 58.721 96.8726C59.2556 96.7032 60.2808 97.6074 60.3688 97.7636C60.4568 97.9198 61.9968 98.7338 62.7118 99.0176C63.4268 99.3014 64.2518 100.758 64.4564 101.165C64.661 101.572 64.5422 101.979 64.0472 102.021C63.5522 102.062 61.6954 101.29 60.7758 100.951C59.8562 100.613 58.8332 100.335 58.8332 100.335C58.8332 100.335 57.3042 99.1694 57.2558 99.0154C57.2074 98.8614 57.401 98.142 57.401 98.142Z" fill="#002366" stroke="#002366" stroke-width="0.22" stroke-linecap="round" stroke-linejoin="round"/>
<path d="M44.1352 101.757C45.0858 101.85 46.0429 101.86 46.9952 101.785C48.654 101.666 53.3048 100.938 53.8416 100.905C54.3784 100.872 58.4748 100.364 58.4748 100.364C58.4748 100.364 58.9764 100.456 58.7168 99.638C58.4572 98.8196 57.41 98.1376 57.41 98.1376C57.41 98.1376 54.6226 98.0386 53.6942 98.0496C52.7658 98.0606 46.96 97.548 46.96 97.548C46.96 97.548 43.715 99.7502 44.1352 101.757Z" fill="#002366" stroke="#002366" stroke-width="0.22" stroke-linecap="round" stroke-linejoin="round"/>
<path d="M33.6813 80.0404C33.3043 81.6703 33.0462 83.3253 32.9091 84.9926C32.7815 87.1926 31.7211 99.165 32.0181 99.8008C32.3151 100.437 33.3755 102.001 34.7329 101.754C36.0903 101.508 36.8119 100.736 37.0253 100.395C37.2387 100.054 40.2923 87.538 40.2923 87.538C40.2923 87.538 41.0139 90.178 41.0139 90.805C41.0139 91.432 40.3693 100.661 40.8841 101.114C42.2305 102.302 43.7727 102.007 43.9839 102.007C44.1951 102.007 45.5965 101.669 45.8517 101.372C46.1069 101.075 47.9725 94.2854 48.3113 91.8236C48.6501 89.3618 50.1373 82.5726 49.5851 80.366C49.0329 78.1594 47.3367 76.12 47.3367 76.12C47.3367 76.12 46.0167 77.2662 42.2437 78.9206C38.4707 80.575 35.1157 80.1944 34.7637 80.0206C34.4117 79.8468 33.6813 80.0404 33.6813 80.0404Z" fill="#00425F" stroke="#002366" stroke-width="0.22" stroke-linecap="round" stroke-linejoin="round"/>
<path d="M28.3081 61.171C28.3081 61.171 27.4853 62.3722 27.3599 63.0344C27.2345 63.6966 25.3359 68.9458 25.3359 68.9458C25.3359 68.9458 27.2015 69.3858 27.8967 69.421L29.3179 69.4826L29.9515 69.6102C29.9515 69.6102 30.0769 72.897 30.7413 73.5922C31.4057 74.2874 32.7015 75.1102 32.8269 75.614C32.9523 76.1178 33.7443 79.882 33.6805 80.0404C33.6167 80.1988 33.3967 81.2086 33.3967 81.2086C33.3967 81.2086 35.7661 83.2964 38.7691 83.2964C41.7721 83.2964 44.3329 83.2964 45.9125 81.0524C47.4921 78.8084 47.9365 77.5742 47.6505 76.626C47.3645 75.6778 45.8179 74.6988 45.6705 74.5404C45.5231 74.382 44.0271 72.6132 44.0271 72.6132C44.0271 72.6132 44.2163 65.406 43.9325 63.5404C43.6487 61.6748 42.0053 61.0126 41.2771 60.885C40.5489 60.7574 37.7703 60.7288 37.7703 60.7288L29.8987 60.4428L28.3081 61.171Z" fill="#002366" stroke="#002366" stroke-width="0.22" stroke-linecap="round" stroke-linejoin="round"/>
<path d="M25.9698 60.06C25.9698 60.06 25.4946 60.6276 26.126 61.578C26.7574 62.5284 28.5614 65.12 28.6604 65.34C28.7594 65.56 26.3834 70.7454 26.3834 70.7454C26.3834 70.7454 24.52 73.3678 24.8038 74.5074C25.0876 75.647 26.511 76.5292 26.8586 76.4346C27.2062 76.34 28.6912 75.1388 29.1026 74.349C29.514 73.5592 30.4226 64.9924 30.4226 64.9924C30.4226 64.9924 30.8032 63.5074 30.7702 63.0652C30.7016 62.4479 30.5966 61.8353 30.4556 61.2304C30.3918 61.0412 28.7484 57.0504 28.7484 57.0504L26.599 59.3252L25.9698 60.06Z" fill="white" stroke="#002366" stroke-width="0.22" stroke-linecap="round" stroke-linejoin="round"/>
<path d="M29.0039 62.8452C29.0039 62.8452 29.6353 63.668 29.7299 64.1652C29.786 64.4706 29.7649 64.7852 29.6683 65.0804" stroke="#002366" stroke-width="0.22" stroke-linecap="round" stroke-linejoin="round"/>
<path d="M28.1503 56.5245L28.0557 62.3721L29.5715 62.5305L29.3207 56.8083L28.1503 56.5245Z" fill="#002366" stroke="#002366" stroke-width="0.22" stroke-linecap="round" stroke-linejoin="round"/>
<path d="M26.6325 60.885C26.6325 60.885 28.4343 59.4638 28.6873 59.125C28.8318 58.9465 28.9096 58.7233 28.9073 58.4936L28.0537 55.869C28.0537 55.869 27.2001 56.529 27.0725 56.8172C26.9449 57.1054 25.9043 60.104 25.8405 60.3262C25.7767 60.5484 25.6205 60.8322 25.9989 61.1468" fill="white"/>
<path d="M26.6325 60.885C26.6325 60.885 28.4343 59.4638 28.6873 59.125C28.8318 58.9465 28.9096 58.7233 28.9073 58.4936L28.0537 55.869C28.0537 55.869 27.2001 56.529 27.0725 56.8172C26.9449 57.1054 25.9043 60.104 25.8405 60.3262C25.7767 60.5484 25.6205 60.8322 25.9989 61.1468" stroke="#002366" stroke-width="0.22" stroke-linecap="round" stroke-linejoin="round"/>
<path d="M26.5371 59.906C26.5371 59.906 28.2751 58.7686 28.7195 58.1988" stroke="#002366" stroke-width="0.22" stroke-linecap="round" stroke-linejoin="round"/>
<path d="M26.6016 58.7994C26.6016 58.7994 28.1812 57.8842 28.498 57.2594" stroke="#002366" stroke-width="0.22" stroke-linecap="round" stroke-linejoin="round"/>
<path d="M26.918 57.6312L28.2138 56.7138" stroke="#002366" stroke-width="0.22" stroke-linecap="round" stroke-linejoin="round"/>
<path d="M31.3008 62.447C31.3008 62.447 31.721 65.0716 32.7484 66.671C33.7758 68.2704 36.0154 70.4 36.0154 70.4C36.0154 70.4 37.65 67.166 37.9558 64.1608C38.2616 61.1556 38.2594 60.7376 38.2594 60.7376L37.3794 60.6232L31.3008 61.3448V62.447Z" fill="#757575" stroke="#002366" stroke-width="0.22" stroke-linecap="round" stroke-linejoin="round"/>
<path d="M31.8174 63.0982C31.8174 63.0982 32.7326 65.7844 33.5774 67.0582C34.1645 67.8998 34.8312 68.6829 35.5684 69.3968C36.3626 67.9721 36.9079 66.4223 37.181 64.8142C37.5594 62.3172 37.7508 60.7376 37.7508 60.7376C37.4225 60.3305 37.1282 59.8971 36.8708 59.4418C36.7124 59.0612 36.5562 58.7818 36.5562 58.7818C36.5562 58.7818 36.4594 60.5836 35.322 61.6902C34.1846 62.7968 33.9624 62.953 33.3002 63.0102C32.638 63.0674 31.8174 63.0982 31.8174 63.0982Z" fill="white" stroke="#002366" stroke-width="0.22" stroke-linecap="round" stroke-linejoin="round"/>
<path d="M34.3122 64.02L34.7698 62.2094C34.0878 62.843 33.8414 62.9574 33.3024 63.008C32.6424 63.0718 31.8174 63.1026 31.8174 63.1026C31.8174 63.1026 32.2882 64.4864 32.8712 65.7426L34.3122 64.02Z" fill="#002366" stroke="#002366" stroke-width="0.22" stroke-linecap="round" stroke-linejoin="round"/>
<path d="M27.0123 53.8384C27.0123 53.8384 26.1587 55.1958 26.2841 55.924C26.4095 56.6522 28.1497 57.5982 28.1497 57.5982L28.8757 55.5126C28.8757 55.5126 31.1527 56.3354 31.8171 56.3662C32.4815 56.397 33.8697 56.2716 34.2173 56.3354C34.5649 56.3992 36.6835 57.5982 36.5251 57.9458C36.3667 58.2934 36.3051 58.9886 36.3997 59.18C36.5288 59.3821 36.6761 59.5721 36.8397 59.7476C36.8397 59.7476 37.9133 59.3076 38.4831 58.7048C39.0529 58.102 39.4005 57.5674 39.4313 56.8392C39.4621 56.111 37.8913 53.8384 37.8913 53.8384C37.8913 53.8384 37.6075 51.8452 37.1653 51.2776C36.7231 50.71 33.3395 48.939 32.3913 48.7476C31.4431 48.5562 31.6653 48.3692 31.0955 48.653C30.5257 48.9368 26.9155 51.2446 26.7329 51.9728C26.5503 52.701 27.0123 53.8384 27.0123 53.8384Z" fill="#002366" stroke="#002366" stroke-width="0.22" stroke-linecap="round" stroke-linejoin="round"/>
<path d="M28.5614 54.5952C28.5614 54.5952 30.9946 55.7656 31.626 55.8294C31.9917 55.8667 32.3603 55.8667 32.726 55.8294L32.1254 54.0892C32.3016 54.4803 32.5591 54.8293 32.8808 55.1131C33.2025 55.3969 33.581 55.6088 33.991 55.7348C35.3506 56.1132 36.455 56.43 36.455 56.43L36.6134 55.5764C36.6134 55.5764 37.5308 55.5434 37.6892 56.43C37.8476 57.3166 37.6892 58.421 37.5616 58.5464C37.434 58.6718 36.8664 59.0854 36.8664 59.0854C36.8664 59.0854 37.1194 60.1282 37.0248 60.3482C36.9302 60.5682 34.4706 63.8 34.3122 64.02C34.1538 64.24 33.2386 64.3676 32.8272 64.273C32.4158 64.1784 30.3632 61.8376 29.8572 61.3338C29.3512 60.83 28.5922 58.773 28.3172 58.1086C28.0422 57.4442 28.0312 57.255 28.2226 56.7182C28.414 56.1814 28.5614 54.5952 28.5614 54.5952Z" fill="white" stroke="#002366" stroke-width="0.22" stroke-linecap="round" stroke-linejoin="round"/>
<path d="M30.6777 57.7874C30.6777 57.7874 31.2167 59.18 31.4675 59.7806C31.7183 60.3812 31.8481 61.3205 32.1649 61.2325C32.4009 61.1402 32.6157 61.001 32.7963 60.8234" stroke="#002366" stroke-width="0.22" stroke-linecap="round" stroke-linejoin="round"/>
<path d="M32.8274 62.3721C32.8274 62.3721 33.7756 62.3721 33.9648 62.1807C34.154 61.9893 33.934 61.7077 33.3334 61.7715C32.7328 61.8353 32.2598 61.9915 32.8274 62.3721Z" fill="#002366" stroke="#002366" stroke-width="0.22" stroke-linecap="round" stroke-linejoin="round"/>
<path d="M33.3705 57.9348C33.4651 58.1548 33.4189 58.3748 33.2671 58.4474C33.1153 58.52 32.9151 58.3924 32.8271 58.1768C32.7391 57.9612 32.7765 57.7368 32.9283 57.6642C33.0801 57.5916 33.2803 57.717 33.3705 57.9348Z" fill="#002366"/>
<path d="M30.5571 58.5992C30.6088 58.6814 30.6272 58.7803 30.6084 58.8756C30.5895 58.9709 30.535 59.0554 30.4559 59.1118C30.3019 59.1778 30.1017 59.0568 30.0159 58.8412C29.9301 58.6256 29.9675 58.4012 30.1193 58.3286C30.2711 58.256 30.4625 58.3814 30.5571 58.5992Z" fill="#002366"/>
<path d="M29.1006 57.9458C29.247 57.7507 29.4386 57.594 29.659 57.4894C29.8793 57.3848 30.1218 57.3353 30.3656 57.3452L30.271 56.9668" stroke="#002366" stroke-width="0.22" stroke-linecap="round" stroke-linejoin="round"/>
<path d="M31.4365 56.5884L31.6565 56.8722C32.2606 56.5663 32.9448 56.4556 33.6145 56.5554" stroke="#002366" stroke-width="0.22" stroke-linecap="round" stroke-linejoin="round"/>
<path d="M58.3602 92.774C58.3602 92.774 64.7842 94.8948 66.4694 95.0202C68.1546 95.1456 71.8968 96.0806 71.8968 96.0806C71.8968 96.0806 79.192 96.8902 79.7002 97.02C80.2084 97.1498 84.8152 98.5798 86.1264 98.7668C87.4376 98.9538 89.3076 99.2662 89.3076 99.2662L88.9336 101.761L73.8988 101.699L57.6188 102.634L53.3002 100.071L48.8716 98.9494C48.8716 98.9494 48.2468 94.5824 48.4316 93.3966C48.6164 92.2108 49.5558 91.3396 52.1716 91.4628C54.7874 91.586 58.3602 92.774 58.3602 92.774Z" fill="#002366" stroke="#002366" stroke-width="0.22" stroke-linecap="round" stroke-linejoin="round"/>
<path d="M49.3096 86.9C49.3096 86.9 52.438 85.0718 55.2804 86.2906C58.1228 87.5094 59.1788 91.4892 59.2602 92.9918C59.3416 94.4944 58.895 99.6116 58.895 99.6116C60.0283 99.4921 61.1676 99.4377 62.3072 99.4488C63.8912 99.4906 70.632 100.019 71.16 99.9768C71.688 99.935 72.7 99.9372 72.7 99.9372V101.968C72.7 101.968 68.883 103.068 64.8636 104.243C60.8442 105.417 57.3836 106.801 56.4156 107.004C56.0288 107.082 55.627 107.023 55.2787 106.838C54.9304 106.652 54.6572 106.352 54.506 105.987C54.2618 105.42 50.8914 98.2718 50.1214 96.1202C49.3514 93.9686 48.9004 92.5474 48.9004 92.2218C48.9004 91.8962 49.3096 86.9 49.3096 86.9Z" fill="#002366" stroke="#002366" stroke-width="0.22" stroke-linecap="round" stroke-linejoin="round"/>
<path d="M70.709 99.8536L71.7166 99.825" stroke="#A6A6A6" stroke-width="0.22" stroke-linecap="round" stroke-linejoin="round"/>
<path d="M59.2578 93.72L59.491 100.529C59.491 100.529 62.6634 100.142 64.21 100.065C65.1318 100.019 67.6156 99.9438 69.4768 99.8932" stroke="#A6A6A6" stroke-width="0.22" stroke-linecap="round" stroke-linejoin="round"/>
<path d="M51.6945 99.5566C51.028 97.9365 50.5797 96.2349 50.3613 94.4966" stroke="#A6A6A6" stroke-width="0.22" stroke-linecap="round" stroke-linejoin="round"/>
<path d="M52.4491 101.218C52.4491 101.218 52.3413 101.015 52.1719 100.657" stroke="#A6A6A6" stroke-width="0.22" stroke-linecap="round" stroke-linejoin="round"/>
<path d="M72.7021 99.9395L75.9515 100.379C75.9515 100.379 79.4451 101.963 79.5265 103.222C79.6079 104.48 78.6333 105.131 77.1307 104.48C75.6281 103.829 74.328 102.208 73.9628 102.084C73.548 101.999 73.1255 101.959 72.7021 101.963V99.9395Z" fill="white" stroke="#002366" stroke-width="0.22" stroke-linecap="round" stroke-linejoin="round"/>
<path d="M24.375 93.2382L26.3242 91.817C26.3242 91.817 27.257 87.6744 28.3548 87.186C29.4526 86.6976 31.8462 86.3346 32.7394 86.6184C33.6326 86.9022 40.1314 89.2166 40.457 89.2584C40.7826 89.3002 42.3666 89.3398 42.3666 89.3398C42.3666 89.3398 43.2994 88.2024 43.8692 88.121C44.439 88.0396 45.0044 88.649 45.0044 88.649L49.7168 86.537C49.7168 86.537 50.1568 89.9492 49.7564 92.466C49.356 94.9828 49.7168 96.3248 50.0006 97.746C50.183 98.7413 50.2918 99.7487 50.3262 100.76L47.97 100.881C47.97 100.881 49.51 102.142 49.7168 102.421C49.8873 102.641 50.0772 102.845 50.2844 103.03C49.6626 102.986 49.0384 102.986 48.4166 103.03C47.6862 103.112 46.265 103.396 43.4226 102.907C40.5802 102.419 39.28 102.095 38.0194 102.095C36.7588 102.095 34.8118 102.219 34.8118 102.219C34.8118 102.219 29.6528 100.958 29.248 100.918C28.8432 100.879 27.2988 101.284 26.729 101.358C26.1592 101.433 25.5124 101.398 25.5124 100.423C25.5124 99.4488 25.552 98.516 25.3496 97.7438C25.1472 96.9716 24.375 93.2382 24.375 93.2382Z" fill="#00425F" stroke="#002366" stroke-width="0.22" stroke-linecap="round" stroke-linejoin="round"/>
<path d="M45.0061 100.263C43.5717 100.043 41.7369 99.8228 40.7821 99.9636C39.6379 100.149 38.4659 100.059 37.3633 99.7018" stroke="#002366" stroke-width="0.22" stroke-linecap="round" stroke-linejoin="round"/>
<path d="M47.0306 100.621C47.0306 100.621 46.606 100.536 45.9658 100.423" stroke="#002366" stroke-width="0.22" stroke-linecap="round" stroke-linejoin="round"/>
<path d="M42.6899 90.101C42.6899 90.101 38.6793 91.9424 36.8379 92.0084Z" fill="#00425F"/>
<path d="M42.6899 90.101C42.6899 90.101 38.6793 91.9424 36.8379 92.0084" stroke="#002366" stroke-width="0.22" stroke-linecap="round" stroke-linejoin="round"/>
<path d="M44.9252 88.9724C44.9252 88.9724 44.7624 91.4914 44.2344 92.6288" stroke="#002366" stroke-width="0.22" stroke-linecap="round" stroke-linejoin="round"/>
<path d="M45.9652 93.7838C45.9529 94.0796 45.9168 94.3738 45.8574 94.6638" stroke="#002366" stroke-width="0.22" stroke-linecap="round" stroke-linejoin="round"/>
<path d="M45.3301 88.8514C45.6608 90.1674 45.8728 91.5104 45.9637 92.8642" stroke="#002366" stroke-width="0.22" stroke-linecap="round" stroke-linejoin="round"/>
<path d="M31.5206 98.0649C31.5206 98.0649 25.2858 100.883 25.0966 101.108C24.9074 101.332 22.8812 101.783 22.3554 101.897C21.8296 102.012 18.4108 101.677 18.5604 101.897C18.71 102.117 21.3412 102.912 21.8604 102.912C22.3796 102.912 24.7908 102.472 25.0152 102.423C25.2396 102.375 31.2522 100.806 32.0024 100.544C32.4597 100.384 32.9015 100.183 33.3224 99.9437L31.5206 98.0649Z" fill="white" stroke="#002366" stroke-width="0.22" stroke-linecap="round" stroke-linejoin="round"/>
<path d="M28.8076 91.1526L33.014 96.7868L31.5202 98.065L33.9908 100.32C33.9908 100.32 36.6308 99.1562 37.3722 98.8174C38.1136 98.4786 38.6108 98.1794 38.4986 97.6536C38.3864 97.1278 34.0282 87.8878 34.0282 87.8878" fill="#00425F"/>
<path d="M28.8076 91.1526L33.014 96.7868L31.5202 98.065L33.9908 100.32C33.9908 100.32 36.6308 99.1562 37.3722 98.8174C38.1136 98.4786 38.6108 98.1794 38.4986 97.6536C38.3864 97.1278 34.0282 87.8878 34.0282 87.8878" stroke="#002366" stroke-width="0.22" stroke-linecap="round" stroke-linejoin="round"/>
<path d="M32.1493 104.038C32.1493 104.038 33.9533 104.038 34.8553 103.475C35.7573 102.912 36.5449 101.633 36.3579 100.582C36.1709 99.5302 36.7715 99.5302 34.8179 99.3432C33.4007 99.2001 31.9782 99.559 30.7985 100.357C30.0087 100.846 29.7469 101.409 31.3617 101.372C32.9765 101.334 34.0281 101.484 33.5023 102.01C32.9765 102.535 31.7401 103.774 32.1493 104.038Z" fill="#00425F" stroke="#002366" stroke-width="0.22" stroke-linecap="round" stroke-linejoin="round"/>
<path d="M27.8312 101.332C27.8312 101.332 23.473 103.972 23.2112 104.15C22.9494 104.328 21.746 104.262 21.1058 104.038C20.6493 103.857 20.1434 103.844 19.678 104.001C19.1983 104.136 18.7094 104.236 18.215 104.3C17.8014 104.337 17.115 104.188 17.2382 104.639C17.3614 105.09 18.215 105.015 18.215 105.015C18.215 105.015 17.5374 106.443 17.7266 106.592C17.9158 106.742 20.6548 106.667 21.5942 106.48C22.5336 106.293 24.7138 105.653 25.013 105.541C25.3122 105.428 31.1356 104.489 32.713 103.781C34.2904 103.072 35.6434 101.565 35.6434 100.775C35.6434 99.9856 35.7578 99.6116 34.0286 99.913C32.2994 100.214 30.348 100.019 27.8312 101.332Z" fill="white" stroke="#002366" stroke-width="0.22" stroke-linecap="round" stroke-linejoin="round"/>
<path d="M21.2416 106.509C21.0898 106.509 18.0252 106.931 18.0252 106.931C18.0252 106.931 17.341 106.135 17.2266 106.051C17.1122 105.967 16.9736 105.233 16.9736 105.233C16.9736 105.233 17.2376 105.013 17.3498 105.233L17.462 105.453C17.462 105.453 18.1374 105.274 18.4388 105.378C18.6918 105.461 19.0394 105.565 19.0394 105.565C19.0394 105.565 19.1516 105.151 19.4156 105.226C19.8815 105.449 20.3333 105.7 20.7686 105.978C20.7686 105.978 21.6486 105.162 22.0732 105.013C22.3577 104.924 22.6587 104.901 22.9532 104.947" fill="white"/>
<path d="M21.2416 106.509C21.0898 106.509 18.0252 106.931 18.0252 106.931C18.0252 106.931 17.341 106.135 17.2266 106.051C17.1122 105.967 16.9736 105.233 16.9736 105.233C16.9736 105.233 17.2376 105.013 17.3498 105.233L17.462 105.453C17.462 105.453 18.1374 105.274 18.4388 105.378C18.6918 105.461 19.0394 105.565 19.0394 105.565C19.0394 105.565 19.1516 105.151 19.4156 105.226C19.8815 105.449 20.3333 105.7 20.7686 105.978C20.7686 105.978 21.6486 105.162 22.0732 105.013C22.3577 104.924 22.6587 104.901 22.9532 104.947" stroke="#002366" stroke-width="0.22" stroke-linecap="round" stroke-linejoin="round"/>
<path d="M19.04 105.578C19.4235 105.912 19.847 106.196 20.3006 106.425" stroke="#002366" stroke-width="0.22" stroke-linecap="round" stroke-linejoin="round"/>
<path d="M18.1934 105.393C18.3591 105.947 18.736 106.413 19.2428 106.691" stroke="#002366" stroke-width="0.22" stroke-linecap="round" stroke-linejoin="round"/>
<path d="M17.4629 105.466C17.4629 105.466 17.7775 106.476 18.5277 106.825" stroke="#002366" stroke-width="0.22" stroke-linecap="round" stroke-linejoin="round"/>
<path d="M32.2644 96.8638C32.2644 96.8638 33.5404 98.1024 34.2158 98.6656C34.8912 99.2288 35.945 99.9856 35.945 99.9856C35.945 99.9856 34.4798 100.549 34.2554 100.624C34.031 100.698 33.0146 100.285 32.227 99.6842C31.6998 99.2576 31.2432 98.7505 30.874 98.1816L32.2644 96.8638Z" fill="#00425F" stroke="#002366" stroke-width="0.22" stroke-linecap="round" stroke-linejoin="round"/>
<path d="M26.3242 98.3555L26.6476 99.7767L28.8828 98.8175L26.3242 98.3555Z" fill="#00425F" stroke="#002366" stroke-width="0.22" stroke-linecap="round" stroke-linejoin="round"/>
<path d="M21.0682 94.8354C21.3996 94.9177 21.7426 94.943 22.0824 94.9102C22.496 94.8354 22.6456 94.3074 22.0076 93.445C21.7728 93.1044 21.418 92.8649 21.0143 92.7743C20.6105 92.6838 20.1875 92.7489 19.8296 92.9566C19.3038 93.2932 18.8902 93.5946 18.2148 93.632C17.5394 93.6694 16.336 92.73 15.3548 93.445C14.3736 94.16 14.378 94.3844 14.191 94.721C14.004 95.0576 12.805 95.3216 12.1604 96.976C11.5158 98.6304 12.123 99.836 12.1604 100.056C12.1978 100.276 10.7722 100.544 10.2838 102.047C9.79543 103.55 10.8844 104.865 12.4618 105.164C14.0392 105.464 16.9696 104.601 17.458 103.624C17.9464 102.648 17.5702 102.234 17.3458 101.864C17.3089 101.792 17.2877 101.713 17.2838 101.633C17.2798 101.552 17.2932 101.471 17.323 101.396C17.3528 101.321 17.3983 101.253 17.4565 101.197C17.5147 101.14 17.5842 101.097 17.6604 101.07C17.8122 101.07 17.5856 100.619 17.7374 99.3806C17.8892 98.142 18.338 96.8242 19.3148 96.4128C20.2916 96.0014 21.0748 96.1114 21.2684 95.81C21.462 95.5086 21.0682 94.8354 21.0682 94.8354Z" fill="#A6A6A6" stroke="#002366" stroke-width="0.22" stroke-linecap="round" stroke-linejoin="round"/>
<path d="M16.6576 99.0858C16.6576 99.0858 16.5762 97.8274 15.5576 97.7856C14.539 97.7438 13.769 98.4764 14.4202 99.9856C15.0714 101.495 15.9228 101.977 15.232 102.991C14.5412 104.005 11.1708 105.307 11.415 103.235C11.6592 101.163 13.7294 101.449 13.3642 102.058C12.999 102.667 12.3896 102.098 12.3896 102.098" stroke="#002366" stroke-width="0.22" stroke-linecap="round" stroke-linejoin="round"/>
<path d="M12.1602 100.056C12.1602 100.056 13.5264 98.956 14.5802 101.279" stroke="#002366" stroke-width="0.22" stroke-linecap="round" stroke-linejoin="round"/>
<path d="M14.3008 95.755C14.3008 95.755 14.8288 95.106 16.8198 95.0664C18.8108 95.0268 18.3092 96.3139 17.9506 96.5625" stroke="#002366" stroke-width="0.22" stroke-linecap="round" stroke-linejoin="round"/>
<path d="M19.4596 94.4152C19.4596 94.4152 17.8338 93.643 16.901 93.9752C15.9682 94.3074 15.5194 94.787 15.0332 94.8288" stroke="#002366" stroke-width="0.22" stroke-linecap="round" stroke-linejoin="round"/>
<path d="M25.5011 98.252L28.8803 98.8152L25.0105 94.8728C25.0105 94.8728 22.9073 95.2094 22.4937 94.8354C22.0801 94.4614 19.9021 94.721 19.9021 94.721C19.9021 94.721 20.6149 95.4734 19.9769 95.623C19.3389 95.7726 18.5491 95.887 17.9485 96.5624C17.3479 97.2378 17.3853 97.7262 17.2357 98.2894C17.0861 98.8526 16.4833 99.3036 16.4085 99.8294C16.3337 100.355 16.3711 100.846 17.5085 101.559C18.6459 102.271 21.1517 102.309 21.8293 102.197C22.9518 101.943 24.0462 101.578 25.0963 101.108C26.1853 100.619 26.1105 99.6424 26.0357 99.3806C25.878 98.995 25.6996 98.6183 25.5011 98.252V98.252Z" fill="white" stroke="#002366" stroke-width="0.22" stroke-linecap="round" stroke-linejoin="round"/>
<path d="M25.5013 98.252L24.2363 96.5778L26.7773 98.4742L25.5013 98.252Z" fill="#002366" stroke="#002366" stroke-width="0.22" stroke-linecap="round" stroke-linejoin="round"/>
<path d="M22.1949 99.1915C22.1949 99.1915 22.3841 99.9439 22.1201 100.395" stroke="#002366" stroke-width="0.22" stroke-linecap="round" stroke-linejoin="round"/>
<path d="M23.585 99.0417C23.7002 99.3541 23.7261 99.6923 23.6598 100.019" stroke="#002366" stroke-width="0.22" stroke-linecap="round" stroke-linejoin="round"/>
<path d="M20.5054 97.9154C20.545 98.0822 20.5489 98.2555 20.5166 98.4239C20.4844 98.5922 20.4168 98.7519 20.3184 98.8922" stroke="#002366" stroke-width="0.22" stroke-linecap="round" stroke-linejoin="round"/>
<path d="M20.3926 100.395C20.3926 100.395 20.7688 101.145 20.43 101.521" stroke="#002366" stroke-width="0.22" stroke-linecap="round" stroke-linejoin="round"/>
<path d="M19.04 98.4038C19.0194 97.9647 19.1674 97.5342 19.4536 97.2004" stroke="#002366" stroke-width="0.22" stroke-linecap="round" stroke-linejoin="round"/>
<path d="M19.2006 100.357C19.1406 100.576 19.1332 100.805 19.1791 101.027C19.225 101.249 19.3229 101.457 19.4646 101.633" stroke="#002366" stroke-width="0.22" stroke-linecap="round" stroke-linejoin="round"/>
<path d="M20.3551 95.3612C20.3551 95.3612 19.0351 94.3844 19.3409 94.0082C19.6467 93.632 21.2571 93.9708 21.4441 94.4218C21.5555 94.7082 21.5815 95.0207 21.5189 95.3216" fill="white"/>
<path d="M20.3551 95.3612C20.3551 95.3612 19.0351 94.3844 19.3409 94.0082C19.6467 93.632 21.2571 93.9708 21.4441 94.4218C21.5555 94.7082 21.5815 95.0207 21.5189 95.3216" stroke="#002366" stroke-width="0.22" stroke-linecap="round" stroke-linejoin="round"/>
<path d="M24.3332 92.466L22.791 93.401L27.2174 98.4368L28.9642 97.9902L24.3332 92.466Z" fill="#00425F" stroke="#002366" stroke-width="0.22" stroke-linecap="round" stroke-linejoin="round"/>
<path d="M89.299 99.2618C89.299 99.2618 91.3582 99.3234 92.4186 99.3872C93.479 99.451 94.6604 99.6358 95.2258 100.76C95.7912 101.884 95.2874 103.006 94.414 103.257C93.5406 103.508 92.0446 102.507 91.114 102.197C90.4017 101.983 89.6711 101.836 88.9316 101.757L89.299 99.2618Z" fill="white" stroke="#002366" stroke-width="0.22" stroke-linecap="round" stroke-linejoin="round"/>
<path d="M41.9949 70.4946L42.4349 77.7326C42.4349 77.7326 40.8949 79.9128 39.9379 81.2416C38.9809 82.5704 36.0175 85.6988 35.7337 85.9518C35.3775 86.1928 34.9961 86.3942 34.5963 86.5524C34.5963 86.5524 32.6669 86.394 32.2885 86.2994C31.9101 86.2048 31.3711 86.361 31.0565 86.394C30.7419 86.427 30.2975 86.174 30.3283 86.5194C30.3591 86.8648 30.6759 86.9594 31.1181 87.0562C31.5603 87.153 31.9981 86.9946 32.1631 87.0892C32.3284 87.2055 32.4864 87.3318 32.6361 87.4676C32.6361 87.4676 30.9707 88.5852 30.8761 88.7436C30.7815 88.902 30.0753 89.8062 30.2029 90.0922C30.3305 90.3782 30.5813 90.2176 30.7089 89.9976C30.8368 89.8034 30.9843 89.6229 31.1489 89.4586C31.1489 89.4586 30.8959 90.1186 30.8013 90.4068C30.7067 90.695 30.6737 90.9458 30.8629 90.9766C31.0521 91.0074 31.2435 90.7236 31.2435 90.7236C31.2435 90.7236 31.3689 91.135 31.6549 91.0404C31.9409 90.9458 31.8595 90.7962 32.2709 90.3232C32.4909 90.0658 33.2037 89.7754 33.2037 89.7754C33.2037 89.7754 32.6031 90.7544 32.6339 90.8754C32.6647 90.9964 32.7615 91.223 32.9507 91.1284C33.1399 91.0338 33.8659 89.9272 33.9935 89.8084C34.1211 89.6896 35.1947 89.683 35.4477 89.43C35.7007 89.177 36.9327 87.5336 36.9327 87.5336C36.9327 87.5336 43.0333 82.8872 43.9727 82.0028C44.9121 81.1184 46.5643 78.0428 46.5643 77.8932C46.5643 77.7436 45.7745 67.7732 45.7745 67.7732L41.9949 70.4946Z" fill="white" stroke="#002366" stroke-width="0.22" stroke-linecap="round" stroke-linejoin="round"/>
<path d="M31.1533 89.4586C31.1533 89.4586 32.3853 88.3586 33.0805 88.099" stroke="#002366" stroke-width="0.22" stroke-linecap="round" stroke-linejoin="round"/>
<path d="M31.248 90.7236C31.4317 90.3553 31.6723 90.0182 31.9608 89.7248C32.434 89.3908 32.9238 89.081 33.4282 88.7964" stroke="#002366" stroke-width="0.22" stroke-linecap="round" stroke-linejoin="round"/>
<path d="M33.208 89.7754L33.7052 89.3904" stroke="#002366" stroke-width="0.22" stroke-linecap="round" stroke-linejoin="round"/>
<path d="M41.046 63.6988L41.8358 71.2206L47.14 67.1748C47.14 67.1748 45.666 64.2884 45.2436 63.1928C44.5462 61.391 41.64 60.2228 39.7744 60.7596" fill="#002366"/>
<path d="M41.046 63.6988L41.8358 71.2206L47.14 67.1748C47.14 67.1748 45.666 64.2884 45.2436 63.1928C44.5462 61.391 41.64 60.2228 39.7744 60.7596" stroke="#002366" stroke-width="0.22" stroke-linecap="round" stroke-linejoin="round"/>
</svg>
