<svg width="800" height="800" viewBox="0 0 800 800" fill="none" xmlns="http://www.w3.org/2000/svg">
<path d="M230.358 366.356L196.247 400.469C197.839 403.389 199.417 406.541 201.208 409.723C217.447 439.006 239.572 479.076 281.741 521.245C324.016 563.506 364.103 585.783 393.388 602.009C396.466 603.759 398.478 604.473 401.358 606.064L431.433 574.064L434.749 570.748C460.102 545.395 501.207 545.395 526.56 570.748L594.299 638.487C619.794 663.983 619.63 705.367 593.935 730.659L580.397 743.984C569.299 752.662 556.391 760.023 542.624 765.416C529.475 770.4 516.886 773.587 504.355 774.966C403.688 787.141 311.667 741.148 186.805 616.337C14.2737 443.762 27.2487 304.686 27.9206 298.678C29.4597 285.633 32.5816 273.109 37.5128 260.37C42.8519 246.708 50.3237 233.687 59.0019 222.642L72.3175 209.1C97.6066 183.381 139.01 183.206 164.513 208.711L230.353 274.552C255.707 299.9 255.71 341.005 230.358 366.356Z" fill="#F6D600"/>
<path d="M473.541 800C378.399 800 287.753 749.969 170.443 632.708C95.9363 558.181 45.4441 480.589 20.3676 402.086C0.720676 340.583 4.43161 300.478 4.92068 296.106C6.7113 280.92 10.3082 266.547 15.9285 252.017C22.0519 236.345 30.6441 221.269 40.8035 208.341C41.3332 207.667 41.9004 207.026 42.5004 206.412L55.8175 192.867C72.5051 175.895 94.8066 166.548 118.61 166.548C142.13 166.548 164.244 175.711 180.877 192.342L246.718 258.183C281.05 292.517 281.052 348.384 246.719 382.717L224.836 404.605C240.082 431.967 261.055 467.834 298.102 504.881C334.527 541.294 369.505 562.173 396.607 577.326L414.564 558.216C414.728 558.042 414.896 557.87 415.064 557.7L418.38 554.384C435.014 537.753 457.128 528.591 480.649 528.591C504.172 528.591 526.286 537.751 542.918 554.384L610.658 622.125C627.385 638.851 636.544 661.091 636.452 684.745C636.357 708.398 627.022 730.561 610.166 747.153L596.63 760.478C596.003 761.095 595.341 761.676 594.652 762.219C581.783 772.281 566.711 780.839 551.06 786.966C550.982 786.995 550.902 787.026 550.821 787.056C535.668 792.8 521.336 796.366 507.014 797.956C495.777 799.312 484.514 800 473.541 800ZM76.4441 237.909C69.3769 247.103 63.38 257.756 59.0644 268.794C54.8941 279.573 52.2176 290.259 50.9019 301.391C50.8832 301.578 47.4613 334.909 64.5191 388.203C80.2175 437.25 117.021 513.806 203.169 599.983C310.972 707.739 391.83 753.722 473.541 753.722C482.702 753.722 492.135 753.141 501.575 752C501.657 751.991 501.738 751.981 501.818 751.972C512.218 750.826 522.844 748.162 534.302 743.828C545.382 739.475 556.018 733.509 565.147 726.53L577.699 714.172C585.696 706.298 590.125 695.786 590.172 684.562C590.216 673.341 585.872 662.791 577.935 654.856L510.194 587.116C502.305 579.225 491.813 574.878 480.652 574.878C469.491 574.878 459 579.223 451.107 587.116L448.05 590.175L418.221 621.916C410.977 629.622 399.432 631.436 390.171 626.323C389.271 625.826 388.493 625.467 387.713 625.097C386.221 624.381 384.374 623.503 382.074 622.201C351.666 605.351 310.05 582.273 265.375 537.612C221.128 493.366 198.066 451.778 181.228 421.414L180.969 420.947C179.868 418.989 178.777 416.925 177.721 414.916C177.114 413.766 176.522 412.636 175.927 411.542C171.019 402.531 172.627 391.366 179.885 384.111L213.993 349.998C230.28 333.709 230.28 307.205 213.991 290.916L148.15 225.072C140.261 217.181 129.771 212.834 118.61 212.834C107.316 212.834 96.7363 217.27 88.8175 225.322L76.4441 237.909Z" fill="#4C213A"/>
<path d="M577.076 321.23C564.298 321.23 553.934 310.867 553.934 298.088V153.067C553.934 140.289 564.296 129.925 577.076 129.925C589.855 129.925 600.218 140.288 600.218 153.067V298.088C600.218 310.867 589.855 321.23 577.076 321.23Z" fill="#002366"/>
<path d="M649.585 248.719H504.569C491.791 248.719 481.427 238.356 481.427 225.577C481.427 212.797 491.789 202.434 504.569 202.434H649.585C662.363 202.434 672.727 212.797 672.727 225.577C672.727 238.356 662.364 248.719 649.585 248.719Z" fill="#002366"/>
<path d="M571.672 448.066C557.669 448.066 543.669 446.766 530.036 444.203C517.475 441.841 509.207 429.744 511.569 417.183C513.932 404.617 526.06 396.358 538.589 398.716C549.857 400.836 561.391 401.877 573.052 401.775C670.286 401.025 749.392 321.291 749.392 224.03C749.392 126.03 669.666 46.2906 571.666 46.2797C571.66 46.2797 571.65 46.2797 571.642 46.2797C475.033 46.2797 395.307 124.83 393.911 221.394C393.469 252.052 400.936 282.369 415.516 309.067C418.364 314.286 419.096 320.402 417.556 326.145L406.397 367.795L426.947 362.291C439.291 358.981 451.98 366.311 455.288 378.655C458.597 391 451.271 403.687 438.924 406.995L389.91 420.128C379.838 422.827 369.003 419.92 361.633 412.55C354.263 405.18 351.363 394.345 354.063 384.273L370.525 322.83C355.011 291.258 347.116 256.159 347.627 220.725C348.483 161.445 372.178 105.922 414.344 64.3859C456.497 22.8688 512.36 0 571.639 0C571.65 0 571.655 0 571.667 0C695.185 0.015625 795.672 100.517 795.672 224.033C795.672 283.761 772.65 339.858 730.846 381.997C689.038 424.137 633.124 447.6 573.402 448.061C572.827 448.064 572.249 448.066 571.672 448.066Z" fill="#002366"/>
</svg>
