<svg width="800" height="800" viewBox="0 0 800 800" fill="none" xmlns="http://www.w3.org/2000/svg">
<path d="M230.358 366.356L196.247 400.469C197.839 403.389 199.417 406.541 201.208 409.723C217.447 439.006 239.572 479.076 281.741 521.245C324.016 563.506 364.103 585.783 393.388 602.009C396.466 603.759 398.478 604.473 401.358 606.064L431.433 574.064L434.749 570.748C460.102 545.395 501.207 545.395 526.56 570.748L594.299 638.487C619.794 663.983 619.63 705.367 593.935 730.659L580.397 743.984C569.299 752.662 556.391 760.023 542.624 765.416C529.475 770.4 516.886 773.587 504.355 774.966C403.688 787.141 311.667 741.148 186.805 616.337C14.2737 443.762 27.2487 304.686 27.9206 298.678C29.4597 285.633 32.5816 273.109 37.5128 260.37C42.8519 246.708 50.3237 233.687 59.0019 222.642L72.3175 209.1C97.6066 183.381 139.01 183.206 164.513 208.711L230.353 274.552C255.707 299.9 255.71 341.005 230.358 366.356Z" fill="#F6D600"/>
<path d="M577.076 321.23C564.298 321.23 553.934 310.867 553.934 298.088V153.067C553.934 140.289 564.296 129.925 577.076 129.925C589.855 129.925 600.218 140.288 600.218 153.067V298.088C600.218 310.867 589.855 321.23 577.076 321.23Z" fill="#F6D600"/>
<path d="M649.585 248.719H504.569C491.791 248.719 481.427 238.356 481.427 225.577C481.427 212.797 491.789 202.434 504.569 202.434H649.585C662.363 202.434 672.727 212.797 672.727 225.577C672.727 238.356 662.364 248.719 649.585 248.719Z" fill="#F6D600"/>
<path d="M571.672 448.066C557.669 448.066 543.669 446.766 530.036 444.203C517.475 441.841 509.207 429.744 511.569 417.183C513.932 404.617 526.06 396.358 538.589 398.716C549.857 400.836 561.391 401.877 573.052 401.775C670.286 401.025 749.392 321.291 749.392 224.03C749.392 126.03 669.666 46.2906 571.666 46.2797C571.66 46.2797 571.65 46.2797 571.642 46.2797C475.033 46.2797 395.307 124.83 393.911 221.394C393.469 252.052 400.936 282.369 415.516 309.067C418.364 314.286 419.096 320.402 417.556 326.145L406.397 367.795L426.947 362.291C439.291 358.981 451.98 366.311 455.288 378.655C458.597 391 451.271 403.687 438.924 406.995L389.91 420.128C379.838 422.827 369.003 419.92 361.633 412.55C354.263 405.18 351.363 394.345 354.063 384.273L370.525 322.83C355.011 291.258 347.116 256.159 347.627 220.725C348.483 161.445 372.178 105.922 414.344 64.3859C456.497 22.8688 512.36 0 571.639 0C571.65 0 571.655 0 571.667 0C695.185 0.015625 795.672 100.517 795.672 224.033C795.672 283.761 772.65 339.858 730.846 381.997C689.038 424.137 633.124 447.6 573.402 448.061C572.827 448.064 572.249 448.066 571.672 448.066Z" fill="#002366"/>
</svg>
