<svg width="42" height="42" viewBox="0 0 42 42" fill="none" xmlns="http://www.w3.org/2000/svg">
<g clip-path="url(#clip0_266_196)">
<path d="M41.3438 21C41.3438 9.76172 32.2383 0.65625 21 0.65625C9.76172 0.65625 0.65625 9.76172 0.65625 21C0.65625 31.1538 8.09566 39.5702 17.8213 41.0977V26.8808H12.6533V21H17.8213V16.5178C17.8213 11.4196 20.8564 8.60344 25.5052 8.60344C27.7315 8.60344 30.0595 9.00047 30.0595 9.00047V14.0044H27.4936C24.967 14.0044 24.1787 15.5728 24.1787 17.1814V21H29.8208L28.9185 26.8808H24.1787V41.0977C33.9043 39.5702 41.3438 31.1538 41.3438 21Z" fill="#002366"/>
</g>
<defs>
<clipPath id="clip0_266_196">
<rect width="42" height="42" fill="white"/>
</clipPath>
</defs>
</svg>
