<svg width="42" height="40" viewBox="0 0 42 40" fill="none" xmlns="http://www.w3.org/2000/svg">
<path d="M28.6251 20.1875C28.6251 19.6875 28.5626 19.3125 28.5001 18.9062H21.1251V21.5625H25.5001C25.3438 22.7188 24.1876 24.9062 21.1251 24.9062C18.4688 24.9062 16.3126 22.7188 16.3126 20C16.3126 15.6562 21.4376 13.6562 24.1876 16.3125L26.3126 14.2812C24.9688 13.0312 23.1876 12.25 21.1251 12.25C16.8126 12.25 13.3751 15.7188 13.3751 20C13.3751 24.3125 16.8126 27.75 21.1251 27.75C25.5938 27.75 28.6251 24.625 28.6251 20.1875Z" fill="#172048"/>
<rect opacity="0.1" x="6.10352e-05" width="42" height="40" rx="20" fill="#007299"/>
</svg>
