<svg width="43" height="43" viewBox="0 0 43 43" fill="none" xmlns="http://www.w3.org/2000/svg">
<rect width="43" height="43" rx="21.5" fill="#002366"/>
<rect width="43" height="43" rx="21.5" stroke="#002366"/>
<rect width="43" height="43" rx="21.5" stroke="black" stroke-opacity="0.2"/>
<path d="M14.596 33.9994H9.41295V17.3086H14.596V33.9994ZM12.0017 15.0318C10.3443 15.0318 9 13.659 9 12.0017C9 11.2056 9.31625 10.4421 9.87917 9.87917C10.4421 9.31625 11.2056 9 12.0017 9C12.7978 9 13.5613 9.31625 14.1242 9.87917C14.6871 10.4421 15.0033 11.2056 15.0033 12.0017C15.0033 13.659 13.6585 15.0318 12.0017 15.0318ZM33.9944 33.9994H28.8225V25.8744C28.8225 23.9381 28.7835 21.4548 26.1278 21.4548C23.433 21.4548 23.0201 23.5586 23.0201 25.7349V33.9994H17.8426V17.3086H22.8136V19.5854H22.8862C23.5781 18.274 25.2684 16.8901 27.7902 16.8901C33.0357 16.8901 34 20.3443 34 24.8309V33.9994H33.9944Z" fill="white"/>
</svg>
