<svg width="55" height="55" viewBox="0 0 55 55" fill="none" xmlns="http://www.w3.org/2000/svg">
<circle cx="27.5" cy="27.5" r="27.5" fill="#002366"/>
<g clip-path="url(#clip0_80_1297)">
<path d="M17.6762 14.76L40.7537 27.4525C40.8517 27.5065 40.9335 27.5857 40.9904 27.682C41.0473 27.7783 41.0773 27.8881 41.0773 28C41.0773 28.1119 41.0473 28.2217 40.9904 28.318C40.9335 28.4143 40.8517 28.4936 40.7537 28.5475L17.6762 41.24C17.5811 41.2924 17.4739 41.319 17.3653 41.3173C17.2567 41.3156 17.1505 41.2857 17.057 41.2304C16.9635 41.1752 16.886 41.0965 16.8322 41.0022C16.7783 40.9078 16.75 40.8011 16.75 40.6925V15.3075C16.75 15.1989 16.7783 15.0922 16.8322 14.9978C16.886 14.9035 16.9635 14.8248 17.057 14.7696C17.1505 14.7143 17.2567 14.6844 17.3653 14.6827C17.4739 14.681 17.5811 14.7077 17.6762 14.76V14.76ZM19.25 29.25V37.5213L36.5625 28L19.25 18.4788V26.75H25.5V29.25H19.25Z" fill="white"/>
</g>
<defs>
<clipPath id="clip0_80_1297">
<rect width="30" height="30" fill="white" transform="translate(13 13)"/>
</clipPath>
</defs>
</svg>
