<svg width="47" height="38" viewBox="0 0 47 38" fill="none" xmlns="http://www.w3.org/2000/svg">
<path d="M23.5 0.25C34.7334 0.25 44.0792 8.33333 46.0396 19C44.0813 29.6667 34.7334 37.75 23.5 37.75C12.2667 37.75 2.92087 29.6667 0.960449 19C2.91878 8.33333 12.2667 0.25 23.5 0.25ZM23.5 33.5833C27.7489 33.5824 31.8717 32.1392 35.1935 29.4899C38.5153 26.8407 40.8394 23.1422 41.7854 19C40.8359 14.8611 38.5103 11.1667 35.1888 8.52089C31.8673 5.8751 27.7465 4.43443 23.5 4.43443C19.2536 4.43443 15.1327 5.8751 11.8112 8.52089C8.48975 11.1667 6.16413 14.8611 5.21462 19C6.16065 23.1422 8.48477 26.8407 11.8066 29.4899C15.1284 32.1392 19.2511 33.5824 23.5 33.5833ZM23.5 28.375C21.0136 28.375 18.6291 27.3873 16.8709 25.6291C15.1128 23.871 14.125 21.4864 14.125 19C14.125 16.5136 15.1128 14.129 16.8709 12.3709C18.6291 10.6127 21.0136 9.625 23.5 9.625C25.9864 9.625 28.371 10.6127 30.1292 12.3709C31.8873 14.129 32.875 16.5136 32.875 19C32.875 21.4864 31.8873 23.871 30.1292 25.6291C28.371 27.3873 25.9864 28.375 23.5 28.375ZM23.5 24.2083C24.8814 24.2083 26.2061 23.6596 27.1829 22.6828C28.1596 21.7061 28.7084 20.3813 28.7084 19C28.7084 17.6187 28.1596 16.2939 27.1829 15.3172C26.2061 14.3404 24.8814 13.7917 23.5 13.7917C22.1187 13.7917 20.7939 14.3404 19.8172 15.3172C18.8404 16.2939 18.2917 17.6187 18.2917 19C18.2917 20.3813 18.8404 21.7061 19.8172 22.6828C20.7939 23.6596 22.1187 24.2083 23.5 24.2083Z" fill="#002366"/>
</svg>
